<svg width="180" height="180" viewBox="0 0 180 180" fill="none" xmlns="http://www.w3.org/2000/svg">
<path d="M180 137.664H0V137.754H180V137.664Z" fill="#B8C7DF"/>
<path d="M161.964 143.456H150.041V143.546H161.964V143.456Z" fill="#B8C7DF"/>
<path d="M119.239 144.436H116.111V144.526H119.239V144.436Z" fill="#B8C7DF"/>
<path d="M149.681 140.116H142.772V140.206H149.681V140.116Z" fill="#B8C7DF"/>
<path d="M34.434 140.72H18.8856V140.81H34.434V140.72Z" fill="#B8C7DF"/>
<path d="M39.9204 140.72H37.6416V140.81H39.9204V140.72Z" fill="#B8C7DF"/>
<path d="M81.054 142.24H47.3292V142.33H81.054V142.24Z" fill="#B8C7DF"/>
<path d="M85.32 121.608H15.8076C15.2631 121.607 14.7411 121.39 14.3564 121.005C13.9717 120.619 13.7556 120.097 13.7556 119.552V21.8376C13.7604 21.2962 13.9785 20.7785 14.3627 20.397C14.7469 20.0154 15.2662 19.8009 15.8076 19.8H85.32C85.8652 19.8 86.388 20.0166 86.7735 20.4021C87.159 20.7876 87.3756 21.3104 87.3756 21.8556V119.552C87.3756 120.098 87.159 120.62 86.7735 121.006C86.388 121.391 85.8652 121.608 85.32 121.608ZM15.8076 19.872C15.2869 19.873 14.7879 20.0805 14.4201 20.449C14.0522 20.8175 13.8456 21.3169 13.8456 21.8376V119.552C13.8456 120.073 14.0522 120.573 14.4201 120.941C14.7879 121.31 15.2869 121.517 15.8076 121.518H85.32C85.841 121.517 86.3404 121.31 86.7089 120.941C87.0773 120.573 87.2847 120.073 87.2856 119.552V21.8376C87.2847 21.3166 87.0773 20.8172 86.7089 20.4488C86.3404 20.0803 85.841 19.873 85.32 19.872H15.8076Z" fill="#B8C7DF"/>
<path d="M163.192 121.608H93.6756C93.1307 121.607 92.6084 121.39 92.2231 121.005C91.8378 120.62 91.6209 120.097 91.62 119.552V21.8376C91.6257 21.2958 91.8446 20.7782 92.2294 20.3967C92.6142 20.0153 93.1338 19.8009 93.6756 19.8H163.192C163.732 19.8019 164.251 20.0168 164.634 20.3982C165.018 20.7796 165.235 21.2968 165.24 21.8376V119.552C165.24 120.096 165.024 120.618 164.64 121.003C164.257 121.389 163.736 121.606 163.192 121.608ZM93.6756 19.872C93.1546 19.873 92.6552 20.0803 92.2868 20.4488C91.9183 20.8172 91.7109 21.3166 91.71 21.8376V119.552C91.7109 120.073 91.9183 120.573 92.2868 120.941C92.6552 121.31 93.1546 121.517 93.6756 121.518H163.192C163.713 121.517 164.212 121.31 164.58 120.941C164.949 120.573 165.156 120.073 165.157 119.552V21.8376C165.156 21.3166 164.949 20.8172 164.58 20.4488C164.212 20.0803 163.713 19.873 163.192 19.872H93.6756Z" fill="#B8C7DF"/>
<path d="M68.9832 36.0864H34.902V112.864H68.9832V36.0864Z" fill="#D1EAFF"/>
<path d="M67.698 111.424V37.5264H36.1872V111.424H67.698Z" fill="#FAFAFA"/>
<path d="M52.3044 37.1556H51.5808V112.144H52.3044V37.1556Z" fill="#D1EAFF"/>
<path d="M69.768 35.0856H34.1136V38.7H69.768V35.0856Z" fill="#D1EAFF"/>
<path d="M69.768 39.0996H34.1136V39.528H69.768V39.0996Z" fill="#D1EAFF"/>
<path d="M69.768 40.0716H34.1136V40.5H69.768V40.0716Z" fill="#D1EAFF"/>
<path d="M69.768 41.0436H34.1136V41.472H69.768V41.0436Z" fill="#D1EAFF"/>
<path d="M69.768 42.0156H34.1136V42.444H69.768V42.0156Z" fill="#D1EAFF"/>
<path d="M69.768 42.9876H34.1136V43.416H69.768V42.9876Z" fill="#D1EAFF"/>
<path d="M69.768 43.9596H34.1136V44.388H69.768V43.9596Z" fill="#D1EAFF"/>
<path d="M69.768 44.9316H34.1136V45.36H69.768V44.9316Z" fill="#D1EAFF"/>
<path d="M69.768 45.9036H34.1136V46.332H69.768V45.9036Z" fill="#D1EAFF"/>
<path d="M69.768 46.8756H34.1136V47.304H69.768V46.8756Z" fill="#D1EAFF"/>
<path d="M69.768 47.8476H34.1136V48.276H69.768V47.8476Z" fill="#D1EAFF"/>
<path d="M69.768 48.8196H34.1136V49.248H69.768V48.8196Z" fill="#D1EAFF"/>
<path d="M69.768 49.7916H34.1136V50.22H69.768V49.7916Z" fill="#D1EAFF"/>
<path d="M69.768 50.7636H34.1136V51.192H69.768V50.7636Z" fill="#D1EAFF"/>
<path d="M69.768 51.7356H34.1136V52.164H69.768V51.7356Z" fill="#D1EAFF"/>
<path d="M69.768 52.7076H34.1136V53.136H69.768V52.7076Z" fill="#D1EAFF"/>
<path d="M69.768 53.6832H34.1136V54.1116H69.768V53.6832Z" fill="#D1EAFF"/>
<path d="M69.768 54.6552H34.1136V55.0836H69.768V54.6552Z" fill="#D1EAFF"/>
<path d="M69.768 55.6272H34.1136V56.0556H69.768V55.6272Z" fill="#D1EAFF"/>
<path d="M109.332 36.0864H75.2509V112.864H109.332V36.0864Z" fill="#D1EAFF"/>
<path d="M108.05 111.424V37.5264H76.5396V111.424H108.05Z" fill="#FAFAFA"/>
<path d="M92.6532 37.1556H91.9296V112.144H92.6532V37.1556Z" fill="#D1EAFF"/>
<path d="M110.12 35.0856H74.4661V38.7H110.12V35.0856Z" fill="#D1EAFF"/>
<path d="M110.12 39.0996H74.4661V39.528H110.12V39.0996Z" fill="#D1EAFF"/>
<path d="M110.12 40.0716H74.4661V40.5H110.12V40.0716Z" fill="#D1EAFF"/>
<path d="M110.12 41.0436H74.4661V41.472H110.12V41.0436Z" fill="#D1EAFF"/>
<path d="M110.12 42.0156H74.4661V42.444H110.12V42.0156Z" fill="#D1EAFF"/>
<path d="M110.12 42.9876H74.4661V43.416H110.12V42.9876Z" fill="#D1EAFF"/>
<path d="M110.12 43.9596H74.4661V44.388H110.12V43.9596Z" fill="#D1EAFF"/>
<path d="M110.12 44.9316H74.4661V45.36H110.12V44.9316Z" fill="#D1EAFF"/>
<path d="M110.12 45.9036H74.4661V46.332H110.12V45.9036Z" fill="#D1EAFF"/>
<path d="M110.12 46.8756H74.4661V47.304H110.12V46.8756Z" fill="#D1EAFF"/>
<path d="M110.12 47.8476H74.4661V48.276H110.12V47.8476Z" fill="#D1EAFF"/>
<path d="M110.12 48.8196H74.4661V49.248H110.12V48.8196Z" fill="#D1EAFF"/>
<path d="M110.12 49.7916H74.4661V50.22H110.12V49.7916Z" fill="#D1EAFF"/>
<path d="M110.12 50.7636H74.4661V51.192H110.12V50.7636Z" fill="#D1EAFF"/>
<path d="M110.12 51.7356H74.4661V52.164H110.12V51.7356Z" fill="#D1EAFF"/>
<path d="M110.12 52.7076H74.4661V53.136H110.12V52.7076Z" fill="#D1EAFF"/>
<path d="M110.12 53.6832H74.4661V54.1116H110.12V53.6832Z" fill="#D1EAFF"/>
<path d="M110.12 54.6552H74.4661V55.0836H110.12V54.6552Z" fill="#D1EAFF"/>
<path d="M110.12 55.6272H74.4661V56.0556H110.12V55.6272Z" fill="#D1EAFF"/>
<path d="M149.684 36.0864H115.603V112.864H149.684V36.0864Z" fill="#D1EAFF"/>
<path d="M148.399 111.424V37.5264H116.888V111.424H148.399Z" fill="#FAFAFA"/>
<path d="M133.006 37.1556H132.282V112.144H133.006V37.1556Z" fill="#D1EAFF"/>
<path d="M150.469 35.0856H114.815V38.7H150.469V35.0856Z" fill="#D1EAFF"/>
<path d="M150.469 39.0996H114.815V39.528H150.469V39.0996Z" fill="#D1EAFF"/>
<path d="M150.469 40.0716H114.815V40.5H150.469V40.0716Z" fill="#D1EAFF"/>
<path d="M150.469 41.0436H114.815V41.472H150.469V41.0436Z" fill="#D1EAFF"/>
<path d="M150.469 42.0156H114.815V42.444H150.469V42.0156Z" fill="#D1EAFF"/>
<path d="M150.469 42.9876H114.815V43.416H150.469V42.9876Z" fill="#D1EAFF"/>
<path d="M150.469 43.9596H114.815V44.388H150.469V43.9596Z" fill="#D1EAFF"/>
<path d="M150.469 44.9316H114.815V45.36H150.469V44.9316Z" fill="#D1EAFF"/>
<path d="M150.469 45.9036H114.815V46.332H150.469V45.9036Z" fill="#D1EAFF"/>
<path d="M150.469 46.8756H114.815V47.304H150.469V46.8756Z" fill="#D1EAFF"/>
<path d="M150.469 47.8476H114.815V48.276H150.469V47.8476Z" fill="#D1EAFF"/>
<path d="M150.469 48.8196H114.815V49.248H150.469V48.8196Z" fill="#D1EAFF"/>
<path d="M150.469 49.7916H114.815V50.22H150.469V49.7916Z" fill="#D1EAFF"/>
<path d="M150.469 50.7636H114.815V51.192H150.469V50.7636Z" fill="#D1EAFF"/>
<path d="M150.469 51.7356H114.815V52.164H150.469V51.7356Z" fill="#D1EAFF"/>
<path d="M150.469 52.7076H114.815V53.136H150.469V52.7076Z" fill="#D1EAFF"/>
<path d="M150.469 53.6832H114.815V54.1116H150.469V53.6832Z" fill="#D1EAFF"/>
<path d="M150.469 54.6552H114.815V55.0836H150.469V54.6552Z" fill="#D1EAFF"/>
<path d="M150.469 55.6272H114.815V56.0556H150.469V55.6272Z" fill="#D1EAFF"/>
<path d="M148.266 128.185C148.266 128.185 150.088 124.207 148.007 120.287C145.926 116.366 145.318 115.445 146.646 114.638C147.974 113.832 148.583 117.778 148.583 117.778C149.241 115.997 149.309 114.052 148.777 112.23C147.856 109.393 147.276 104.771 148.536 104.278C149.796 103.784 148.777 110.038 149.875 112.176C150.436 110.678 150.799 109.113 150.955 107.521C151.106 105.242 150.869 101.603 151.866 100.681C152.863 99.7596 153.5 100.393 152.521 105.422C151.933 108.427 151.607 111.477 151.549 114.538C151.549 114.538 153.709 107.942 155.167 107.748C156.625 107.554 156.607 109.692 155.372 111.546C154.138 113.4 151.733 116.716 151.34 118.426C151.34 118.426 153.716 113.461 155.851 114.984C157.986 116.507 153.99 119.502 152.212 120.586C150.433 121.669 149.195 128.459 149.195 128.459L148.266 128.185Z" fill="#676DA4"/>
<path d="M149.706 129.816C149.706 129.816 147.931 125.813 150.066 121.925C152.201 118.037 152.813 117.119 151.506 116.298C150.199 115.477 149.533 119.405 149.533 119.405C149.533 119.405 148.453 116.676 149.404 113.854C150.354 111.031 150.998 106.42 149.742 105.905C148.486 105.39 149.432 111.665 148.302 113.782C147.762 112.272 147.421 110.699 147.287 109.102C147.164 106.823 147.445 103.187 146.459 102.24C145.472 101.293 144.828 101.927 145.739 106.97C146.291 109.983 146.58 113.038 146.603 116.1C146.603 116.1 144.518 109.472 143.068 109.26C141.617 109.048 141.595 111.182 142.816 113.054C144.036 114.926 146.394 118.282 146.776 119.995C146.776 119.995 144.461 114.995 142.308 116.485C140.155 117.976 144.108 121.032 145.879 122.141C147.65 123.25 148.802 130.061 148.802 130.061L149.706 129.816Z" fill="#B8C7DF"/>
<path d="M141.516 126.965H156.182L154.994 137.455H142.704L141.516 126.965Z" fill="#B8C7DF"/>
<path d="M31.5936 126.216C31.5396 125.856 30.3264 117.472 32.76 114.574C33.0031 114.269 33.3105 114.021 33.6602 113.849C34.0099 113.677 34.3934 113.584 34.7832 113.576C39.7008 113.461 40.374 117.414 40.3812 117.454L39.798 117.544C39.7764 117.4 39.1932 114.059 34.7976 114.163C34.4909 114.168 34.1891 114.241 33.9143 114.377C33.6396 114.514 33.3989 114.71 33.21 114.952C30.942 117.648 32.1624 126.043 32.1732 126.13L31.5936 126.216Z" fill="#B8C7DF"/>
<path d="M31.2984 125.834L30.7116 125.816C30.7116 125.737 30.906 118.084 27.1332 116.503C23.4396 114.955 21.7764 118.138 21.708 118.274L21.1824 118.012C21.204 117.972 23.1516 114.199 27.36 115.963C31.5036 117.698 31.32 125.503 31.2984 125.834Z" fill="#B8C7DF"/>
<path d="M31.32 126.436C31.32 126.313 31.284 114.196 28.926 110.668C26.6616 107.269 23.004 108.868 22.8492 108.94L22.608 108.407C22.6512 108.385 26.8668 106.524 29.4156 110.344C31.8708 114.03 31.9068 125.928 31.9068 126.436H31.32Z" fill="#B8C7DF"/>
<path d="M35.4888 113.868C35.4888 113.868 33.3288 114.66 33.9804 116.528C34.632 118.397 41.4 121.471 41.4 121.471C41.4 121.471 44.2404 118.865 41.6304 114.631C39.0204 110.398 35.5464 112.532 35.4888 113.868Z" fill="#676DA4"/>
<path d="M28.8 110.03C28.8 110.03 30.3264 109.868 30.204 108.95C30.0816 108.032 24.2784 105.631 20.844 109.498C20.844 109.498 23.0364 113.263 26.2044 113.31C29.3724 113.357 28.8 110.03 28.8 110.03Z" fill="#676DA4"/>
<path d="M27.2484 116.233C27.2484 116.233 28.2996 115.384 27.1656 114.97C26.0316 114.556 20.4588 114.674 20.4012 120.19C20.4012 120.19 26.8812 121.27 27.6912 119.167C28.5012 117.065 27.2484 116.233 27.2484 116.233Z" fill="#676DA4"/>
<path d="M36.6408 137.455H26.5716L25.488 126.436H37.728L36.6408 137.455Z" fill="#B8C7DF"/>
<path d="M38.2644 125.219H24.948V127.652H38.2644V125.219Z" fill="#676DA4"/>
<path d="M90 153.922C128.55 153.922 159.8 152.097 159.8 149.846C159.8 147.596 128.55 145.771 90 145.771C51.4503 145.771 20.1996 147.596 20.1996 149.846C20.1996 152.097 51.4503 153.922 90 153.922Z" fill="#D1EAFF"/>
<path d="M114.8 70.8192C114.8 70.8192 114.8 74.268 113.72 75.6072C112.64 76.9464 106.981 79.7364 106.981 79.7364C106.981 79.7364 103.612 79.7364 103.302 79.7364C102.992 79.7364 102.132 81.2736 102.132 81.2736L103.572 82.9728C103.572 82.9728 107.752 82.1628 107.37 80.9496C107.37 80.9496 112.925 78.7896 114.491 77.6916C116.057 76.5936 117.245 71.73 117.245 71.73L114.8 70.8192Z" fill="#E4897B"/>
<path d="M116.64 60.9876C114.962 60.3792 114.008 71.874 114.008 71.874L118.328 73.3824C118.328 73.3824 119.88 62.172 116.64 60.9876Z" fill="#1222BF"/>
<path opacity="0.4" d="M118.559 70.9488C118.451 72.3888 118.314 73.3824 118.314 73.3824L113.994 71.874C113.994 71.874 114.944 60.3756 116.622 60.9876C117.752 61.4016 118.3 63.0288 118.534 64.9764C118.727 66.9621 118.736 68.9615 118.559 70.9488Z" fill="white"/>
<path opacity="0.2" d="M118.559 70.9488C116.554 68.5908 117.839 64.422 117.839 64.422C118.1 64.5663 118.335 64.7537 118.534 64.9764C118.727 66.9621 118.736 68.9615 118.559 70.9488Z" fill="black"/>
<path d="M135.068 146.52H138.719C138.778 146.521 138.836 146.541 138.882 146.579C138.928 146.616 138.961 146.667 138.974 146.725L139.565 149.4C139.577 149.457 139.578 149.516 139.567 149.573C139.556 149.63 139.535 149.685 139.503 149.734C139.471 149.783 139.43 149.825 139.382 149.858C139.334 149.891 139.28 149.914 139.223 149.926H139.126C137.945 149.926 137.084 149.832 135.605 149.832C134.69 149.832 131.936 149.929 130.676 149.929C129.416 149.929 129.236 148.684 129.766 148.568C132.08 148.064 133.823 147.366 134.564 146.7C134.703 146.577 134.884 146.513 135.068 146.52Z" fill="#263238"/>
<path d="M119.595 146.416H123.242C123.302 146.415 123.36 146.435 123.407 146.473C123.453 146.51 123.485 146.562 123.498 146.621L124.092 149.296C124.107 149.361 124.107 149.428 124.091 149.493C124.076 149.558 124.046 149.619 124.003 149.67C123.961 149.722 123.907 149.763 123.846 149.79C123.786 149.818 123.719 149.831 123.653 149.828C122.472 149.81 121.611 149.738 120.128 149.738C119.217 149.738 116.463 149.832 115.2 149.832C113.936 149.832 113.76 148.586 114.293 148.475C116.608 147.971 118.35 147.269 119.091 146.606C119.228 146.48 119.409 146.412 119.595 146.416Z" fill="#263238"/>
<path opacity="0.1" d="M135.068 146.52H138.719C138.778 146.521 138.836 146.541 138.882 146.579C138.928 146.616 138.961 146.667 138.974 146.725L139.565 149.4C139.577 149.457 139.578 149.516 139.567 149.573C139.556 149.63 139.535 149.685 139.503 149.734C139.471 149.783 139.43 149.825 139.382 149.858C139.334 149.891 139.28 149.914 139.223 149.926H139.126C137.945 149.926 137.084 149.832 135.605 149.832C134.69 149.832 131.936 149.929 130.676 149.929C129.416 149.929 129.236 148.684 129.766 148.568C132.08 148.064 133.823 147.366 134.564 146.7C134.703 146.577 134.884 146.513 135.068 146.52Z" fill="white"/>
<path opacity="0.1" d="M119.595 146.416H123.242C123.302 146.415 123.36 146.435 123.407 146.473C123.453 146.51 123.485 146.562 123.498 146.621L124.092 149.296C124.107 149.361 124.107 149.428 124.091 149.493C124.076 149.558 124.046 149.619 124.003 149.67C123.961 149.722 123.907 149.763 123.846 149.79C123.786 149.818 123.719 149.831 123.653 149.828C122.472 149.81 121.611 149.738 120.128 149.738C119.217 149.738 116.463 149.832 115.2 149.832C113.936 149.832 113.76 148.586 114.293 148.475C116.608 147.971 118.35 147.269 119.091 146.606C119.228 146.48 119.409 146.412 119.595 146.416Z" fill="white"/>
<path d="M137.005 78.8724H121.061C119.545 87.1524 114.8 120.758 118.206 146.855H123.606C123.606 146.855 123.12 107.222 127.868 94.4136C128.416 101.254 133.988 146.83 133.988 146.83H139.482C139.482 146.83 138.661 129.69 137.837 113.501C137.322 103.32 137.027 80.9676 137.005 78.8724Z" fill="#1222BF"/>
<path opacity="0.2" d="M137.005 78.8724H121.061C119.545 87.1524 114.8 120.758 118.206 146.855H123.606C123.606 146.855 123.12 107.222 127.868 94.4136C128.416 101.254 133.988 146.83 133.988 146.83H139.482C139.482 146.83 138.661 129.69 137.837 113.501C137.322 103.32 137.027 80.9676 137.005 78.8724Z" fill="white"/>
<path opacity="0.2" d="M127.865 94.4172C127.082 96.6619 126.487 98.9679 126.086 101.311C125.64 95.2128 127.44 88.7436 127.44 88.7436L127.865 94.4172Z" fill="black"/>
<path d="M137.048 79.3728L120.722 79.8012C121.176 70.4412 116.762 64.5336 116.201 61.6608C116.16 61.4619 116.199 61.2549 116.31 61.0846C116.42 60.9142 116.593 60.794 116.791 60.75C117.601 60.5736 118.433 60.4224 119.275 60.2928C123.072 59.7544 126.903 59.4969 130.738 59.5224C132.437 59.5224 132.062 59.5728 132.062 59.5728C134.942 61.8336 137.214 74.196 137.048 79.3728Z" fill="#1222BF"/>
<path opacity="0.4" d="M137.048 79.3728L120.722 79.8012C121.176 70.4412 116.762 64.5336 116.201 61.6608C116.16 61.4619 116.199 61.2549 116.31 61.0846C116.42 60.9142 116.593 60.794 116.791 60.75C117.601 60.5736 118.433 60.4224 119.275 60.2928C123.072 59.7544 126.903 59.4969 130.738 59.5224C132.437 59.5224 132.062 59.5728 132.062 59.5728C134.942 61.8336 137.214 74.196 137.048 79.3728Z" fill="white"/>
<path d="M127.019 60.0696C126.659 62.2116 123.286 64.3572 123.286 64.3572C123.286 64.3572 121.554 62.4456 121.414 60.9876C121.629 60.7765 121.811 60.5337 121.954 60.2676C122.061 60.0738 122.117 59.8556 122.116 59.634C122.075 59.2171 121.938 58.8153 121.716 58.4604C121.598 58.2505 121.467 58.0485 121.324 57.8556L123.674 54.9396L124.214 54.2664C124.24 54.468 124.272 54.6912 124.312 54.9252C124.405 55.4481 124.526 55.966 124.672 56.4768C125.082 57.9816 125.813 59.5296 127.019 60.0696Z" fill="#E4897B"/>
<path opacity="0.2" d="M124.657 56.4804C124.538 57.9204 123.998 59.9112 121.954 60.2712C122.061 60.0774 122.117 59.8592 122.116 59.6376C122.075 59.2207 121.938 58.8189 121.716 58.464C121.598 58.2542 121.467 58.0521 121.324 57.8592L123.674 54.9432C123.88 54.9432 124.096 54.9432 124.312 54.9432C124.401 55.4611 124.516 55.9741 124.657 56.4804Z" fill="black"/>
<path d="M115.146 48.9852C115.146 48.9852 115.092 53.0532 117.418 54.2952C119.743 55.5372 118.721 48.1176 118.721 48.1176L115.146 48.9852Z" fill="#263238"/>
<path d="M117.234 56.6748C117.309 56.7989 117.391 56.9191 117.479 57.0348C117.784 57.4406 118.164 57.7841 118.598 58.0464C119.039 58.3187 119.528 58.5033 120.038 58.59C120.956 58.7547 121.901 58.5725 122.692 58.0788C123.253 57.7192 123.705 57.2124 123.998 56.6136C124.949 54.7668 124.402 53.1504 123.692 50.346C123.537 49.6886 123.216 49.0818 122.76 48.5835C122.304 48.0852 121.728 47.7118 121.086 47.4989C120.445 47.2861 119.76 47.2407 119.097 47.3673C118.433 47.4939 117.813 47.7881 117.295 48.222C114.941 50.1732 115.859 54.3852 117.234 56.6748Z" fill="#E4897B"/>
<path d="M119.75 52.4412C119.833 52.6572 119.75 52.884 119.61 52.9308C119.47 52.9776 119.29 52.83 119.214 52.6068C119.138 52.3836 119.214 52.164 119.354 52.1172C119.495 52.0704 119.675 52.2 119.75 52.4412Z" fill="#263238"/>
<path d="M117.212 53.244C117.235 53.2854 117.25 53.3308 117.255 53.3778C117.261 53.4248 117.257 53.4724 117.244 53.5179C117.231 53.5634 117.209 53.6058 117.179 53.6428C117.15 53.6798 117.113 53.7107 117.072 53.7336C116.928 53.7804 116.752 53.6328 116.68 53.4096C116.608 53.1864 116.68 52.9668 116.816 52.92C116.953 52.8732 117.144 53.0316 117.212 53.244Z" fill="#263238"/>
<path d="M118.051 53.1C118.002 53.8703 117.845 54.6299 117.587 55.3572C117.776 55.4198 117.977 55.4397 118.175 55.4154C118.373 55.3911 118.563 55.3233 118.732 55.2168L118.051 53.1Z" fill="#DE5753"/>
<path d="M115.92 52.4556C115.945 52.4606 115.97 52.4593 115.994 52.4517C116.018 52.4442 116.04 52.4306 116.057 52.4124C116.166 52.2779 116.306 52.1708 116.464 52.0996C116.622 52.0284 116.794 51.9949 116.968 52.002C117.004 52.0068 117.041 51.9969 117.07 51.9747C117.099 51.9524 117.118 51.9195 117.122 51.8832C117.127 51.8469 117.117 51.8102 117.095 51.7812C117.073 51.7522 117.04 51.7332 117.004 51.7284C116.785 51.7142 116.566 51.7525 116.365 51.8402C116.164 51.9279 115.986 52.0623 115.848 52.2324C115.835 52.2448 115.825 52.2597 115.818 52.276C115.811 52.2924 115.808 52.31 115.808 52.3278C115.808 52.3456 115.811 52.3632 115.818 52.3796C115.825 52.396 115.835 52.4108 115.848 52.4232C115.868 52.4414 115.893 52.4528 115.92 52.4556Z" fill="#263238"/>
<path d="M119.93 51.2676C119.956 51.2575 119.979 51.2399 119.995 51.2172C120.002 51.2007 120.006 51.1829 120.006 51.1649C120.007 51.1469 120.003 51.129 119.997 51.1123C119.99 51.0955 119.98 51.0803 119.967 51.0674C119.955 51.0545 119.94 51.0443 119.923 51.0372C119.722 50.9466 119.503 50.9055 119.283 50.9174C119.063 50.9293 118.849 50.9939 118.66 51.1056C118.645 51.1157 118.632 51.1287 118.622 51.1438C118.612 51.1589 118.605 51.1758 118.602 51.1935C118.599 51.2112 118.599 51.2295 118.602 51.2471C118.606 51.2648 118.613 51.2815 118.624 51.2964C118.634 51.3114 118.647 51.3241 118.662 51.3341C118.677 51.344 118.694 51.3508 118.711 51.3541C118.729 51.3575 118.747 51.3573 118.765 51.3535C118.783 51.3498 118.8 51.3426 118.814 51.3324C118.967 51.2491 119.137 51.2022 119.31 51.1953C119.484 51.1884 119.657 51.2218 119.815 51.2928C119.835 51.2977 119.856 51.298 119.876 51.2937C119.896 51.2893 119.914 51.2804 119.93 51.2676Z" fill="#263238"/>
<path d="M120.578 47.5488L120.755 48.8196C120.989 48.8643 121.198 48.9953 121.34 49.1867C121.482 49.3781 121.547 49.6158 121.522 49.8528C121.399 50.994 122.411 52.4448 123.376 52.8768C123.376 52.8768 123.282 52.4196 123.689 52.4268C124.096 52.434 124.61 54.7992 124.168 56.1096C124.168 56.1096 125.017 54.8064 124.999 52.1856C124.981 49.7592 124.553 47.8476 123.854 47.0952L120.578 47.5488Z" fill="#263238"/>
<path d="M125.608 52.2252C125.499 52.9443 125.111 53.5913 124.528 54.0252C123.75 54.5904 123.023 53.9748 122.954 53.064C122.9 52.2504 123.232 50.9544 124.153 50.7564C125.075 50.5584 125.73 51.3396 125.608 52.2252Z" fill="#E4897B"/>
<path d="M119.52 56.5668C119.498 56.5669 119.477 56.5588 119.461 56.5441C119.445 56.5294 119.435 56.5092 119.434 56.4876C119.431 56.4759 119.432 56.4639 119.435 56.4523C119.438 56.4408 119.443 56.4301 119.451 56.4209C119.458 56.4116 119.468 56.4041 119.478 56.3989C119.489 56.3936 119.501 56.3907 119.513 56.3904C119.771 56.3613 120.008 56.2319 120.173 56.03C120.337 55.828 120.415 55.5696 120.391 55.3104C120.39 55.2986 120.391 55.2867 120.395 55.2754C120.399 55.2641 120.405 55.2536 120.412 55.2446C120.42 55.2355 120.429 55.2281 120.44 55.2227C120.451 55.2174 120.462 55.2141 120.474 55.2132C120.498 55.2121 120.521 55.2201 120.539 55.2355C120.557 55.2508 120.568 55.2725 120.571 55.296C120.571 55.296 120.632 56.4588 119.531 56.5704L119.52 56.5668Z" fill="#263238"/>
<path d="M124.2 47.6064C124.2 47.6064 124.06 45.9108 121.176 45.3492C118.292 44.7876 115.906 46.9908 113.911 46.3752C111.917 45.7596 113.087 50.2308 116.849 49.734C119.381 49.3453 121.852 48.6302 124.2 47.6064Z" fill="#263238"/>
<path opacity="0.2" d="M130.356 63.4248C130.356 63.4248 128.984 69.6672 128.495 71.5896C127.512 75.4812 122.789 79.5348 122.789 79.5348C122.789 79.5348 125.733 78.8472 128.829 78.3216C132.663 77.6736 136.256 72.3888 134.107 65.3616L130.356 63.4248Z" fill="black"/>
<path d="M130.241 69.4044C130.241 69.4044 130.241 72.8532 129.161 74.1924C128.081 75.5316 122.4 78.3216 122.4 78.3216H118.732C118.422 78.3216 117.562 79.8588 117.562 79.8588L119.002 81.558C119.002 81.558 123.181 80.748 122.8 79.5348C122.8 79.5348 128.354 77.3748 129.92 76.2768C131.486 75.1788 132.674 70.3152 132.674 70.3152L130.241 69.4044Z" fill="#E4897B"/>
<path d="M132.062 59.5728C130.385 58.9608 129.434 70.4592 129.434 70.4592L133.754 71.9676C133.754 71.9676 135.31 60.7536 132.062 59.5728Z" fill="#1222BF"/>
<path opacity="0.4" d="M132.062 59.5728C130.385 58.9608 129.434 70.4592 129.434 70.4592L133.754 71.9676C133.754 71.9676 135.31 60.7536 132.062 59.5728Z" fill="white"/>
<path d="M88.2 149.929C80.5032 149.929 74.2428 142.258 74.2428 132.826C74.2428 123.394 80.5032 115.726 88.2 115.726C95.8968 115.726 102.154 123.397 102.154 132.826C102.154 142.254 95.8788 149.929 88.2 149.929ZM88.2 117.529C81.4968 117.529 76.0428 124.394 76.0428 132.829C76.0428 141.264 81.4968 148.133 88.2 148.133C94.9032 148.133 100.339 141.264 100.339 132.84C100.339 124.416 94.8888 117.526 88.2 117.526V117.529Z" fill="#2E353A"/>
<path d="M88.2 117.36C81.396 117.36 75.8628 124.304 75.8628 132.84C75.8628 141.376 81.396 148.32 88.2 148.32C95.004 148.32 100.534 141.376 100.534 132.84C100.534 124.304 94.986 117.36 88.2 117.36ZM90.72 130.158L95.6772 123.84C96.4771 124.989 97.1019 126.251 97.5312 127.584L91.1016 130.921C90.9986 130.655 90.8709 130.4 90.72 130.158ZM88.56 128.617V119.52C89.7314 119.578 90.8763 119.89 91.9152 120.434L89.1576 128.779C88.9655 128.702 88.7649 128.647 88.56 128.617ZM87.84 128.617C87.6502 128.644 87.4642 128.692 87.2856 128.761L84.6 120.355C85.6096 119.853 86.7134 119.569 87.84 119.52V128.617ZM85.302 130.849L78.912 127.393C79.3418 126.126 79.9478 124.925 80.712 123.826L85.662 130.158C85.5185 130.378 85.3933 130.609 85.2876 130.849H85.302ZM85.0752 131.548C85.0017 131.849 84.9559 132.156 84.9384 132.466H78.0156C78.0407 130.985 78.2622 129.514 78.6744 128.092L85.0752 131.548ZM84.924 133.2C84.942 133.491 84.983 133.78 85.0464 134.064L78.6204 137.401C78.2429 136.032 78.0397 134.62 78.0156 133.2H84.924ZM85.266 134.762C85.3629 135.022 85.4834 135.273 85.626 135.511L80.6904 141.84C79.8919 140.69 79.2672 139.428 78.8364 138.096L85.266 134.762ZM87.8256 137.052V146.153C86.6529 146.095 85.5069 145.783 84.4668 145.238L87.2244 136.894C87.4231 136.966 87.6298 137.014 87.84 137.038L87.8256 137.052ZM88.5456 137.052C88.7338 137.024 88.9184 136.975 89.0964 136.908L91.7604 145.31C90.7584 145.81 89.6638 146.097 88.5456 146.153V137.052ZM91.0656 134.816L97.4592 138.276C97.0292 139.544 96.4233 140.745 95.6592 141.844L90.72 135.497C90.8593 135.276 90.9797 135.043 91.08 134.802L91.0656 134.816ZM91.2924 134.122C91.3681 133.819 91.4175 133.511 91.44 133.2H98.352C98.3272 134.682 98.1056 136.154 97.6932 137.578L91.2924 134.122ZM91.44 132.48C91.4187 132.191 91.3766 131.903 91.314 131.62L97.74 128.282C98.1197 129.65 98.3254 131.061 98.352 132.48H91.44ZM95.2236 123.242L90.2664 129.582C90.1182 129.421 89.9542 129.275 89.7768 129.146L92.5344 120.805C93.5642 121.454 94.4761 122.273 95.2308 123.228L95.2236 123.242ZM83.9556 120.722L86.616 129.114C86.4238 129.251 86.2465 129.408 86.0868 129.582L81.1368 123.228C81.9217 122.227 82.8787 121.374 83.9628 120.708L83.9556 120.722ZM81.1296 142.441L86.094 136.08C86.2422 136.241 86.4062 136.387 86.5836 136.516L83.826 144.857C82.7981 144.205 81.8887 143.384 81.1368 142.427L81.1296 142.441ZM92.3976 144.961L89.7372 136.573C89.9294 136.436 90.1067 136.279 90.2664 136.105L95.2236 142.445C94.4401 143.439 93.4856 144.285 92.4048 144.943L92.3976 144.961Z" fill="#1222BF"/>
<g opacity="0.2">
<path d="M88.2 117.36C81.396 117.36 75.8628 124.304 75.8628 132.84C75.8628 141.376 81.396 148.32 88.2 148.32C95.004 148.32 100.534 141.376 100.534 132.84C100.534 124.304 94.986 117.36 88.2 117.36ZM90.72 130.158L95.6772 123.84C96.4771 124.989 97.1019 126.251 97.5312 127.584L91.1016 130.921C90.9986 130.655 90.8709 130.4 90.72 130.158ZM88.56 128.617V119.52C89.7314 119.578 90.8763 119.89 91.9152 120.434L89.1576 128.779C88.9655 128.702 88.7649 128.647 88.56 128.617ZM87.84 128.617C87.6502 128.644 87.4642 128.692 87.2856 128.761L84.6 120.355C85.6096 119.853 86.7134 119.569 87.84 119.52V128.617ZM85.302 130.849L78.912 127.393C79.3418 126.126 79.9478 124.925 80.712 123.826L85.662 130.158C85.5185 130.378 85.3933 130.609 85.2876 130.849H85.302ZM85.0752 131.548C85.0017 131.849 84.9559 132.156 84.9384 132.466H78.0156C78.0407 130.985 78.2622 129.514 78.6744 128.092L85.0752 131.548ZM84.924 133.2C84.942 133.491 84.983 133.78 85.0464 134.064L78.6204 137.401C78.2429 136.032 78.0397 134.62 78.0156 133.2H84.924ZM85.266 134.762C85.3629 135.022 85.4834 135.273 85.626 135.511L80.6904 141.84C79.8919 140.69 79.2672 139.428 78.8364 138.096L85.266 134.762ZM87.8256 137.052V146.153C86.6529 146.095 85.5069 145.783 84.4668 145.238L87.2244 136.894C87.4231 136.966 87.6298 137.014 87.84 137.038L87.8256 137.052ZM88.5456 137.052C88.7338 137.024 88.9184 136.975 89.0964 136.908L91.7604 145.31C90.7584 145.81 89.6638 146.097 88.5456 146.153V137.052ZM91.0656 134.816L97.4592 138.276C97.0292 139.544 96.4233 140.745 95.6592 141.844L90.72 135.497C90.8593 135.276 90.9797 135.043 91.08 134.802L91.0656 134.816ZM91.2924 134.122C91.3681 133.819 91.4175 133.511 91.44 133.2H98.352C98.3272 134.682 98.1056 136.154 97.6932 137.578L91.2924 134.122ZM91.44 132.48C91.4187 132.191 91.3766 131.903 91.314 131.62L97.74 128.282C98.1197 129.65 98.3254 131.061 98.352 132.48H91.44ZM95.2236 123.242L90.2664 129.582C90.1182 129.421 89.9542 129.275 89.7768 129.146L92.5344 120.805C93.5642 121.454 94.4761 122.273 95.2308 123.228L95.2236 123.242ZM83.9556 120.722L86.616 129.114C86.4238 129.251 86.2465 129.408 86.0868 129.582L81.1368 123.228C81.9217 122.227 82.8787 121.374 83.9628 120.708L83.9556 120.722ZM81.1296 142.441L86.094 136.08C86.2422 136.241 86.4062 136.387 86.5836 136.516L83.826 144.857C82.7981 144.205 81.8887 143.384 81.1368 142.427L81.1296 142.441ZM92.3976 144.961L89.7372 136.573C89.9294 136.436 90.1067 136.279 90.2664 136.105L95.2236 142.445C94.4401 143.439 93.4856 144.285 92.4048 144.943L92.3976 144.961Z" fill="black"/>
</g>
<path d="M97.5599 115.949H83.5667C82.7784 115.95 82.0226 116.263 81.4651 116.821C80.9077 117.378 80.5941 118.134 80.5931 118.922V142.171C80.5931 142.524 80.4528 142.863 80.203 143.113C79.9532 143.363 79.6144 143.503 79.2611 143.503H74.8799C74.689 143.503 74.5058 143.579 74.3708 143.714C74.2358 143.849 74.1599 144.032 74.1599 144.223C74.1599 144.414 74.2358 144.597 74.3708 144.732C74.5058 144.867 74.689 144.943 74.8799 144.943H79.2467C79.9813 144.941 80.6853 144.649 81.2047 144.129C81.7242 143.61 82.0168 142.906 82.0187 142.171V133.56H97.5599C97.7509 133.56 97.934 133.484 98.069 133.349C98.2041 133.214 98.2799 133.031 98.2799 132.84V116.669C98.2799 116.478 98.2041 116.295 98.069 116.16C97.934 116.025 97.7509 115.949 97.5599 115.949ZM96.8399 132.12H82.0331V118.922C82.0331 118.516 82.1947 118.126 82.4823 117.838C82.7699 117.55 83.16 117.389 83.5667 117.389H96.8399V132.12Z" fill="#2E353A"/>
<path opacity="0.3" d="M97.5599 115.949H83.5667C82.7784 115.95 82.0226 116.263 81.4651 116.821C80.9077 117.378 80.5941 118.134 80.5931 118.922V142.171C80.5931 142.524 80.4528 142.863 80.203 143.113C79.9532 143.363 79.6144 143.503 79.2611 143.503H74.8799C74.689 143.503 74.5058 143.579 74.3708 143.714C74.2358 143.849 74.1599 144.032 74.1599 144.223C74.1599 144.414 74.2358 144.597 74.3708 144.732C74.5058 144.867 74.689 144.943 74.8799 144.943H79.2467C79.9813 144.941 80.6853 144.649 81.2047 144.129C81.7242 143.61 82.0168 142.906 82.0187 142.171V133.56H97.5599C97.7509 133.56 97.934 133.484 98.069 133.349C98.2041 133.214 98.2799 133.031 98.2799 132.84V116.669C98.2799 116.478 98.2041 116.295 98.069 116.16C97.934 116.025 97.7509 115.949 97.5599 115.949ZM96.8399 132.12H82.0331V118.922C82.0331 118.516 82.1947 118.126 82.4823 117.838C82.7699 117.55 83.16 117.389 83.5667 117.389H96.8399V132.12Z" fill="white"/>
<path d="M99.2268 84.7152V107.906H82.3284C81.6113 107.906 80.9236 108.191 80.4166 108.698C79.9096 109.205 79.6248 109.893 79.6248 110.61V122.645H97.7832C98.6514 122.644 99.4837 122.298 100.097 121.684C100.711 121.07 101.056 120.237 101.056 119.369V84.7152H99.2268Z" fill="#2E353A"/>
<path opacity="0.3" d="M99.2268 84.7152V107.906H82.3284C81.6113 107.906 80.9236 108.191 80.4166 108.698C79.9096 109.205 79.6248 109.893 79.6248 110.61V122.645H97.7832C98.6514 122.644 99.4837 122.298 100.097 121.684C100.711 121.07 101.056 120.237 101.056 119.369V84.7152H99.2268Z" fill="white"/>
<path d="M82.008 116.64H109.483V121.91H79.2756V119.39C79.2732 119.03 79.3421 118.673 79.4784 118.339C79.6146 118.006 79.8155 117.702 80.0695 117.447C80.3234 117.191 80.6255 116.988 80.9582 116.85C81.2908 116.711 81.6476 116.64 82.008 116.64Z" fill="#2E353A"/>
<path d="M112.194 121.144H79.2288C79.1304 121.144 79.0331 121.163 78.9422 121.201C78.8514 121.238 78.7688 121.293 78.6993 121.363C78.6298 121.432 78.5746 121.515 78.537 121.606C78.4993 121.697 78.48 121.794 78.48 121.892C78.48 122.091 78.5588 122.282 78.6991 122.423C78.8394 122.564 79.0299 122.644 79.2288 122.645H112.194C112.388 122.645 112.574 122.57 112.714 122.436C112.853 122.302 112.935 122.118 112.943 121.925C112.947 121.824 112.931 121.723 112.895 121.628C112.86 121.534 112.805 121.447 112.735 121.374C112.665 121.301 112.581 121.243 112.488 121.204C112.395 121.164 112.295 121.144 112.194 121.144Z" fill="#2E353A"/>
<path opacity="0.3" d="M112.194 121.144H79.2288C79.1304 121.144 79.0331 121.163 78.9422 121.201C78.8514 121.238 78.7688 121.293 78.6993 121.363C78.6298 121.432 78.5746 121.515 78.537 121.606C78.4993 121.697 78.48 121.794 78.48 121.892C78.48 122.091 78.5588 122.282 78.6991 122.423C78.8394 122.564 79.0299 122.644 79.2288 122.645H112.194C112.388 122.645 112.574 122.57 112.714 122.436C112.853 122.302 112.935 122.118 112.943 121.925C112.947 121.824 112.931 121.723 112.895 121.628C112.86 121.534 112.805 121.447 112.735 121.374C112.665 121.301 112.581 121.243 112.488 121.204C112.395 121.164 112.295 121.144 112.194 121.144Z" fill="white"/>
<path d="M99.8712 85.4028H115.222V116.395C115.222 117.656 114.721 118.864 113.83 119.755C112.939 120.647 111.73 121.147 110.47 121.147H99.8712V85.4028Z" fill="#2E353A"/>
<path d="M83.0016 142.286H74.124C73.6309 142.286 73.2312 142.686 73.2312 143.179V143.683C73.2312 144.176 73.6309 144.576 74.124 144.576H83.0016C83.4947 144.576 83.8944 144.176 83.8944 143.683V143.179C83.8944 142.686 83.4947 142.286 83.0016 142.286Z" fill="#2E353A"/>
<path opacity="0.2" d="M83.0016 142.286H74.124C73.6309 142.286 73.2312 142.686 73.2312 143.179V143.683C73.2312 144.176 73.6309 144.576 74.124 144.576H83.0016C83.4947 144.576 83.8944 144.176 83.8944 143.683V143.179C83.8944 142.686 83.4947 142.286 83.0016 142.286Z" fill="white"/>
<path d="M112.126 132.318L98.19 127.361L112.126 122.4C112.192 122.376 112.254 122.34 112.307 122.292C112.36 122.245 112.402 122.188 112.433 122.124C112.464 122.06 112.481 121.99 112.485 121.919C112.489 121.848 112.479 121.778 112.455 121.711C112.431 121.644 112.395 121.582 112.347 121.529C112.3 121.477 112.243 121.434 112.179 121.403C112.114 121.373 112.045 121.355 111.974 121.351C111.903 121.347 111.832 121.358 111.766 121.381L96.5844 126.781L81.3996 121.381C81.3327 121.358 81.2618 121.347 81.1909 121.351C81.1201 121.355 81.0507 121.373 80.9867 121.403C80.9226 121.434 80.8653 121.477 80.8178 121.529C80.7704 121.582 80.7338 121.644 80.7102 121.711C80.6866 121.778 80.6763 121.848 80.6801 121.919C80.6838 121.99 80.7015 122.06 80.7321 122.124C80.7627 122.188 80.8056 122.245 80.8584 122.292C80.9111 122.34 80.9727 122.376 81.0396 122.4L94.9716 127.357L81.0396 132.314C80.9726 132.338 80.911 132.375 80.8583 132.423C80.8055 132.47 80.7627 132.528 80.7323 132.592C80.7019 132.656 80.6844 132.726 80.6809 132.797C80.6774 132.868 80.688 132.939 80.712 133.006C80.7482 133.111 80.8167 133.203 80.9078 133.267C80.9988 133.332 81.1079 133.366 81.2196 133.366C81.2808 133.367 81.3418 133.357 81.3996 133.337L96.5844 127.937L111.766 133.337C111.832 133.36 111.903 133.371 111.974 133.367C112.045 133.363 112.114 133.345 112.179 133.315C112.243 133.284 112.3 133.241 112.347 133.189C112.395 133.136 112.431 133.074 112.455 133.007C112.479 132.941 112.489 132.87 112.485 132.799C112.481 132.728 112.464 132.659 112.433 132.594C112.402 132.53 112.36 132.473 112.307 132.426C112.254 132.378 112.192 132.342 112.126 132.318Z" fill="#2E353A"/>
<path opacity="0.3" d="M112.126 132.318L98.19 127.361L112.126 122.4C112.192 122.376 112.254 122.34 112.307 122.292C112.36 122.245 112.402 122.188 112.433 122.124C112.464 122.06 112.481 121.99 112.485 121.919C112.489 121.848 112.479 121.778 112.455 121.711C112.431 121.644 112.395 121.582 112.347 121.529C112.3 121.477 112.243 121.434 112.179 121.403C112.114 121.373 112.045 121.355 111.974 121.351C111.903 121.347 111.832 121.358 111.766 121.381L96.5844 126.781L81.3996 121.381C81.3327 121.358 81.2618 121.347 81.1909 121.351C81.1201 121.355 81.0507 121.373 80.9867 121.403C80.9226 121.434 80.8653 121.477 80.8178 121.529C80.7704 121.582 80.7338 121.644 80.7102 121.711C80.6866 121.778 80.6763 121.848 80.6801 121.919C80.6838 121.99 80.7015 122.06 80.7321 122.124C80.7627 122.188 80.8056 122.245 80.8584 122.292C80.9111 122.34 80.9727 122.376 81.0396 122.4L94.9716 127.357L81.0396 132.314C80.9726 132.338 80.911 132.375 80.8583 132.423C80.8055 132.47 80.7627 132.528 80.7323 132.592C80.7019 132.656 80.6844 132.726 80.6809 132.797C80.6774 132.868 80.688 132.939 80.712 133.006C80.7482 133.111 80.8167 133.203 80.9078 133.267C80.9988 133.332 81.1079 133.366 81.2196 133.366C81.2808 133.367 81.3418 133.357 81.3996 133.337L96.5844 127.937L111.766 133.337C111.832 133.36 111.903 133.371 111.974 133.367C112.045 133.363 112.114 133.345 112.179 133.315C112.243 133.284 112.3 133.241 112.347 133.189C112.395 133.136 112.431 133.074 112.455 133.007C112.479 132.941 112.489 132.87 112.485 132.799C112.481 132.728 112.464 132.659 112.433 132.594C112.402 132.53 112.36 132.473 112.307 132.426C112.254 132.378 112.192 132.342 112.126 132.318Z" fill="white"/>
<path d="M100.098 88.1388C99.9548 88.1388 99.8174 88.0819 99.7162 87.9807C99.6149 87.8794 99.558 87.742 99.558 87.5988V83.4624C99.558 82.6701 99.8633 81.9082 100.41 81.3351C100.957 80.7619 101.704 80.4214 102.496 80.3844L105.98 80.2152C106.124 80.2085 106.264 80.259 106.37 80.3556C106.476 80.4521 106.539 80.5868 106.546 80.73C106.552 80.8732 106.502 81.0132 106.405 81.1192C106.309 81.2252 106.174 81.2885 106.031 81.2952L102.546 81.4644C102.032 81.4885 101.546 81.71 101.191 82.0828C100.835 82.4556 100.637 82.951 100.638 83.466V87.6024C100.637 87.745 100.58 87.8814 100.479 87.9819C100.377 88.0824 100.241 88.1388 100.098 88.1388Z" fill="#263238"/>
<path d="M82.4363 140.861L85.8959 139.777L85.4495 136.364L85.0355 133.232L80.7839 134.071L81.6551 137.668L82.4363 140.861Z" fill="#EBB376"/>
<path opacity="0.2" d="M81.6803 137.74L85.4675 136.426L85.0427 133.265L80.7911 134.086L81.6803 137.74Z" fill="black"/>
<path d="M86.1912 138.985C86.1912 138.715 81.9648 139.075 81.9648 139.075C81.9648 139.075 79.4448 141.235 76.9248 141.786C74.4048 142.337 75.8736 143.471 78.6888 143.37L85.6548 143.122C87.6708 143.05 86.3748 141.761 86.1912 138.985Z" fill="#2E353A"/>
<path d="M75.8628 110.484C78.3828 106.164 91.764 105.35 100.627 104.742L103.651 112.55C103.651 112.55 90.4212 111.83 86.6016 116.129C83.5668 119.556 85.6332 134.95 85.6332 134.95L79.9416 135.36C79.9416 135.36 71.4096 118.145 75.8628 110.484Z" fill="#2E353A"/>
<path opacity="0.2" d="M75.8628 110.484C78.3828 106.164 91.764 105.35 100.627 104.742L103.651 112.55C103.651 112.55 90.4212 111.83 86.6016 116.129C83.5668 119.556 85.6332 134.95 85.6332 134.95L79.9416 135.36C79.9416 135.36 71.4096 118.145 75.8628 110.484Z" fill="black"/>
<path d="M89.6364 140.861L93.096 139.777L92.6496 136.364L92.232 133.232L87.984 134.071L88.8552 137.668L89.6364 140.861Z" fill="#EBB376"/>
<path opacity="0.2" d="M88.8804 137.74L92.6712 136.426L92.2428 133.265L87.9912 134.086L88.8804 137.74Z" fill="black"/>
<path d="M101.203 82.5192C103.003 81.6552 107.791 82.404 108.947 83.502C110.102 84.6 105.386 87.822 102.856 87.3612C100.325 86.9004 99.7955 83.1924 101.203 82.5192Z" fill="#1222BF"/>
<path opacity="0.2" d="M101.203 82.5192C103.003 81.6552 107.791 82.404 108.947 83.502C110.102 84.6 105.386 87.822 102.856 87.3612C100.325 86.9004 99.7955 83.1924 101.203 82.5192Z" fill="black"/>
<path d="M92.106 104.666C92.106 104.666 95.2416 98.604 95.4036 98.1324C96.2388 95.6916 111.402 97.8912 111.402 97.8912C111.402 97.8912 115.582 110.596 110.376 114.242C105.851 117.414 94.896 115.985 93.0348 116.557C91.314 117.086 90.4716 118.933 93.0888 136.145L87.4476 136.357C87.4476 136.357 79.1892 115.837 79.2792 112.136C79.3692 108.436 78.7212 106.751 92.106 104.666Z" fill="#2E353A"/>
<path d="M92.2932 103.774C92.2932 103.774 96.7104 88.2 98.28 84.1752C98.8596 82.6848 112.759 84.1284 112.759 84.1284V102.978C112.759 102.978 102.362 106.657 99.324 105.138C98.3592 104.652 97.3296 101.315 97.3296 101.315C97.3296 101.315 95.3856 104.936 94.1832 104.965C93.4956 104.976 92.2932 103.774 92.2932 103.774Z" fill="#1222BF"/>
<path opacity="0.6" d="M112.756 84.1284V102.978C112.756 102.978 102.359 106.657 99.3204 105.138C98.3556 104.652 97.326 101.315 97.326 101.315C97.326 101.315 95.3856 104.936 94.1796 104.965C93.4956 104.983 92.2932 103.781 92.2932 103.781C92.2932 103.781 92.3508 103.572 92.4624 103.194C93.06 101.095 95.1588 93.78 96.7824 88.6212C97.3764 86.7348 97.9056 85.1364 98.2764 84.1824C98.856 82.6848 112.756 84.1284 112.756 84.1284Z" fill="white"/>
<path opacity="0.2" d="M100.822 91.674C101.032 91.674 101.203 91.5032 101.203 91.2924C101.203 91.0817 101.032 90.9108 100.822 90.9108C100.611 90.9108 100.44 91.0817 100.44 91.2924C100.44 91.5032 100.611 91.674 100.822 91.674Z" fill="black"/>
<path opacity="0.2" d="M99.5111 95.4684C99.7219 95.4684 99.8927 95.2976 99.8927 95.0868C99.8927 94.8761 99.7219 94.7052 99.5111 94.7052C99.3004 94.7052 99.1295 94.8761 99.1295 95.0868C99.1295 95.2976 99.3004 95.4684 99.5111 95.4684Z" fill="black"/>
<path opacity="0.2" d="M98.0387 99.6948C98.2495 99.6948 98.4203 99.524 98.4203 99.3132C98.4203 99.1025 98.2495 98.9316 98.0387 98.9316C97.828 98.9316 97.6571 99.1025 97.6571 99.3132C97.6571 99.524 97.828 99.6948 98.0387 99.6948Z" fill="black"/>
<path opacity="0.2" d="M112.756 92.178V102.726C101.693 106.47 98.6219 103.23 98.6219 103.23C98.6219 103.23 104.684 99.7884 107.201 98.5068C109.717 97.2252 110.203 90.5292 110.203 90.5292C111.082 91.0339 111.934 91.5843 112.756 92.178Z" fill="black"/>
<path opacity="0.2" d="M95.2848 97.9848C95.3244 100.184 95.6736 100.901 95.7744 101.876C95.8608 102.762 95.6016 104.785 92.4624 103.187C93.06 101.088 95.1588 93.7728 96.7824 88.614C96.9172 88.6714 97.0395 88.7545 97.1424 88.8588C97.1424 88.8588 95.238 95.2668 95.2848 97.9848Z" fill="black"/>
<path d="M108.623 84.1932C108.623 84.1932 106.913 85.6152 105.311 85.6872C103.709 85.7592 102.186 88.11 102.186 88.11C102.186 88.11 101.79 85.7592 101.894 85.5468C101.861 85.2597 101.781 84.9799 101.657 84.7188C101.47 84.15 101.326 83.5092 101.894 83.5092C102.856 83.5092 102.186 81.5616 102.186 81.5616L107.618 80.0676C107.465 80.5759 107.363 81.098 107.312 81.6264C107.215 82.7064 107.377 83.9916 108.623 84.1932Z" fill="#EBB376"/>
<path opacity="0.2" d="M107.618 80.064C107.465 80.5723 107.363 81.0944 107.312 81.6228C106.232 82.908 104.332 84.5496 101.657 84.7152C101.47 84.1464 101.326 83.5056 101.894 83.5056C102.856 83.5056 102.186 81.558 102.186 81.558L107.618 80.064Z" fill="black"/>
<path d="M108 84.5136C108 84.5136 105.174 89.496 104.573 93.6288C105.546 93.531 106.526 93.531 107.5 93.6288C108.605 93.8052 107.809 88.1424 110.419 84.0888L108 84.5136Z" fill="#1222BF"/>
<path opacity="0.2" d="M108 84.5136C108 84.5136 105.174 89.496 104.573 93.6288C105.546 93.531 106.526 93.531 107.5 93.6288C108.605 93.8052 107.809 88.1424 110.419 84.0888L108 84.5136Z" fill="black"/>
<path d="M101.203 84.7296C101.203 86.3532 103.147 87.6816 106.063 85.2624C108.979 82.8432 109.757 82.2816 110.477 83.1312C110.477 83.1312 111.452 83.2032 111.607 84.0168C110.745 84.3561 109.952 84.8503 109.267 85.4748C108.36 86.4 104.422 89.8164 101.88 89.532C99.3384 89.2476 98.7192 85.572 100.166 84.0888C100.166 84.0888 100.22 81.7812 102.42 82.6956C102.434 82.6956 101.203 82.8756 101.203 84.7296Z" fill="#1222BF"/>
<path d="M104.558 93.6288C104.558 93.6288 104.198 95.184 104.281 95.2524C104.364 95.3208 104.501 93.7116 104.782 93.8304C105.062 93.9492 104.548 95.3064 104.782 95.2704C105.016 95.2344 104.764 93.8916 105.055 93.8664C105.347 93.8412 105.016 95.2524 105.232 95.2704C105.448 95.2884 105.232 93.8664 105.512 93.8664C105.793 93.8664 105.422 95.3064 105.656 95.2704C105.89 95.2344 105.707 93.798 105.966 93.798C106.225 93.798 105.826 95.2056 106.085 95.274C106.344 95.3424 106.063 93.8664 106.394 93.8664C106.726 93.8664 106.322 95.3064 106.488 95.274C106.654 95.2416 106.394 93.798 106.726 93.8664C107.057 93.9348 106.704 95.328 106.891 95.274C107.078 95.22 106.726 93.8664 107.057 93.9384C107.388 94.0104 107.273 95.3784 107.366 95.2776C107.46 95.1768 107.42 94.0572 107.618 94.032C107.816 94.0068 107.618 95.0292 107.914 95.112C108.209 95.1948 107.618 93.6432 107.618 93.6432C107.618 93.6432 105.743 93.24 104.558 93.6288Z" fill="#1222BF"/>
<path d="M105.426 72.5184C102.395 72.0396 101.164 73.5084 100.451 76.5972C100.429 76.6764 100.397 76.8348 100.397 76.8348C98.5103 78.5052 99.6155 83.1312 103.907 83.1312C109.242 83.1312 110.462 73.3104 105.426 72.5184Z" fill="#EBB376"/>
<path d="M102.434 76.7376C102.121 77.1517 101.758 77.5265 101.354 77.8536C101.423 77.9927 101.529 78.1101 101.661 78.1926C101.793 78.2752 101.944 78.3199 102.1 78.3216L102.434 76.7376Z" fill="#D58745"/>
<path d="M104.332 76.7808C104.285 77.0292 104.382 77.256 104.548 77.2848C104.713 77.3136 104.882 77.1372 104.929 76.8888C104.976 76.6404 104.875 76.4172 104.71 76.3848C104.544 76.3524 104.375 76.5324 104.332 76.7808Z" fill="#263238"/>
<path d="M104.778 76.41L104.278 76.1004C104.278 76.1004 104.465 76.6044 104.778 76.41Z" fill="#263238"/>
<path d="M101.257 76.1688C101.21 76.4172 101.308 76.644 101.473 76.6728C101.639 76.7016 101.808 76.5252 101.855 76.2768C101.902 76.0284 101.801 75.8052 101.635 75.7728C101.47 75.7404 101.3 75.9204 101.257 76.1688Z" fill="#263238"/>
<path d="M101.704 75.798L101.203 75.4884C101.203 75.4884 101.387 75.9924 101.704 75.798Z" fill="#263238"/>
<path d="M105.934 75.4884C105.911 75.4895 105.888 75.484 105.868 75.4725C105.848 75.461 105.832 75.444 105.822 75.4236C105.69 75.2445 105.52 75.0974 105.324 74.9933C105.127 74.8892 104.91 74.8308 104.688 74.8224C104.654 74.8224 104.621 74.8087 104.596 74.7844C104.572 74.7601 104.558 74.7272 104.558 74.6928C104.558 74.6584 104.572 74.6255 104.596 74.6012C104.621 74.5769 104.654 74.5632 104.688 74.5632C104.953 74.5699 105.214 74.6384 105.448 74.7634C105.683 74.8884 105.884 75.0664 106.038 75.2832C106.055 75.3128 106.06 75.348 106.051 75.381C106.042 75.4141 106.021 75.4423 105.991 75.4596C105.974 75.4733 105.955 75.4832 105.934 75.4884Z" fill="#263238"/>
<path d="M101.261 74.4048C101.236 74.4055 101.211 74.3986 101.19 74.3852C101.169 74.3717 101.152 74.3522 101.142 74.3292C101.128 74.2976 101.128 74.262 101.14 74.2298C101.152 74.1976 101.176 74.1713 101.207 74.1564C101.415 74.045 101.646 73.9822 101.883 73.9729C102.119 73.9635 102.354 74.0078 102.571 74.1024C102.602 74.1191 102.624 74.1473 102.634 74.1807C102.644 74.2141 102.64 74.2501 102.623 74.2806C102.607 74.3112 102.578 74.3338 102.545 74.3436C102.512 74.3534 102.476 74.3495 102.445 74.3328C102.265 74.2563 102.069 74.2221 101.873 74.2327C101.677 74.2433 101.486 74.2984 101.315 74.394L101.261 74.4048Z" fill="#263238"/>
<path d="M113.357 75.7692C112.806 75.2868 111.758 75.5604 111.002 75.8628C111.002 75.8304 111.002 75.8016 111.002 75.7692C111.022 75.2136 110.906 74.6615 110.666 74.16C110.426 73.6586 110.068 73.2226 109.624 72.8892C109.624 71.6796 108.688 71.1468 107.658 70.8264C106.628 70.506 105.732 71.1108 104.522 70.542C104.325 70.4281 104.107 70.3552 103.882 70.3277C103.656 70.3002 103.427 70.3185 103.208 70.3818C102.99 70.445 102.786 70.5517 102.61 70.6955C102.433 70.8394 102.288 71.0174 102.182 71.2188C101.869 71.7876 102.006 72.612 100.998 72.6408C99.9899 72.6696 100.235 73.6128 100.429 74.1168C100.624 74.6208 100.57 74.4768 100.249 75.0348C100.03 75.4164 100.357 75.6576 100.591 75.7548C100.552 76.0212 100.544 76.1868 100.544 76.1868C100.573 76.0428 100.606 75.906 100.642 75.7764C102.082 70.2936 107.424 73.5372 107.424 73.5372C106.906 75.4272 107.928 78.1416 107.928 78.1416C108.378 79.3476 107.716 80.5644 107.298 81.1656C107.207 81.3002 107.107 81.4289 106.999 81.5508C107.185 81.439 107.36 81.31 107.521 81.1656C109.681 81.09 109.58 79.9164 109.577 79.5276C109.621 79.3458 109.704 79.1754 109.818 79.0272C110.178 79.7256 110.938 80.6472 112.288 80.3484C114.39 79.8948 114.282 76.5828 113.357 75.7692Z" fill="#263238"/>
<path d="M102.881 79.9884C102.622 79.9861 102.366 79.9271 102.132 79.8156C102.101 79.8007 102.077 79.7745 102.065 79.7422C102.053 79.71 102.054 79.6744 102.067 79.6428C102.074 79.6268 102.084 79.6123 102.096 79.6003C102.108 79.5882 102.123 79.5788 102.139 79.5728C102.156 79.5667 102.173 79.564 102.19 79.5649C102.208 79.5658 102.224 79.5703 102.24 79.578C102.534 79.7288 102.872 79.7674 103.192 79.6865C103.512 79.6057 103.792 79.411 103.979 79.1388C103.988 79.1246 104 79.1124 104.014 79.1029C104.029 79.0934 104.045 79.0868 104.061 79.0834C104.078 79.0801 104.095 79.0801 104.112 79.0834C104.129 79.0867 104.145 79.0933 104.159 79.1028C104.173 79.1122 104.185 79.1244 104.195 79.1386C104.204 79.1527 104.211 79.1686 104.214 79.1853C104.217 79.2021 104.217 79.2193 104.214 79.236C104.211 79.2527 104.204 79.2686 104.195 79.2828C104.045 79.4934 103.848 79.6666 103.62 79.7889C103.392 79.9113 103.139 79.9795 102.881 79.9884Z" fill="#263238"/>
<path d="M104.843 78.048C104.753 78.0522 104.663 78.0384 104.578 78.0075C104.493 77.9766 104.416 77.9292 104.35 77.868C104.261 77.7608 104.196 77.6362 104.159 77.5022C104.121 77.3682 104.113 77.2279 104.134 77.0904C104.137 77.0669 104.149 77.0456 104.168 77.0309C104.187 77.0161 104.211 77.0091 104.234 77.0112C104.259 77.0148 104.28 77.0277 104.295 77.0472C104.31 77.0668 104.317 77.0913 104.314 77.1156C104.282 77.3376 104.341 77.5629 104.476 77.742C104.552 77.8029 104.642 77.8445 104.738 77.8633C104.834 77.8821 104.933 77.8776 105.026 77.85C105.038 77.848 105.05 77.8483 105.062 77.851C105.074 77.8537 105.085 77.8588 105.094 77.8658C105.104 77.8728 105.112 77.8818 105.119 77.892C105.125 77.9023 105.129 77.9137 105.131 77.9256C105.135 77.949 105.13 77.9731 105.116 77.9927C105.103 78.0122 105.082 78.0256 105.059 78.03C104.987 78.0411 104.915 78.0471 104.843 78.048Z" fill="#D58745"/>
<path d="M101.225 77.3064C101.059 77.3003 100.897 77.2586 100.75 77.184C100.729 77.1725 100.713 77.1534 100.705 77.1307C100.698 77.1079 100.7 77.0832 100.71 77.0616C100.721 77.0409 100.739 77.0251 100.761 77.0178C100.783 77.0104 100.808 77.0119 100.829 77.022C100.91 77.0811 101.005 77.1189 101.105 77.1322C101.205 77.1455 101.307 77.1338 101.401 77.0981C101.495 77.0624 101.579 77.0039 101.645 76.9278C101.711 76.8516 101.757 76.7603 101.779 76.662C101.787 76.6412 101.803 76.6242 101.822 76.6141C101.842 76.6041 101.865 76.6017 101.887 76.6076C101.908 76.6134 101.927 76.6269 101.939 76.6456C101.951 76.6643 101.955 76.6868 101.952 76.7088C101.919 76.8245 101.864 76.9325 101.789 77.0264C101.715 77.1204 101.622 77.1985 101.516 77.256C101.424 77.2928 101.324 77.31 101.225 77.3064Z" fill="#D58745"/>
<path d="M104.778 79.9488C104.758 79.9486 104.739 79.9418 104.723 79.9294C104.707 79.917 104.696 79.8998 104.692 79.8804C104.454 78.8364 103.298 78.4116 103.288 78.408C103.265 78.3999 103.247 78.3832 103.237 78.3616C103.227 78.34 103.226 78.3152 103.234 78.2928C103.237 78.2814 103.243 78.2709 103.251 78.2619C103.259 78.2529 103.269 78.2456 103.279 78.2405C103.29 78.2354 103.302 78.2327 103.314 78.2324C103.326 78.2321 103.338 78.2343 103.349 78.2388C103.399 78.2388 104.609 78.7032 104.864 79.8408C104.87 79.8637 104.866 79.8878 104.854 79.908C104.842 79.9282 104.822 79.9429 104.8 79.9488H104.778Z" fill="#D58745"/>
<path opacity="0.4" d="M113.357 75.7692C112.806 75.2868 111.758 75.5604 111.002 75.8628C111.002 75.8304 111.002 75.8016 111.002 75.7692C111.022 75.2136 110.906 74.6615 110.666 74.16C110.426 73.6586 110.068 73.2226 109.624 72.8892C109.624 71.6796 108.688 71.1468 107.658 70.8264C106.628 70.506 105.732 71.1108 104.522 70.542C104.325 70.4281 104.107 70.3552 103.882 70.3277C103.656 70.3002 103.427 70.3185 103.208 70.3818C102.99 70.445 102.786 70.5517 102.61 70.6955C102.433 70.8394 102.288 71.0174 102.182 71.2188C101.869 71.7876 102.006 72.612 100.998 72.6408C99.9899 72.6696 100.235 73.6128 100.429 74.1168C100.624 74.6208 100.57 74.4768 100.249 75.0348C100.03 75.4164 100.357 75.6576 100.591 75.7548C100.552 76.0212 100.544 76.1868 100.544 76.1868C100.573 76.0428 100.606 75.906 100.642 75.7764C102.082 70.2936 107.424 73.5372 107.424 73.5372C106.906 75.4272 107.928 78.1416 107.928 78.1416C108.378 79.3476 107.716 80.5644 107.298 81.1656C107.207 81.3002 107.107 81.4289 106.999 81.5508C107.185 81.439 107.36 81.31 107.521 81.1656C109.681 81.09 109.58 79.9164 109.577 79.5276C109.621 79.3458 109.704 79.1754 109.818 79.0272C110.178 79.7256 110.938 80.6472 112.288 80.3484C114.39 79.8948 114.282 76.5828 113.357 75.7692Z" fill="white"/>
<path d="M107.338 78.7104C107.422 78.3641 107.64 78.0653 107.945 77.8798C108.249 77.6942 108.615 77.6369 108.961 77.7204C109.883 77.9724 110.041 79.9704 107.618 80.064C107.28 80.0784 107.136 79.722 107.338 78.7104Z" fill="#EBB376"/>
<g opacity="0.2">
<path d="M105.934 75.4884C105.911 75.4895 105.888 75.484 105.868 75.4725C105.848 75.461 105.832 75.444 105.822 75.4236C105.69 75.2445 105.52 75.0974 105.324 74.9933C105.127 74.8892 104.91 74.8308 104.688 74.8224C104.654 74.8224 104.621 74.8087 104.596 74.7844C104.572 74.7601 104.558 74.7272 104.558 74.6928C104.558 74.6584 104.572 74.6255 104.596 74.6012C104.621 74.5769 104.654 74.5632 104.688 74.5632C104.953 74.5699 105.214 74.6384 105.448 74.7634C105.683 74.8884 105.884 75.0664 106.038 75.2832C106.055 75.3128 106.06 75.348 106.051 75.381C106.042 75.4141 106.021 75.4423 105.991 75.4596C105.974 75.4733 105.955 75.4832 105.934 75.4884Z" fill="white"/>
</g>
<g opacity="0.2">
<path d="M101.261 74.4048C101.236 74.4055 101.211 74.3986 101.19 74.3852C101.169 74.3717 101.152 74.3522 101.142 74.3292C101.128 74.2976 101.128 74.262 101.14 74.2298C101.152 74.1976 101.176 74.1713 101.207 74.1564C101.415 74.045 101.646 73.9822 101.883 73.9729C102.119 73.9635 102.354 74.0078 102.571 74.1024C102.602 74.1191 102.624 74.1473 102.634 74.1807C102.644 74.2141 102.64 74.2501 102.623 74.2806C102.607 74.3112 102.578 74.3338 102.545 74.3436C102.512 74.3534 102.476 74.3495 102.445 74.3328C102.265 74.2563 102.069 74.2221 101.873 74.2327C101.677 74.2433 101.486 74.2984 101.315 74.394L101.261 74.4048Z" fill="white"/>
</g>
<path d="M72.882 122.929C72.882 122.929 72.9504 112.036 75.6576 109.249C78.3648 106.463 88.416 104.76 88.416 104.76C88.416 104.76 97.776 103.784 101.182 105.498C104.587 107.212 104.63 116.1 104.63 116.1C104.63 116.1 95.526 115.074 94.32 119.16C93.5619 121.775 93.0059 124.445 92.6568 127.145L72.882 122.929Z" fill="#1222BF"/>
<path opacity="0.2" d="M86.1912 138.985C86.1912 138.715 81.9648 139.075 81.9648 139.075C81.9648 139.075 79.4448 141.235 76.9248 141.786C74.4048 142.337 75.8736 143.471 78.6888 143.37L85.6548 143.122C87.6708 143.05 86.3748 141.761 86.1912 138.985Z" fill="black"/>
<path d="M93.3912 138.985C93.3732 138.715 89.1647 139.075 89.1647 139.075C89.1647 139.075 86.6447 141.235 84.1247 141.786C81.6047 142.337 83.0736 143.471 85.8888 143.37L92.8547 143.122C94.8707 143.05 93.5748 141.761 93.3912 138.985Z" fill="#2E353A"/>
<path d="M103.817 101.16L100.822 102.715C100.262 102.599 99.6822 102.615 99.1296 102.762C98.3196 103.01 96.768 104.389 96.8472 104.998C96.9264 105.606 99.2772 105.192 99.6948 105.3C100.112 105.408 100.973 104.868 101.203 104.76C101.434 104.652 101.491 103.936 101.491 103.936L103.817 103.136V101.16Z" fill="#EBB376"/>
<path d="M112.756 84.1284C114.916 84.7152 116.147 95.9904 113.987 99.3132C111.827 102.636 102.679 103.918 102.679 103.918L101.779 101.635C101.779 101.635 108.828 98.712 109.58 97.2864C110.333 95.8608 110.689 93.0168 110.048 89.55C109.408 86.0832 112.756 84.1284 112.756 84.1284Z" fill="#1222BF"/>
<path opacity="0.6" d="M112.756 84.1284C114.916 84.7152 116.147 95.9904 113.987 99.3132C111.827 102.636 102.679 103.918 102.679 103.918L101.779 101.635C101.779 101.635 108.828 98.712 109.58 97.2864C110.333 95.8608 110.689 93.0168 110.048 89.55C109.408 86.0832 112.756 84.1284 112.756 84.1284Z" fill="white"/>
<path d="M94.3848 100.465L95.04 102.744C95.3766 103.072 95.6328 103.474 95.7888 103.918C95.94 104.45 95.7132 104.998 95.4288 105.088C94.7088 105.318 93.1608 105.656 93.0528 105.268C92.9448 104.879 92.7324 103.198 93.3732 103.273L92.8728 101.426L94.3848 100.465Z" fill="#EBB376"/>
<path d="M98.28 84.1752C95.8104 84.834 90.7668 92.952 91.5444 97.4376C92.322 101.923 93.1068 102.744 93.1068 102.744L95.1336 101.664C95.1336 101.664 94.0283 97.0848 94.7087 95.4576C98.0387 87.48 98.28 84.1752 98.28 84.1752Z" fill="#1222BF"/>
<path opacity="0.6" d="M98.28 84.1752C95.8104 84.834 90.7668 92.952 91.5444 97.4376C92.322 101.923 93.1068 102.744 93.1068 102.744L95.1336 101.664C95.1336 101.664 94.0283 97.0848 94.7087 95.4576C98.0387 87.48 98.28 84.1752 98.28 84.1752Z" fill="white"/>
<path d="M115.218 88.1388C115.075 88.1388 114.937 88.0819 114.836 87.9807C114.735 87.8794 114.678 87.742 114.678 87.5988V83.4624C114.678 82.6701 114.983 81.9082 115.53 81.3351C116.077 80.7619 116.824 80.4214 117.616 80.3844L121.1 80.2152C121.244 80.2085 121.384 80.259 121.49 80.3556C121.596 80.4521 121.659 80.5868 121.666 80.73C121.672 80.8732 121.622 81.0132 121.525 81.1192C121.429 81.2252 121.294 81.2885 121.151 81.2952L117.666 81.4644C117.152 81.4885 116.666 81.71 116.311 82.0828C115.955 82.4556 115.757 82.951 115.758 83.466V87.6024C115.757 87.745 115.7 87.8814 115.599 87.9819C115.497 88.0824 115.361 88.1388 115.218 88.1388Z" fill="#263238"/>
<path d="M114.347 85.6296V107.906H97.4484C96.7313 107.906 96.0436 108.191 95.5366 108.698C95.0296 109.205 94.7448 109.893 94.7448 110.61V122.645H112.903C113.771 122.644 114.604 122.298 115.217 121.684C115.831 121.07 116.176 120.237 116.176 119.369V85.6296C116.176 85.3871 116.079 85.1545 115.908 84.983C115.736 84.8115 115.504 84.7152 115.261 84.7152C115.019 84.7152 114.786 84.8115 114.615 84.983C114.443 85.1545 114.347 85.3871 114.347 85.6296Z" fill="#2E353A"/>
<path opacity="0.4" d="M114.347 85.6296V107.906H97.4484C96.7313 107.906 96.0436 108.191 95.5366 108.698C95.0296 109.205 94.7448 109.893 94.7448 110.61V122.645H112.903C113.771 122.644 114.604 122.298 115.217 121.684C115.831 121.07 116.176 120.237 116.176 119.369V85.6296C116.176 85.3871 116.079 85.1545 115.908 84.983C115.736 84.8115 115.504 84.7152 115.261 84.7152C115.019 84.7152 114.786 84.8115 114.615 84.983C114.443 85.1545 114.347 85.3871 114.347 85.6296Z" fill="white"/>
<path d="M111.96 115.949H97.9667C97.1784 115.95 96.4226 116.263 95.8651 116.821C95.3077 117.378 94.9941 118.134 94.9931 118.922V142.171C94.9931 142.524 94.8528 142.863 94.603 143.113C94.3532 143.363 94.0144 143.503 93.6611 143.503H86.7599C86.569 143.503 86.3858 143.579 86.2508 143.714C86.1158 143.849 86.0399 144.032 86.0399 144.223C86.0399 144.414 86.1158 144.597 86.2508 144.732C86.3858 144.867 86.569 144.943 86.7599 144.943H93.6467C94.3813 144.941 95.0853 144.649 95.6047 144.129C96.1242 143.61 96.4168 142.906 96.4187 142.171V133.56H111.96C112.151 133.56 112.334 133.484 112.469 133.349C112.604 133.214 112.68 133.031 112.68 132.84V116.669C112.68 116.478 112.604 116.295 112.469 116.16C112.334 116.025 112.151 115.949 111.96 115.949ZM111.24 132.12H96.4331V118.922C96.4331 118.516 96.5947 118.126 96.8823 117.838C97.1699 117.55 97.56 117.389 97.9667 117.389H111.24V132.12Z" fill="#2E353A"/>
<path opacity="0.6" d="M111.96 115.949H97.9667C97.1784 115.95 96.4226 116.263 95.8651 116.821C95.3077 117.378 94.9941 118.134 94.9931 118.922V142.171C94.9931 142.524 94.8528 142.863 94.603 143.113C94.3532 143.363 94.0144 143.503 93.6611 143.503H86.7599C86.569 143.503 86.3858 143.579 86.2508 143.714C86.1158 143.849 86.0399 144.032 86.0399 144.223C86.0399 144.414 86.1158 144.597 86.2508 144.732C86.3858 144.867 86.569 144.943 86.7599 144.943H93.6467C94.3813 144.941 95.0853 144.649 95.6047 144.129C96.1242 143.61 96.4168 142.906 96.4187 142.171V133.56H111.96C112.151 133.56 112.334 133.484 112.469 133.349C112.604 133.214 112.68 133.031 112.68 132.84V116.669C112.68 116.478 112.604 116.295 112.469 116.16C112.334 116.025 112.151 115.949 111.96 115.949ZM111.24 132.12H96.4331V118.922C96.4331 118.516 96.5947 118.126 96.8823 117.838C97.1699 117.55 97.56 117.389 97.9667 117.389H111.24V132.12Z" fill="white"/>
<path d="M93.0815 142.286H81.6839C81.1909 142.286 80.7911 142.686 80.7911 143.179V143.683C80.7911 144.176 81.1909 144.576 81.6839 144.576H93.0815C93.5746 144.576 93.9743 144.176 93.9743 143.683V143.179C93.9743 142.686 93.5746 142.286 93.0815 142.286Z" fill="#2E353A"/>
<path opacity="0.4" d="M93.0815 142.286H81.6839C81.1909 142.286 80.7911 142.686 80.7911 143.179V143.683C80.7911 144.176 81.1909 144.576 81.6839 144.576H93.0815C93.5746 144.576 93.9743 144.176 93.9743 143.683V143.179C93.9743 142.686 93.5746 142.286 93.0815 142.286Z" fill="white"/>
<path d="M111.96 149.929C104.263 149.929 98.0028 142.258 98.0028 132.826C98.0028 123.394 104.263 115.726 111.96 115.726C119.657 115.726 125.914 123.397 125.914 132.826C125.914 142.254 119.639 149.929 111.96 149.929ZM111.96 117.529C105.257 117.529 99.8028 124.394 99.8028 132.829C99.8028 141.264 105.257 148.133 111.96 148.133C118.663 148.133 124.099 141.264 124.099 132.84C124.099 124.416 118.649 117.526 111.96 117.526V117.529Z" fill="#2E353A"/>
<path d="M111.96 148.32C105.156 148.32 99.6228 141.376 99.6228 132.84C99.6228 124.304 105.156 117.36 111.96 117.36C118.764 117.36 124.294 124.304 124.294 132.84C124.294 141.376 118.746 148.32 111.96 148.32ZM111.96 119.52C106.348 119.52 101.783 125.496 101.783 132.84C101.783 140.184 106.348 146.16 111.96 146.16C117.572 146.16 122.134 140.184 122.134 132.84C122.134 125.496 117.554 119.52 111.96 119.52Z" fill="#1222BF"/>
<path d="M111.946 137.063C113.755 137.063 115.222 135.166 115.222 132.826C115.222 130.485 113.755 128.588 111.946 128.588C110.136 128.588 108.67 130.485 108.67 132.826C108.67 135.166 110.136 137.063 111.946 137.063Z" fill="#1222BF"/>
<path d="M112.306 118.426H111.586V147.229H112.306V118.426Z" fill="#1222BF"/>
<path d="M123.203 132.466H100.688V133.186H123.203V132.466Z" fill="#1222BF"/>
<path d="M104.268 122.423L103.7 122.867L119.62 143.235L120.187 142.792L104.268 122.423Z" fill="#1222BF"/>
<path d="M119.621 122.413L103.698 142.778L104.265 143.222L120.188 122.856L119.621 122.413Z" fill="#1222BF"/>
<path d="M115.982 119.45L107.222 145.985L107.906 146.21L116.666 119.676L115.982 119.45Z" fill="#1222BF"/>
<path d="M101.747 126.902L101.405 127.536L122.142 138.753L122.484 138.12L101.747 126.902Z" fill="#1222BF"/>
<path d="M108.051 119.38L107.365 119.598L115.827 146.289L116.513 146.072L108.051 119.38Z" fill="#1222BF"/>
<path d="M122.208 127.092L101.348 137.924L101.679 138.563L122.539 127.731L122.208 127.092Z" fill="#1222BF"/>
<path d="M66.5063 79.7076L69.7463 78.0912C69.7463 78.0912 70.5167 77.0472 70.7255 77.0112C70.9343 76.9752 74.8259 77.4864 74.8259 77.4864C74.8259 77.4864 74.4011 78.7212 74.0195 79.0992C73.6379 79.4772 71.1395 79.0056 71.1395 79.0056L67.9571 80.5716L66.5063 79.7076Z" fill="#B97964"/>
<path d="M63.7416 65.232C62.874 66.0708 62.0604 66.7152 63.3204 67.878C64.5804 69.0408 64.3428 70.9596 62.7336 71.8164C61.1244 72.6732 53.0604 75.6 50.076 72.2268C47.0916 68.8536 49.3128 66.546 50.796 65.916C52.2792 65.286 50.85 63.63 50.7132 62.4276C50.5764 61.2252 56.0844 56.3076 58.6548 55.9944C61.2252 55.6812 62.9748 57.8952 62.928 60.1416C62.8812 62.388 65.16 63.864 63.7416 65.232Z" fill="#263238"/>
<path d="M60.6168 71.3376C60.4404 71.3376 61.6068 79.0596 61.92 80.2152C62.2332 81.3708 68.688 78.264 68.688 78.264L69.732 79.8588C69.732 79.8588 64.08 84.6216 61.632 84.0888C59.184 83.556 57.3588 75.1176 57.3588 75.1176L60.6168 71.3376Z" fill="#1222BF"/>
<path opacity="0.7" d="M69.732 79.8588C69.732 79.8588 64.08 84.6216 61.632 84.0852C60.6528 83.8692 59.7708 82.3788 59.0652 80.6688C58.3747 78.9129 57.8164 77.1079 57.3948 75.2688C57.3732 75.1572 57.3588 75.0996 57.3588 75.0996L57.7188 74.6892L59.0328 73.1628L60.6168 71.3304C60.4944 71.6292 61.6212 79.0668 61.9272 80.1972C62.2332 81.3276 68.6952 78.246 68.6952 78.246L69.732 79.8588Z" fill="white"/>
<path opacity="0.2" d="M59.0652 80.6688C58.3747 78.9129 57.8164 77.1079 57.3948 75.2688C57.4956 75.0672 57.6 74.8728 57.7116 74.6892C58.0449 74.0989 58.4914 73.5802 59.0256 73.1628L59.076 73.1268C59.076 73.1268 60.48 77.1696 59.0652 80.6688Z" fill="black"/>
<path d="M44.1936 97.5312L54.0972 98.9316L55.8648 73.3824L45.9468 74.5632L44.1936 97.5312Z" fill="#1222BF"/>
<path opacity="0.4" d="M44.1936 97.5312L54.0972 98.9316L55.8648 73.3824L45.9468 74.5632L44.1936 97.5312Z" fill="white"/>
<path d="M49.0859 146.009H46.7063L47.4371 142.718L48.1103 139.698L51.0911 139.241L50.0327 142.823L49.0859 146.009Z" fill="#B97964"/>
<path opacity="0.2" d="M50.0075 142.895L47.4155 142.783L48.0995 139.73L51.0875 139.255L50.0075 142.895Z" fill="black"/>
<path d="M44.1576 146.009H41.778L42.5088 142.718L43.182 139.698L46.1628 139.241L45.1044 142.823L44.1576 146.009Z" fill="#B97964"/>
<path opacity="0.2" d="M45.0792 142.895L42.4872 142.783L43.1712 139.73L46.1592 139.255L45.0792 142.895Z" fill="black"/>
<path d="M39.852 83.1096C39.852 83.1096 39.7296 83.3652 39.5388 83.8296C38.6424 86.0436 36.1872 93.0384 37.1052 101.146C37.6488 105.941 42.948 114.57 43.7364 119.272C44.6544 124.747 42.2496 134.392 42.8688 141.473L46.6524 141.804L47.7936 141.084L51.0336 140.598C51.0336 140.598 59.4792 121.388 59.3136 114.746C59.1948 109.53 51.0336 90.8316 51.0336 90.8316L51.8112 83.916" fill="#263238"/>
<path opacity="0.2" d="M48.3912 141.008L47.7936 141.098L46.8252 141.71C47.4444 139.55 52.7796 120.874 52.8732 116.762C52.9812 112.392 46.7532 96.8904 46.7532 96.8904L48.348 94.0104L48.1068 98.3952C48.1068 98.3952 53.9892 110.448 54.4536 116.755C54.9108 122.81 48.8808 139.648 48.3912 141.008Z" fill="black"/>
<path d="M46.0368 145.904C46.0368 145.642 49.2768 145.847 49.2768 145.847C49.2768 145.847 51.264 147.866 53.19 148.32C55.116 148.774 54.0396 149.929 51.8868 149.929H46.548C45.018 149.929 45.972 148.626 46.0368 145.904Z" fill="#263238"/>
<path d="M49.626 146.264C49.6159 146.259 49.6073 146.252 49.6008 146.243V146.221C49.5987 146.212 49.5987 146.202 49.6008 146.192C49.599 146.182 49.599 146.171 49.6008 146.16C49.6008 146.12 49.8852 145.375 50.3208 145.192C50.3865 145.162 50.4576 145.147 50.5296 145.147C50.6015 145.147 50.6727 145.162 50.7384 145.192C50.886 145.264 50.958 145.354 50.9508 145.465C50.9508 145.634 50.7132 145.804 50.4504 145.944C50.6931 145.904 50.9421 145.932 51.1704 146.023C51.2126 146.046 51.2496 146.077 51.2788 146.115C51.308 146.153 51.3287 146.196 51.3396 146.243C51.3635 146.301 51.3691 146.365 51.3555 146.426C51.342 146.487 51.3101 146.542 51.264 146.585C51.1804 146.642 51.0805 146.669 50.9796 146.664C50.5088 146.61 50.0509 146.474 49.626 146.264ZM49.9212 146.21C50.3964 146.412 51.0012 146.588 51.1416 146.466C51.1416 146.466 51.1956 146.419 51.1632 146.293C51.1558 146.269 51.1438 146.247 51.1277 146.228C51.1116 146.209 51.0918 146.193 51.0696 146.182C50.95 146.127 50.8191 146.103 50.688 146.11C50.4296 146.117 50.1726 146.15 49.9212 146.21ZM50.3712 145.35C50.1161 145.514 49.9214 145.757 49.8168 146.041C50.2956 145.861 50.7564 145.609 50.7636 145.465C50.7636 145.422 50.6916 145.379 50.6484 145.357C50.6021 145.336 50.5519 145.323 50.5008 145.321C50.4561 145.322 50.4121 145.332 50.3712 145.35Z" fill="#1222BF"/>
<path d="M46.6523 140.555L51.9983 139.824L51.5519 141.815L47.1383 142.369L46.6523 140.555Z" fill="#1222BF"/>
<path d="M41.1083 145.904C41.1083 145.642 44.3483 145.847 44.3483 145.847C44.3483 145.847 46.3319 147.866 48.2579 148.32C50.1839 148.774 49.1075 149.929 46.9547 149.929H41.6267C40.0895 149.929 41.0399 148.626 41.1083 145.904Z" fill="#263238"/>
<path d="M44.7012 146.264C44.6895 146.26 44.6795 146.253 44.6724 146.243V146.221C44.6704 146.212 44.6704 146.202 44.6724 146.192C44.6691 146.182 44.6691 146.171 44.6724 146.16C44.6724 146.12 44.9568 145.375 45.3924 145.192C45.4581 145.162 45.5292 145.147 45.6012 145.147C45.6732 145.147 45.7443 145.162 45.81 145.192C45.9576 145.264 46.0296 145.354 46.0224 145.465C46.0224 145.634 45.7848 145.804 45.522 145.944C45.7647 145.904 46.0137 145.932 46.242 146.023C46.284 146.046 46.3209 146.078 46.3506 146.116C46.3803 146.153 46.4021 146.197 46.4148 146.243C46.4378 146.301 46.4425 146.365 46.4284 146.426C46.4142 146.487 46.3819 146.542 46.3356 146.585C46.2523 146.642 46.1522 146.67 46.0512 146.664C45.5814 146.61 45.1246 146.475 44.7012 146.264ZM44.9964 146.21C45.4716 146.412 46.0764 146.588 46.2132 146.466C46.2132 146.466 46.2672 146.419 46.2348 146.293C46.2275 146.269 46.2154 146.247 46.1993 146.228C46.1832 146.209 46.1635 146.193 46.1412 146.182C46.0284 146.13 45.9052 146.105 45.7812 146.11C45.518 146.115 45.2561 146.149 45 146.21H44.9964ZM45.4428 145.35C45.1877 145.514 44.9931 145.757 44.8884 146.041C45.3672 145.861 45.828 145.609 45.8352 145.465C45.8352 145.422 45.7632 145.379 45.72 145.357C45.6739 145.335 45.6236 145.323 45.5724 145.321C45.5277 145.322 45.4837 145.332 45.4428 145.35Z" fill="#1222BF"/>
<path d="M42.0875 140.555L47.7935 139.824L47.3183 141.815L42.6059 142.369L42.0875 140.555Z" fill="#1222BF"/>
<path d="M40.5431 81.5544L39.9851 83.1636L51.2459 86.1408L51.9083 84.24L40.5431 81.5544Z" fill="black"/>
<path d="M44.4073 82.1377L43.8544 81.9764L43.0319 84.7965L43.5848 84.9578L44.4073 82.1377Z" fill="#263238"/>
<path d="M49.1752 83.7228L46.7029 83.1031L46.2329 84.9784L48.7052 85.598L49.1752 83.7228Z" fill="white"/>
<path d="M51.3617 83.7386L50.8087 83.5773L49.9857 86.3972L50.5386 86.5586L51.3617 83.7386Z" fill="#263238"/>
<path d="M60.4404 71.3376C59.9604 71.976 59.5056 72.576 59.076 73.1376C57.4344 75.3336 56.268 76.8924 55.3716 78.1488C54.3674 79.502 53.4958 80.9486 52.7688 82.4688C52.4772 83.088 52.1892 83.7612 51.8688 84.5532L40.5432 81.5328C42.6744 73.6128 44.5032 69.4656 45.414 67.3956L45.4428 67.3308C45.7239 66.7109 46.2155 66.2107 46.8304 65.9188C47.4452 65.6268 48.1436 65.5621 48.8016 65.736C49.6152 65.9556 50.5656 66.2328 51.4476 66.5316C53.0911 67.1384 54.6899 67.8602 56.232 68.6916C57.6965 69.4715 59.1029 70.3558 60.4404 71.3376Z" fill="#1222BF"/>
<path d="M48.8016 65.7576C47.3112 65.3652 49.5036 70.6068 52.8912 71.6292C56.2788 72.6516 58.3164 71.3952 58.32 70.4232C58.3236 69.4512 53.298 66.96 48.8016 65.7576Z" fill="#B97964"/>
<path d="M49.7952 65.6604C49.7952 65.6604 50.9328 70.794 49.7952 74.5632C48.6576 78.3324 39.3552 101.142 39.3552 101.142H34.4124C34.4124 101.142 35.9424 89.8848 40.5324 80.2152C40.5324 80.2152 44.658 67.2228 44.7516 66.6504C44.8452 66.078 47.0412 65.16 49.7952 65.6604Z" fill="#1222BF"/>
<path d="M56.2787 68.4C56.2787 68.4 56.4263 73.6596 54.4787 78.3216L54.0935 98.1936C54.0935 98.1936 55.6919 87.984 56.3975 80.2152L60.6131 71.3376L56.2787 68.4Z" fill="#1222BF"/>
<path opacity="0.8" d="M49.7952 74.5632C48.654 78.3288 39.3552 101.142 39.3552 101.142H34.4124C34.4124 101.142 35.8128 90.8496 39.9564 81.4968C40.1472 81.0684 40.3416 80.64 40.5432 80.2152C40.5432 80.2152 40.9356 78.9804 41.4792 77.2524C42.7032 73.3824 44.6976 67.0464 44.7624 66.6504C44.856 66.0816 47.0412 65.142 49.8024 65.6604C49.7952 65.6604 50.9328 70.794 49.7952 74.5632Z" fill="white"/>
<path opacity="0.8" d="M56.2787 68.4C56.2787 68.4 56.4263 73.6596 54.4787 78.3216L54.0935 98.1936C54.0935 98.1936 55.6919 87.984 56.3975 80.2152L60.6131 71.3376L56.2787 68.4Z" fill="white"/>
<path d="M56.4012 67.9572C56.4012 67.9572 57.8988 69.1668 58.8852 72.3708L56.88 73.8L57.366 75.1104L54.486 79.7004C54.3613 78.5091 54.4392 77.3053 54.7164 76.14C55.17 74.4372 56.538 69.408 56.4012 67.9572Z" fill="#1222BF"/>
<path d="M50.3027 65.6604C51.3575 69.9395 50.6973 74.4615 48.4631 78.2604C48.4631 78.2604 48.3515 73.4724 47.7035 71.7264L49.2479 71.1108L46.1987 69.12C46.1987 69.12 48.6719 65.07 50.3027 65.6604Z" fill="#1222BF"/>
<path opacity="0.7" d="M56.4012 67.9572C56.4012 67.9572 57.8988 69.1668 58.8852 72.3708L56.88 73.8L57.366 75.1104L54.486 79.7004C54.3613 78.5091 54.4392 77.3053 54.7164 76.14C55.17 74.4372 56.538 69.408 56.4012 67.9572Z" fill="white"/>
<path opacity="0.7" d="M50.3027 65.6604C51.3575 69.9395 50.6973 74.4615 48.4631 78.2604C48.4631 78.2604 48.3515 73.4724 47.7035 71.7264L49.2479 71.1108L46.1987 69.12C46.1987 69.12 48.6719 65.07 50.3027 65.6604Z" fill="white"/>
<path opacity="0.2" d="M44.6687 83.2968C43.5095 83.4048 41.4863 82.3896 39.9563 81.4968C40.1471 81.0684 40.3415 80.64 40.5431 80.2152C40.5431 80.2152 40.9355 78.9804 41.4791 77.2524C43.3259 79.5168 46.0799 83.16 44.6687 83.2968Z" fill="black"/>
<path d="M45.486 90.5364C45.486 90.5364 46.6056 90.6912 48.762 88.6284C50.9184 86.5656 53.802 84.1464 54.5004 84.4776L60.8868 87.5592L52.272 93.6792L45.486 90.5364Z" fill="#1222BF"/>
<path opacity="0.7" d="M45.486 90.5364C45.486 90.5364 46.6056 90.6912 48.762 88.6284C50.9184 86.5656 53.802 84.1464 54.5004 84.4776L60.8868 87.5592L52.272 93.6792L45.486 90.5364Z" fill="white"/>
<path d="M45.6479 91.8L54.4715 84.8916C54.529 84.8469 54.5975 84.8187 54.6697 84.8098C54.742 84.8009 54.8153 84.8118 54.8819 84.8412L61.5275 87.7824C61.5555 87.7951 61.5797 87.8148 61.5977 87.8397C61.6157 87.8646 61.6269 87.8938 61.6302 87.9243C61.6335 87.9549 61.6287 87.9858 61.6164 88.0139C61.604 88.042 61.5846 88.0665 61.5599 88.0848L52.8443 94.572C52.7903 94.6121 52.727 94.6381 52.6604 94.6475C52.5937 94.657 52.5258 94.6496 52.4627 94.626L45.6947 92.088C45.6686 92.0758 45.6459 92.0575 45.6285 92.0346C45.6112 92.0116 45.5997 91.9848 45.5951 91.9564C45.5904 91.928 45.5928 91.8989 45.6021 91.8716C45.6113 91.8444 45.627 91.8198 45.6479 91.8Z" fill="#1222BF"/>
<path d="M58.6979 86.3208C58.7771 86.202 58.8779 85.9608 58.6439 85.8564C58.5307 85.8234 58.4114 85.8169 58.2953 85.8375C58.1791 85.8581 58.0693 85.9052 57.9743 85.9752C57.6323 85.8168 57.3119 85.6656 57.0851 85.5648C57.0613 85.5545 57.035 85.5514 57.0094 85.5559C56.9838 85.5604 56.9601 85.5722 56.9411 85.59L56.3867 86.0976C56.3625 86.1201 56.3443 86.1483 56.3337 86.1796C56.3232 86.211 56.3206 86.2445 56.3264 86.2771C56.3321 86.3097 56.3459 86.3403 56.3665 86.3662C56.3871 86.392 56.4139 86.4123 56.4443 86.4252L58.7087 87.3936C58.7892 87.4269 58.8773 87.4378 58.9635 87.4252C59.0497 87.4125 59.1308 87.3767 59.1983 87.3216L59.6483 86.9436C59.6624 86.9327 59.6734 86.9185 59.6804 86.9022C59.6874 86.8859 59.6902 86.868 59.6884 86.8504C59.6866 86.8327 59.6803 86.8158 59.6701 86.8013C59.66 86.7867 59.6463 86.775 59.6303 86.7672L58.6979 86.3208ZM58.5467 86.0472C58.6187 86.094 58.5647 86.1732 58.5107 86.2308L58.2443 86.1048C58.3451 86.04 58.4783 86.0004 58.5467 86.04V86.0472Z" fill="#263238"/>
<path d="M47.52 84.5748L48.9924 86.544C48.9924 86.544 50.4324 86.8284 50.7924 87.2064C51.4577 87.9595 52.0496 88.7744 52.56 89.64C52.7004 90.018 50.58 91.062 50.31 90.9216C50.04 90.7812 48.528 88.6428 48.3372 88.2612C48.2821 88.1403 48.2535 88.0089 48.2535 87.876C48.2535 87.7431 48.2821 87.6117 48.3372 87.4908L46.7748 85.6908L47.52 84.5748Z" fill="#B97964"/>
<path d="M44.7623 66.6504C46.0907 67.3704 46.2023 70.2288 46.2023 70.2288C46.2023 70.2288 43.1531 76.1436 42.9623 77.0688C42.7715 77.994 48.5999 85.5036 48.5999 85.5036L47.2319 86.778C47.2319 86.778 40.2047 79.2468 39.4451 77.418C38.6855 75.5892 44.7623 66.6504 44.7623 66.6504Z" fill="#1222BF"/>
<path opacity="0.7" d="M44.7623 66.6504C46.0907 67.3704 46.2023 70.2288 46.2023 70.2288C46.2023 70.2288 43.1531 76.1436 42.9623 77.0688C42.7715 77.994 48.5999 85.5036 48.5999 85.5036L47.2319 86.778C47.2319 86.778 40.2047 79.2468 39.4451 77.418C38.6855 75.5892 44.7623 66.6504 44.7623 66.6504Z" fill="white"/>
<path d="M61.3655 81.612C61.3655 81.7985 61.3102 81.9809 61.2066 82.136C61.1029 82.2911 60.9556 82.412 60.7833 82.4834C60.6109 82.5548 60.4213 82.5735 60.2383 82.5371C60.0554 82.5007 59.8873 82.4108 59.7554 82.2789C59.6235 82.147 59.5336 81.979 59.4972 81.796C59.4609 81.613 59.4795 81.4234 59.5509 81.251C59.6223 81.0787 59.7432 80.9314 59.8983 80.8277C60.0534 80.7241 60.2358 80.6688 60.4223 80.6688C60.6725 80.6688 60.9124 80.7682 61.0893 80.945C61.2662 81.1219 61.3655 81.3618 61.3655 81.612Z" fill="#263238"/>
<g opacity="0.6">
<path d="M61.3655 81.612C61.3655 81.7985 61.3102 81.9809 61.2066 82.136C61.1029 82.2911 60.9556 82.412 60.7833 82.4834C60.6109 82.5548 60.4213 82.5735 60.2383 82.5371C60.0554 82.5007 59.8873 82.4108 59.7554 82.2789C59.6235 82.147 59.5336 81.979 59.4972 81.796C59.4609 81.613 59.4795 81.4234 59.5509 81.251C59.6223 81.0787 59.7432 80.9314 59.8983 80.8277C60.0534 80.7241 60.2358 80.6688 60.4223 80.6688C60.6725 80.6688 60.9124 80.7682 61.0893 80.945C61.2662 81.1219 61.3655 81.3618 61.3655 81.612Z" fill="white"/>
</g>
<path d="M56.8332 73.836C56.8605 73.2538 56.9266 72.6741 57.0312 72.1008C57.3696 69.9624 57.7512 67.536 54.5544 66.1536C53.5896 65.736 52.7328 65.7432 52.0092 66.1788C50.3712 67.1652 49.95 70.0164 49.8672 70.7616C49.5822 70.7278 49.2933 70.7603 49.023 70.8565C48.7526 70.9526 48.5081 71.1099 48.3084 71.316C47.1384 72.5652 47.6712 75.4416 47.6964 75.564C47.7007 75.587 47.7096 75.609 47.7224 75.6285C47.7353 75.6481 47.7519 75.6649 47.7714 75.678C47.7908 75.691 47.8127 75.7001 47.8356 75.7046C47.8586 75.7092 47.8823 75.7091 47.9052 75.7044C47.9519 75.6956 47.9933 75.6688 48.0202 75.6297C48.0472 75.5906 48.0576 75.5424 48.0492 75.4956C48.0492 75.4668 47.5236 72.6804 48.5676 71.5644C48.7525 71.3779 48.9811 71.2407 49.2327 71.1653C49.4842 71.0898 49.7506 71.0785 50.0076 71.1324C50.2777 71.1499 50.5398 71.2315 50.7721 71.3705C51.0043 71.5095 51.2001 71.7018 51.3432 71.9316C52.2468 73.3968 51.2208 76.3164 51.21 76.3452C51.195 76.3906 51.1982 76.44 51.219 76.4831C51.2399 76.5261 51.2767 76.5593 51.3216 76.5756C51.3418 76.5793 51.3626 76.5793 51.3828 76.5756C51.4196 76.5746 51.4552 76.5628 51.4853 76.5417C51.5154 76.5205 51.5386 76.491 51.552 76.4568C51.5952 76.3308 52.632 73.3464 51.6492 71.7336C51.4927 71.481 51.2826 71.2659 51.0338 71.1035C50.7849 70.9412 50.5034 70.8355 50.2092 70.794C50.292 70.0992 50.7024 67.3668 52.1784 66.474C52.7976 66.114 53.5428 66.114 54.396 66.474C57.3372 67.7448 56.9952 69.9264 56.6604 72.0324C56.5534 72.6273 56.486 73.2286 56.4588 73.8324C56.4156 76.7124 57.3408 81.36 60.0192 81.4572V81.0972C57.5352 81 56.7972 76.1652 56.8332 73.836Z" fill="#263238"/>
<path opacity="0.2" d="M56.8332 73.836C56.8605 73.2538 56.9266 72.6741 57.0312 72.1008C57.3696 69.9624 57.7512 67.536 54.5544 66.1536C53.5896 65.736 52.7328 65.7432 52.0092 66.1788C50.3712 67.1652 49.95 70.0164 49.8672 70.7616C49.5822 70.7278 49.2933 70.7603 49.023 70.8565C48.7526 70.9526 48.5081 71.1099 48.3084 71.316C47.1384 72.5652 47.6712 75.4416 47.6964 75.564C47.7007 75.587 47.7096 75.609 47.7224 75.6285C47.7353 75.6481 47.7519 75.6649 47.7714 75.678C47.7908 75.691 47.8127 75.7001 47.8356 75.7046C47.8586 75.7092 47.8823 75.7091 47.9052 75.7044C47.9519 75.6956 47.9933 75.6688 48.0202 75.6297C48.0472 75.5906 48.0576 75.5424 48.0492 75.4956C48.0492 75.4668 47.5236 72.6804 48.5676 71.5644C48.7525 71.3779 48.9811 71.2407 49.2327 71.1653C49.4842 71.0898 49.7506 71.0785 50.0076 71.1324C50.2777 71.1499 50.5398 71.2315 50.7721 71.3705C51.0043 71.5095 51.2001 71.7018 51.3432 71.9316C52.2468 73.3968 51.2208 76.3164 51.21 76.3452C51.195 76.3906 51.1982 76.44 51.219 76.4831C51.2399 76.5261 51.2767 76.5593 51.3216 76.5756C51.3418 76.5793 51.3626 76.5793 51.3828 76.5756C51.4196 76.5746 51.4552 76.5628 51.4853 76.5417C51.5154 76.5205 51.5386 76.491 51.552 76.4568C51.5952 76.3308 52.632 73.3464 51.6492 71.7336C51.4927 71.481 51.2826 71.2659 51.0338 71.1035C50.7849 70.9412 50.5034 70.8355 50.2092 70.794C50.292 70.0992 50.7024 67.3668 52.1784 66.474C52.7976 66.114 53.5428 66.114 54.396 66.474C57.3372 67.7448 56.9952 69.9264 56.6604 72.0324C56.5534 72.6273 56.486 73.2286 56.4588 73.8324C56.4156 76.7124 57.3408 81.36 60.0192 81.4572V81.0972C57.5352 81 56.7972 76.1652 56.8332 73.836Z" fill="white"/>
<path d="M51.5771 76.1292L51.0803 76.0284C51.0803 76.0284 50.7203 76.8204 51.0119 76.9608C51.3035 77.1012 51.7427 76.5432 51.5771 76.1292Z" fill="#263238"/>
<g opacity="0.6">
<path d="M51.5771 76.1292L51.0803 76.0284C51.0803 76.0284 50.7203 76.8204 51.0119 76.9608C51.3035 77.1012 51.7427 76.5432 51.5771 76.1292Z" fill="white"/>
</g>
<path d="M47.7936 75.24H48.2976C48.2976 75.24 48.5136 76.0932 48.1788 76.1652C47.844 76.2372 47.5452 75.6 47.7936 75.24Z" fill="#263238"/>
<g opacity="0.6">
<path d="M47.7936 75.24H48.2976C48.2976 75.24 48.5136 76.0932 48.1788 76.1652C47.844 76.2372 47.5452 75.6 47.7936 75.24Z" fill="white"/>
</g>
<path d="M60.2172 81.7272C60.5095 81.7272 60.7464 81.4903 60.7464 81.198C60.7464 80.9057 60.5095 80.6688 60.2172 80.6688C59.9249 80.6688 59.688 80.9057 59.688 81.198C59.688 81.4903 59.9249 81.7272 60.2172 81.7272Z" fill="#263238"/>
<g opacity="0.7">
<path d="M60.2172 81.7272C60.5095 81.7272 60.7464 81.4903 60.7464 81.198C60.7464 80.9057 60.5095 80.6688 60.2172 80.6688C59.9249 80.6688 59.688 80.9057 59.688 81.198C59.688 81.4903 59.9249 81.7272 60.2172 81.7272Z" fill="white"/>
</g>
<path d="M53.1287 70.92C51.2207 68.76 51.3863 67.266 51.3863 67.266C53.8811 67.1832 54.7127 63.954 54.7127 63.954L56.8727 66.7152C56.4954 67.0232 56.1405 67.3576 55.8107 67.716C54.4103 69.2676 55.0907 69.9084 55.0907 69.9084C54.8099 71.172 53.1287 70.92 53.1287 70.92Z" fill="#B97964"/>
<path opacity="0.2" d="M56.88 66.7296C56.5027 67.0376 56.1478 67.372 55.818 67.7304C54.828 66.3444 54.72 63.9684 54.72 63.9684L56.88 66.7296Z" fill="black"/>
<path d="M59.2271 56.5416C62.1395 57.2616 62.7011 59.04 62.1827 62.0964C61.5347 65.916 60.0515 68.382 56.6027 66.6936C51.9155 64.3968 54.3851 55.3644 59.2271 56.5416Z" fill="#B97964"/>
<path d="M60.336 61.4772C60.4642 61.9691 60.6503 62.444 60.8904 62.892C60.7755 62.9914 60.6353 63.0572 60.4854 63.0819C60.3354 63.1067 60.1816 63.0896 60.0408 63.0324L60.336 61.4772Z" fill="#A24E3F"/>
<path d="M58.6116 60.804C58.5576 61.0452 58.3848 61.2108 58.2228 61.164C58.0608 61.1172 57.9744 60.9048 58.0284 60.6636C58.0824 60.4224 58.2552 60.2568 58.4136 60.3036C58.572 60.3504 58.68 60.5628 58.6116 60.804Z" fill="#263238"/>
<path d="M58.3452 60.3L58.914 60.21C58.914 60.21 58.5576 60.5916 58.3452 60.3Z" fill="#263238"/>
<path d="M61.614 61.4088C61.5636 61.65 61.3908 61.8156 61.2288 61.7688C61.0668 61.722 60.9804 61.5096 61.0344 61.2684C61.0884 61.0272 61.2612 60.8616 61.4196 60.9084C61.578 60.9552 61.668 61.1676 61.614 61.4088Z" fill="#263238"/>
<path d="M61.3512 60.9048L61.92 60.8148C61.92 60.8148 61.56 61.2 61.3512 60.9048Z" fill="#263238"/>
<path d="M57.7008 59.04C57.6803 59.0402 57.6601 59.0353 57.6419 59.0259C57.6237 59.0165 57.6081 59.0028 57.5964 58.986C57.5759 58.9581 57.5671 58.9234 57.5718 58.8891C57.5765 58.8548 57.5943 58.8237 57.6216 58.8024C57.8424 58.6629 58.0929 58.5769 58.3529 58.5513C58.6129 58.5256 58.8753 58.5611 59.1192 58.6548C59.1492 58.6686 59.1728 58.6933 59.1852 58.7239C59.1976 58.7545 59.1978 58.7887 59.1859 58.8194C59.1739 58.8502 59.1507 58.8753 59.1209 58.8895C59.0911 58.9037 59.057 58.9061 59.0256 58.896C58.8226 58.8203 58.6053 58.7913 58.3896 58.8113C58.1739 58.8312 57.9656 58.8996 57.78 59.0112C57.757 59.0285 57.7294 59.0385 57.7008 59.04Z" fill="#263238"/>
<path d="M62.3232 59.8284C62.3054 59.8284 62.2878 59.8246 62.2716 59.8171C62.2555 59.8097 62.2411 59.7988 62.2296 59.7852C62.1106 59.6359 61.9595 59.5153 61.7874 59.4324C61.6154 59.3495 61.4269 59.3064 61.236 59.3064C61.202 59.3086 61.1683 59.298 61.1417 59.2767C61.115 59.2554 61.0973 59.2249 61.092 59.1912C61.0879 59.1573 61.0973 59.1232 61.1182 59.0963C61.1391 59.0693 61.1698 59.0517 61.2036 59.0472C61.4359 59.0413 61.6665 59.0888 61.8774 59.1862C62.0884 59.2836 62.2742 59.4282 62.4204 59.6088C62.444 59.6336 62.4571 59.6664 62.4571 59.7006C62.4571 59.7348 62.444 59.7676 62.4204 59.7924C62.4077 59.8049 62.3924 59.8147 62.3757 59.8209C62.3589 59.8271 62.341 59.8296 62.3232 59.8284Z" fill="#263238"/>
<path d="M54.8424 60.678C54.8424 60.678 56.79 58.6152 57.0348 56.718C57.0348 56.718 63.3852 55.764 62.244 61.6968C62.244 61.6968 64.0764 56.628 59.0904 55.2924C54.1044 53.9568 52.344 61.29 54.4104 64.1052C54.3996 64.1052 53.64 61.9704 54.8424 60.678Z" fill="#263238"/>
<path d="M55.1699 61.4124C55.2241 61.0699 55.1411 60.7199 54.939 60.4382C54.7368 60.1565 54.4317 59.9659 54.0899 59.9076C53.1611 59.7852 52.2899 61.5348 54.4175 62.5284C54.7199 62.6724 54.9719 62.3988 55.1699 61.4124Z" fill="#B97964"/>
<path d="M63.9972 63C63.2412 62.28 63.3564 61.056 63.9504 59.814C64.5444 58.572 63.0072 57.654 63.0072 57.654C63.0072 57.654 62.8848 56.0916 61.6824 55.4652C61.4664 55.35 60.4656 55.4652 60.4656 55.4652C59.1552 54.0252 57.0492 52.8408 55.3968 54.7164C54.4212 55.8252 53.4528 54.6912 51.9084 56.9952C50.7924 58.662 51.57 60.1272 51.246 60.6636C49.7484 63.126 51.696 63.792 52.164 64.6488C52.164 64.6488 53.1936 64.1592 53.1072 63.864C52.3872 61.506 53.6292 59.976 54.5796 60.3504C55.53 60.7248 56.2068 60.6276 56.8944 59.76C57.582 58.8924 57.1032 57.96 58.6944 57.744C60.2856 57.528 60.4476 56.6172 60.4476 56.6172C60.4731 57.0222 60.6081 57.4126 60.8383 57.7467C61.0685 58.0809 61.3851 58.3462 61.7544 58.5144C63.0828 59.2092 62.5608 60.048 62.3736 61.2324C62.1864 62.4168 62.7732 62.874 63.8136 63.7308C64.854 64.5876 63.756 65.214 63.756 65.214C63.9534 65.1142 64.1228 64.9666 64.2487 64.7847C64.3746 64.6028 64.4531 64.3923 64.4771 64.1724C64.5011 63.9525 64.4697 63.7301 64.3859 63.5253C64.3021 63.3206 64.1685 63.14 63.9972 63Z" fill="#263238"/>
<path d="M59.8211 64.3536C59.5633 64.5867 59.3226 64.8381 59.1011 65.106L58.9427 65.0124C58.2227 64.584 58.0427 64.152 58.0463 63.7992C58.0554 63.6286 58.1035 63.4624 58.1867 63.3132C58.2324 63.2269 58.2893 63.147 58.3559 63.0756C58.6786 63.5354 59.096 63.9208 59.5799 64.206L59.8211 64.3536Z" fill="#263238"/>
<path d="M59.58 64.206L59.364 64.422C58.6944 64.0152 58.284 63.6408 58.1868 63.3132C58.2324 63.2269 58.2893 63.147 58.356 63.0756C58.6787 63.5354 59.096 63.9208 59.58 64.206Z" fill="white"/>
<path d="M58.9427 65.0124C58.2227 64.584 58.0427 64.152 58.0463 63.7992C58.3148 63.9674 58.5512 64.182 58.7447 64.4328C58.8701 64.6003 58.9394 64.8032 58.9427 65.0124Z" fill="#DE5753"/>
</svg>
