<svg width="260" height="260" viewBox="0 0 260 260" fill="none" xmlns="http://www.w3.org/2000/svg">
<path d="M131.846 250.474C200.392 250.474 255.96 222.026 255.96 186.935C255.96 151.843 200.392 123.396 131.846 123.396C63.3 123.396 7.7324 151.843 7.7324 186.935C7.7324 222.026 63.3 250.474 131.846 250.474Z" fill="white"/>
<path d="M202.602 227.952C221.278 227.952 236.418 218.6 236.418 207.064C236.418 195.528 221.278 186.176 202.602 186.176C183.927 186.176 168.787 195.528 168.787 207.064C168.787 218.6 183.927 227.952 202.602 227.952Z" fill="#E0E0E0"/>
<path d="M122.33 169.582L100.662 157.076C100.302 156.892 99.9036 156.796 99.4994 156.796C99.0952 156.796 98.6969 156.892 98.3372 157.076L26.52 198.546C26.3793 198.593 26.2569 198.683 26.1702 198.804C26.0834 198.924 26.0368 199.069 26.0368 199.217C26.0368 199.365 26.0834 199.51 26.1702 199.631C26.2569 199.751 26.3793 199.841 26.52 199.888L48.1832 212.399C48.5441 212.579 48.942 212.673 49.3454 212.673C49.7488 212.673 50.1467 212.579 50.5076 212.399L56.9088 208.702L115.924 174.72L122.335 170.95C122.48 170.903 122.606 170.812 122.696 170.688C122.785 170.565 122.833 170.417 122.833 170.264C122.832 170.112 122.783 169.964 122.693 169.841C122.602 169.719 122.475 169.628 122.33 169.582Z" fill="#E0E0E0"/>
<path d="M219.736 199.295L216.388 197.517C216.388 197.517 216.715 181.168 220.106 168.506C223.579 155.542 233.688 141.222 243.24 146.588C252.793 151.954 235.815 162.984 230.708 173.628C225.602 184.272 219.736 199.295 219.736 199.295Z" fill="#9ED2FD"/>
<path opacity="0.15" d="M219.736 199.295L216.388 197.517C216.388 197.517 216.715 181.168 220.106 168.506C223.579 155.542 233.688 141.222 243.24 146.588C252.793 151.954 235.815 162.984 230.708 173.628C225.602 184.272 219.736 199.295 219.736 199.295Z" fill="black"/>
<path d="M219.294 195.416C219.25 195.415 219.206 195.405 219.166 195.386C219.125 195.368 219.089 195.342 219.058 195.31C219.028 195.277 219.004 195.239 218.989 195.198C218.973 195.156 218.965 195.112 218.967 195.068C219.684 169.697 230.776 154.206 240.058 148.652C240.135 148.606 240.228 148.593 240.315 148.615C240.402 148.636 240.477 148.692 240.523 148.769C240.57 148.847 240.583 148.939 240.561 149.026C240.539 149.114 240.484 149.189 240.406 149.235C231.27 154.7 220.355 169.988 219.643 195.083C219.642 195.128 219.633 195.172 219.615 195.213C219.597 195.255 219.571 195.292 219.538 195.323C219.506 195.354 219.468 195.378 219.426 195.394C219.384 195.41 219.339 195.417 219.294 195.416Z" fill="#9ED2FD"/>
<path d="M221.25 200.075L218.26 198.541C218.26 198.541 218.629 190.512 224.78 180.05C230.24 170.758 241.306 163.478 245.955 166.072C249.564 168.08 250.396 172.479 246.938 175.406C243.48 178.334 227.516 184.475 221.25 200.075Z" fill="#9ED2FD"/>
<path d="M220.048 197.512C220.568 197.616 220.75 196.331 220.854 196.004C221.052 195.39 221.26 194.787 221.489 194.184C221.937 193.011 222.445 191.862 223.012 190.741C224.104 188.586 225.383 186.531 226.834 184.6C228.191 182.792 229.669 181.079 231.26 179.473C232.695 178.029 234.205 176.661 235.784 175.375C237.104 174.294 238.477 173.269 239.886 172.307C240.926 171.6 241.966 170.924 243.053 170.29C243.62 169.957 244.187 169.629 244.774 169.328L244.941 169.244C245.034 169.199 245.105 169.118 245.139 169.02C245.172 168.922 245.166 168.815 245.12 168.722C245.075 168.629 244.994 168.558 244.896 168.524C244.798 168.49 244.691 168.497 244.598 168.542C244.234 168.719 243.885 168.917 243.558 169.114C242.642 169.634 241.748 170.154 240.869 170.737C239.566 171.579 238.293 172.47 237.052 173.41C235.513 174.574 234.035 175.81 232.617 177.117C231.001 178.597 229.479 180.178 228.062 181.849C226.525 183.651 225.134 185.573 223.902 187.595C222.591 189.736 221.494 192 220.626 194.355C220.463 194.809 220.307 195.262 220.158 195.712C219.939 196.162 219.807 196.649 219.768 197.148C219.774 197.227 219.802 197.303 219.849 197.367C219.896 197.431 219.959 197.481 220.033 197.512H220.048Z" fill="#9ED2FD"/>
<path d="M50.3568 185.037C50.3568 185.037 50.44 174.84 46.4308 166.4C42.4216 157.96 36.1504 152.251 29.7908 150.946C23.4312 149.64 17.5656 154.892 23.9096 159.786C30.2536 164.679 41.9068 170.342 45.63 186.191L50.3568 185.037Z" fill="#9ED2FD"/>
<path opacity="0.15" d="M50.3568 185.037C50.3568 185.037 50.44 174.84 46.4308 166.4C42.4216 157.96 36.1504 152.251 29.7908 150.946C23.4312 149.64 17.5656 154.892 23.9096 159.786C30.2536 164.679 41.9068 170.342 45.63 186.191L50.3568 185.037Z" fill="black"/>
<path d="M47.7048 183.274C47.6385 183.274 47.5746 183.249 47.5262 183.203C47.4779 183.158 47.4488 183.096 47.4448 183.03C46.4672 166.707 33.02 156.094 26.3744 154.284C26.3084 154.266 26.2523 154.222 26.2182 154.163C26.1841 154.103 26.1749 154.033 26.1924 153.967C26.2107 153.899 26.2548 153.842 26.3151 153.807C26.3755 153.772 26.4472 153.762 26.5148 153.78C33.2748 155.626 46.9716 166.416 47.9648 182.998C47.9664 183.067 47.9421 183.133 47.8968 183.184C47.8514 183.235 47.7884 183.267 47.7204 183.274H47.7048Z" fill="#9ED2FD"/>
<path d="M51.1784 199.035C52.4666 197.41 53.331 195.49 53.6941 193.448C54.0571 191.405 53.9074 189.305 53.2584 187.335C52.8809 186.146 52.2771 185.04 51.48 184.08C50.8404 183.326 49.92 182.936 49.1712 182.307C47.5592 180.97 45.6872 179.551 45.1048 177.429C44.6368 175.739 44.7356 174.138 43.7996 172.552C43.2481 171.558 42.3699 170.787 41.314 170.368C39.936 169.848 38.4176 170.191 36.9616 170.368C34.8816 170.602 33.3216 169.884 31.5224 168.927C29.5412 167.887 27.2272 167.066 25.0796 167.705C24.3811 167.912 23.734 168.264 23.18 168.737C22.626 169.21 22.1776 169.794 21.8639 170.451C21.5501 171.109 21.378 171.825 21.3586 172.553C21.3393 173.281 21.4732 174.005 21.7516 174.678C22.23 175.843 23.114 176.79 23.764 177.871C24.414 178.953 24.7572 180.19 24.284 181.371C23.92 182.244 23.244 182.931 22.9736 183.82C22.204 186.16 22.6356 188.24 24.96 189.446C27.3884 190.689 31.2 189.753 32.4168 192.806C32.8744 193.965 32.89 195.25 33.1396 196.472C33.6519 198.931 35.0818 201.103 37.1384 202.545C39.9308 204.485 43.7216 204.012 46.618 202.66C48.3974 201.82 49.9583 200.579 51.1784 199.035Z" fill="#9ED2FD"/>
<path d="M29.2864 184.267C29.3432 184.277 29.4016 184.268 29.4528 184.241C31.5009 183.449 33.6989 183.121 35.889 183.279C38.0791 183.437 40.207 184.078 42.12 185.156C42.1855 185.191 42.2623 185.199 42.3334 185.178C42.4046 185.156 42.4643 185.107 42.4996 185.042C42.5179 185.01 42.5295 184.975 42.5339 184.938C42.5383 184.902 42.5353 184.865 42.5251 184.829C42.5149 184.794 42.4978 184.761 42.4746 184.732C42.4515 184.703 42.4228 184.68 42.3904 184.662C40.4029 183.546 38.1927 182.884 35.9188 182.724C33.645 182.564 31.3639 182.91 29.2396 183.737C29.1896 183.764 29.1492 183.806 29.1237 183.857C29.0981 183.908 29.0887 183.965 29.0966 184.022C29.1045 184.078 29.1293 184.131 29.1679 184.173C29.2064 184.215 29.2568 184.244 29.3124 184.257L29.2864 184.267Z" fill="#9ED2FD"/>
<path d="M47.4448 199.124C47.3767 199.125 47.3108 199.1 47.2612 199.053C47.2116 199.006 47.1823 198.942 47.1796 198.874C46.696 187.122 34.8972 174.694 26.988 171.314C26.9561 171.301 26.927 171.282 26.9026 171.257C26.8782 171.233 26.8589 171.204 26.8459 171.172C26.8328 171.14 26.8262 171.106 26.8265 171.071C26.8268 171.037 26.834 171.003 26.8476 170.971C26.8761 170.907 26.9287 170.857 26.9939 170.831C27.0592 170.806 27.1318 170.808 27.196 170.836C35.23 174.278 47.2108 186.914 47.7048 198.864C47.7062 198.898 47.7007 198.933 47.6886 198.966C47.6766 198.999 47.6582 199.029 47.6345 199.054C47.6109 199.08 47.5824 199.101 47.5507 199.115C47.5191 199.13 47.4848 199.138 47.45 199.139L47.4448 199.124Z" fill="#9ED2FD"/>
<path d="M112.57 31.2L53.716 65.1664C53.1332 65.5468 52.6488 66.06 52.3026 66.6638C51.9565 67.2676 51.7583 67.9448 51.7244 68.64V207.236C51.7244 208.504 52.6188 209.019 53.716 208.38L112.57 174.403C113.149 174.023 113.63 173.513 113.976 172.913C114.322 172.314 114.522 171.641 114.561 170.95V32.3336C114.561 31.0648 113.667 30.5448 112.57 31.2ZM111.696 160.68C111.696 161.767 110.932 162.458 109.99 162.999L56.0976 194.126C55.1616 194.646 54.392 194.23 54.392 193.138V77.8804C54.3922 77.2844 54.5495 76.6991 54.848 76.1833C55.1465 75.6675 55.5758 75.2395 56.0924 74.9424L109.985 43.81C110.158 43.7095 110.354 43.6564 110.554 43.6559C110.754 43.6554 110.951 43.7076 111.124 43.8073C111.298 43.9069 111.442 44.0504 111.542 44.2234C111.643 44.3964 111.696 44.5928 111.696 44.7928V160.68Z" fill="#455A64"/>
<path d="M111.696 160.68C111.696 161.767 110.932 162.458 109.99 162.999L56.0976 194.126C55.1616 194.646 54.392 194.23 54.392 193.138V77.8804C54.3922 77.2845 54.5495 76.6991 54.848 76.1833C55.1465 75.6675 55.5758 75.2395 56.0924 74.9424L109.985 43.81C110.158 43.7096 110.354 43.6564 110.554 43.6559C110.754 43.6555 110.951 43.7076 111.124 43.8073C111.298 43.9069 111.442 44.0504 111.542 44.2234C111.643 44.3964 111.696 44.5928 111.696 44.7928V160.68Z" fill="#263238"/>
<path d="M56.0976 194.126L109.99 163.01C110.369 162.805 110.718 162.552 111.03 162.256L54.392 130.359V193.138C54.392 194.23 55.1616 194.667 56.0976 194.126Z" fill="#37474F"/>
<path d="M107.333 158.657V45.344L56.0924 74.9424C55.5758 75.2395 55.1465 75.6674 54.848 76.1832C54.5495 76.699 54.3922 77.2844 54.392 77.8804V190.559L105.628 160.976C106.569 160.436 107.333 159.744 107.333 158.657Z" fill="#9ED2FD"/>
<path d="M53.4664 208.52C52.8721 208.771 52.2305 208.889 51.5859 208.868C50.9413 208.846 50.309 208.685 49.7328 208.395L47.4552 207.08C46.874 206.703 46.3901 206.195 46.043 205.595C45.696 204.996 45.4957 204.323 45.4584 203.632V65C45.4715 64.4862 45.5882 63.9804 45.8016 63.5128C45.8744 63.3516 45.9524 63.1956 46.0408 63.0344L52.2808 66.6744C52.1496 66.9088 52.035 67.1521 51.9376 67.4024C51.7861 67.7962 51.7034 68.213 51.6932 68.6348V207.236C51.7244 208.406 52.4836 208.936 53.4664 208.52Z" fill="#263238"/>
<path d="M84.9004 180.596C86.1744 180.596 86.3096 182.026 86.3096 182.64C86.2334 183.869 85.873 185.064 85.2568 186.131C84.6405 187.197 83.7851 188.106 82.758 188.786C82.3458 189.048 81.8728 189.198 81.3852 189.223C80.1112 189.223 79.976 187.793 79.976 187.179C80.0527 185.95 80.4128 184.755 81.028 183.688C81.6432 182.621 82.4969 181.71 83.5224 181.028C83.938 180.77 84.412 180.621 84.9004 180.596Z" fill="#9ED2FD"/>
<path d="M83.1012 50.3932C83.6212 50.0812 84.0736 50.3308 84.0736 50.9548C84.0547 51.2922 83.9569 51.6204 83.788 51.913C83.6191 52.2056 83.3838 52.4545 83.1012 52.6396C82.5812 52.9464 82.1236 52.6968 82.1236 52.078C82.1414 51.7398 82.2393 51.4107 82.4093 51.1178C82.5793 50.8248 82.8164 50.5765 83.1012 50.3932Z" fill="#263238"/>
<path d="M76.8196 58.604C77.298 58.3284 77.6828 58.552 77.6828 59.124C77.6669 59.4233 77.5805 59.7145 77.4304 59.9739C77.2804 60.2333 77.0711 60.4535 76.8196 60.6164C76.3412 60.892 75.9564 60.6684 75.9564 60.0964C75.9731 59.7974 76.0599 59.5064 76.2099 59.2472C76.3598 58.9879 76.5687 58.7676 76.8196 58.604Z" fill="#263238"/>
<path d="M79.7056 56.8984L89.3724 51.3188C89.8924 51.012 90.3292 51.2304 90.3292 51.8024C90.3039 52.1236 90.2042 52.4346 90.0382 52.7107C89.8722 52.9868 89.6442 53.2206 89.3724 53.3936L79.7056 58.9732C79.1856 59.28 78.7488 59.0616 78.7488 58.4896C78.7741 58.1684 78.8738 57.8575 79.0398 57.5813C79.2058 57.3052 79.4338 57.0714 79.7056 56.8984Z" fill="#263238"/>
<path d="M114.54 32.0164C114.395 30.9764 113.568 30.6072 112.575 31.1844L53.7108 65.1664C53.1218 65.5321 52.638 66.0446 52.3068 66.6536L46.0668 63.0136C46.4031 62.4094 46.8882 61.9011 47.476 61.5368L106.304 27.56C106.921 27.2471 107.603 27.084 108.295 27.084C108.987 27.084 109.67 27.2471 110.287 27.56L112.575 28.8704C113.108 29.2241 113.559 29.6879 113.898 30.2305C114.237 30.7732 114.456 31.3821 114.54 32.0164Z" fill="#37474F"/>
<path d="M99.1012 36.22C98.7958 36.3831 98.456 36.4715 98.1098 36.4778C97.7635 36.4841 97.4208 36.4082 97.1096 36.2564C97.0053 36.2119 96.9151 36.1401 96.8482 36.0486C96.7814 35.9571 96.7406 35.8492 96.73 35.7364C96.73 35.5908 96.73 35.05 96.73 34.8992C96.7467 34.7694 96.7966 34.6462 96.875 34.5414C96.9533 34.4366 97.0574 34.3539 97.1772 34.3012L103.485 30.6612C103.792 30.4992 104.132 30.4115 104.479 30.4052C104.826 30.3988 105.169 30.4741 105.482 30.6248C105.584 30.6713 105.672 30.7438 105.738 30.835C105.804 30.9262 105.844 31.033 105.856 31.1448C105.856 31.2956 105.856 31.8572 105.856 32.0028C105.84 32.1333 105.79 32.2574 105.712 32.3631C105.633 32.4687 105.529 32.5524 105.409 32.606L99.1012 36.22Z" fill="#9ED2FD"/>
<path opacity="0.25" d="M99.1012 36.22C98.7958 36.3831 98.456 36.4715 98.1098 36.4778C97.7635 36.4841 97.4208 36.4082 97.1096 36.2564C97.0053 36.2119 96.9151 36.1401 96.8482 36.0486C96.7814 35.9571 96.7406 35.8492 96.73 35.7364C96.73 35.5908 96.73 35.05 96.73 34.8992C96.7467 34.7694 96.7966 34.6462 96.875 34.5414C96.9533 34.4366 97.0574 34.3539 97.1772 34.3012L103.485 30.6612C103.792 30.4992 104.132 30.4115 104.479 30.4052C104.826 30.3988 105.169 30.4741 105.482 30.6248C105.584 30.6713 105.672 30.7438 105.738 30.835C105.804 30.9262 105.844 31.033 105.856 31.1448C105.856 31.2956 105.856 31.8572 105.856 32.0028C105.84 32.1333 105.79 32.2574 105.712 32.3631C105.633 32.4687 105.529 32.5524 105.409 32.606L99.1012 36.22Z" fill="black"/>
<path d="M99.1016 35.3964L105.409 31.7564C105.981 31.4236 106.007 30.9088 105.477 30.602C105.164 30.4513 104.821 30.3761 104.474 30.3824C104.127 30.3887 103.787 30.4764 103.48 30.6384L97.1724 34.2784C96.6056 34.606 96.5744 35.1208 97.11 35.4276C97.4211 35.5791 97.7635 35.6552 98.1095 35.6497C98.4555 35.6443 98.7954 35.5575 99.1016 35.3964Z" fill="#9ED2FD"/>
<path opacity="0.3" d="M99.1016 35.3964L105.409 31.7564C105.981 31.4236 106.007 30.9088 105.477 30.602C105.164 30.4513 104.821 30.3761 104.474 30.3824C104.127 30.3887 103.787 30.4764 103.48 30.6384L97.1724 34.2784C96.6056 34.606 96.5744 35.1208 97.11 35.4276C97.4211 35.5791 97.7635 35.6552 98.1095 35.6497C98.4555 35.6443 98.7954 35.5575 99.1016 35.3964Z" fill="black"/>
<path d="M49.4 85.8884C49.3877 85.5423 49.2936 85.2041 49.1255 84.9013C48.9574 84.5986 48.72 84.3399 48.4328 84.1464C48.3387 84.0769 48.2272 84.0348 48.1107 84.0247C47.9941 84.0146 47.877 84.0369 47.7724 84.0892C47.6528 84.162 47.1744 84.4272 47.0496 84.5052C46.9452 84.5843 46.863 84.6891 46.811 84.8094C46.7591 84.9297 46.7392 85.0614 46.7532 85.1916V100.646C46.7658 100.991 46.8594 101.329 47.0265 101.632C47.1936 101.934 47.4295 102.193 47.7152 102.388C47.8092 102.451 47.9179 102.489 48.0308 102.498C48.1437 102.507 48.2571 102.487 48.36 102.44C48.4952 102.372 48.9788 102.092 49.1088 102.014C49.2132 101.935 49.2954 101.83 49.3474 101.709C49.3993 101.589 49.4192 101.457 49.4052 101.327L49.4 85.8884Z" fill="#9ED2FD"/>
<path opacity="0.3" d="M49.4 85.8884C49.3877 85.5423 49.2936 85.2041 49.1255 84.9013C48.9574 84.5986 48.72 84.3399 48.4328 84.1464C48.3387 84.0769 48.2272 84.0348 48.1107 84.0247C47.9941 84.0146 47.877 84.0369 47.7724 84.0892C47.6528 84.162 47.1744 84.4272 47.0496 84.5052C46.9452 84.5843 46.863 84.6891 46.811 84.8094C46.7591 84.9297 46.7392 85.0614 46.7532 85.1916V100.646C46.7658 100.991 46.8594 101.329 47.0265 101.632C47.1936 101.934 47.4295 102.193 47.7152 102.388C47.8092 102.451 47.9179 102.489 48.0308 102.498C48.1437 102.507 48.2571 102.487 48.36 102.44C48.4952 102.372 48.9788 102.092 49.1088 102.014C49.2132 101.935 49.2954 101.83 49.3474 101.709C49.3993 101.589 49.4192 101.457 49.4052 101.327L49.4 85.8884Z" fill="black"/>
<path d="M48.6824 86.32V101.774C48.6824 102.43 48.2508 102.71 47.7152 102.404C47.4295 102.209 47.1936 101.95 47.0265 101.647C46.8594 101.345 46.7658 101.007 46.7532 100.662V85.1916C46.7532 84.5312 47.1848 84.2504 47.7152 84.5572C48.0046 84.7533 48.2433 85.0154 48.4114 85.3219C48.5796 85.6284 48.6725 85.9705 48.6824 86.32Z" fill="#9ED2FD"/>
<path opacity="0.4" d="M48.6824 86.32V101.774C48.6824 102.43 48.2508 102.71 47.7152 102.404C47.4295 102.209 47.1936 101.95 47.0265 101.647C46.8594 101.345 46.7658 101.007 46.7532 100.662V85.1916C46.7532 84.5312 47.1848 84.2504 47.7152 84.5572C48.0046 84.7533 48.2433 85.0154 48.4114 85.3219C48.5796 85.6284 48.6725 85.9705 48.6824 86.32Z" fill="black"/>
<path d="M49.4 106.6C49.3877 106.254 49.2936 105.916 49.1255 105.613C48.9574 105.31 48.72 105.051 48.4328 104.858C48.3387 104.789 48.2272 104.746 48.1107 104.736C47.9941 104.726 47.877 104.749 47.7724 104.801C47.6528 104.874 47.1744 105.139 47.0496 105.217C46.9452 105.296 46.863 105.401 46.811 105.521C46.7591 105.641 46.7392 105.773 46.7532 105.903V113.183C46.7666 113.528 46.8606 113.864 47.0276 114.166C47.1947 114.468 47.4302 114.726 47.7152 114.92C47.8061 114.987 47.9133 115.029 48.0258 115.041C48.1383 115.053 48.2518 115.034 48.3548 114.988C48.49 114.92 48.9736 114.639 49.1036 114.561C49.2076 114.483 49.2896 114.379 49.3415 114.26C49.3935 114.14 49.4136 114.009 49.4 113.88V106.6Z" fill="#9ED2FD"/>
<path opacity="0.3" d="M49.4 106.6C49.3877 106.254 49.2936 105.916 49.1255 105.613C48.9574 105.31 48.72 105.051 48.4328 104.858C48.3387 104.789 48.2272 104.746 48.1107 104.736C47.9941 104.726 47.877 104.749 47.7724 104.801C47.6528 104.874 47.1744 105.139 47.0496 105.217C46.9452 105.296 46.863 105.401 46.811 105.521C46.7591 105.641 46.7392 105.773 46.7532 105.903V113.183C46.7666 113.528 46.8606 113.864 47.0276 114.166C47.1947 114.468 47.4302 114.726 47.7152 114.92C47.8061 114.987 47.9133 115.029 48.0258 115.041C48.1383 115.053 48.2518 115.034 48.3548 114.988C48.49 114.92 48.9736 114.639 49.1036 114.561C49.2076 114.483 49.2896 114.379 49.3415 114.26C49.3935 114.14 49.4136 114.009 49.4 113.88V106.6Z" fill="black"/>
<path d="M48.6824 106.99V114.27C48.6824 114.925 48.2508 115.211 47.7152 114.899C47.4295 114.705 47.1936 114.446 47.0265 114.143C46.8594 113.84 46.7658 113.503 46.7532 113.157V105.877C46.7532 105.222 47.1848 104.936 47.7152 105.243C48.0019 105.438 48.2389 105.698 48.4069 106.001C48.5748 106.305 48.6692 106.643 48.6824 106.99Z" fill="#9ED2FD"/>
<path opacity="0.4" d="M48.6824 106.99V114.27C48.6824 114.925 48.2508 115.211 47.7152 114.899C47.4295 114.705 47.1936 114.446 47.0265 114.143C46.8594 113.84 46.7658 113.503 46.7532 113.157V105.877C46.7532 105.222 47.1848 104.936 47.7152 105.243C48.0019 105.438 48.2389 105.698 48.4069 106.001C48.5748 106.305 48.6692 106.643 48.6824 106.99Z" fill="black"/>
<path d="M66.6328 93.6988C66.6845 93.9513 66.754 94.1997 66.8408 94.4424C67.1788 95.3576 67.7872 96.2208 67.7352 97.1984C67.678 98.3008 66.8096 99.1536 66.144 100.032C65.279 101.194 64.7025 102.545 64.462 103.974C64.2215 105.402 64.3239 106.867 64.7608 108.248C65.4001 109.931 66.287 111.508 67.392 112.928L69.9036 116.49C70.663 117.488 71.6323 118.306 72.7428 118.888C74.901 120.107 77.309 120.819 79.7836 120.968C83.8512 121.242 87.8972 120.181 91.3068 117.946C94.9208 115.554 93.3296 109.418 97.0268 107.177C101.499 104.473 103.631 95.082 98.15 91.1612C98.15 91.1612 99.034 85.41 97.4116 83.9436C95.7948 82.5907 93.7941 81.7795 91.6916 81.6244C88.79 81.3228 85.8832 81.8896 82.9868 81.8792C80.0052 81.8696 77.0261 82.0554 74.0688 82.4356C73.0288 82.576 71.5624 82.9556 71.0008 83.9696C70.8422 84.3673 70.799 84.8016 70.876 85.2228C70.8679 85.891 70.6291 86.5358 70.2 87.048C69.5552 87.828 68.64 88.3532 67.9536 89.0864C67.3872 89.6978 66.9725 90.4338 66.7431 91.2351C66.5136 92.0363 66.4759 92.8803 66.6328 93.6988Z" fill="#263238"/>
<path d="M95.4928 101.998C100.173 102.128 100.781 103.126 104.972 107.276C108.456 110.724 120 121.378 120 121.378L133.832 125.06L130.567 133.5C130.567 133.5 127.447 133.37 121.207 133.364C117.374 133.364 116.043 132.506 112.185 129.932C110.219 128.617 99.1276 121.358 99.1276 121.358L95.4928 101.998Z" fill="#E6E6E6"/>
<path d="M149.136 107.994L123.786 116.927L116.797 147.087L117.364 147.69L141.466 138.7L149.698 108.597L149.136 107.994Z" fill="#9ED2FD"/>
<path opacity="0.35" d="M124.348 117.53L117.364 147.69L116.797 147.087L123.786 116.927L124.348 117.53Z" fill="black"/>
<path opacity="0.25" d="M149.698 108.597L124.348 117.53L117.364 147.69L141.466 138.7L149.698 108.597Z" fill="black"/>
<g opacity="0.2">
<path d="M137.696 132.564C137.93 133.156 139.875 134.462 142.688 134.228L143.161 132.491L137.696 132.564Z" fill="black"/>
</g>
<g opacity="0.1">
<path d="M142.064 114.774L142.272 113.76C142.386 113.204 140.899 113.495 138.949 114.416L134.373 115.799C132.423 116.719 130.582 117.406 130.463 117.962L130.255 118.971L142.064 114.774Z" fill="black"/>
</g>
<path d="M143.572 110.198C143.645 109.85 143.052 109.923 142.256 110.136L140.795 110.63C140.795 110.63 141.393 109.164 137.935 110.11C134.134 111.15 134.051 113.038 134.051 113.038C133.456 113.295 132.847 113.518 132.226 113.703C130.962 114.114 130.827 114.358 130.723 114.712L130.536 115.352L143.458 110.807C143.458 110.807 143.52 110.547 143.572 110.198Z" fill="#37474F"/>
<path d="M142.21 112.138C141.014 112.658 140.52 112.944 140.338 113.807C140.135 114.79 140.093 115.201 140.093 115.201L133.364 117.853C133.364 117.853 133.728 116.402 133.817 115.918C133.905 115.435 133.016 115.435 131.851 115.97L132.127 114.764L142.594 110.88L142.21 112.138Z" fill="#37474F"/>
<path d="M142.407 114.79C142.407 114.79 142.506 114.338 142.62 113.776C142.735 113.214 141.248 113.511 139.298 114.431L134.722 115.814C132.772 116.735 130.926 117.421 130.811 117.978L130.603 119.018L142.407 114.79Z" fill="#37474F"/>
<path d="M146.879 118.914C146.879 118.914 145.98 122.221 145.74 123.074C145.501 123.926 141.352 125.824 139.277 126.084C135.304 126.578 134.852 127.436 135.803 130.244C136.687 132.844 139.272 133.832 142.86 133.411C144.544 133.214 146.869 131.721 147.784 129.116C148.949 125.788 148.304 122.236 148.788 120.276C149.271 118.316 147.888 117.754 146.879 118.914Z" fill="#FFA8A7"/>
<path d="M107.598 164.393L104.91 165.953L103.782 166.603L88.9928 175.136L86.9752 176.28L83.5692 178.246L84.6092 167.632L86.5956 147.082V146.869L86.6892 145.948L89.2892 119.08L90.428 107.323L90.8284 103.106L90.9636 101.743H91.0364C92.2407 101.408 93.5136 101.408 94.718 101.743C94.9865 101.825 95.2474 101.929 95.498 102.055C97.058 102.83 98.098 104.338 98.9612 105.924C99.1734 106.31 99.3643 106.708 99.5332 107.115C100.174 108.656 100.669 110.254 101.01 111.888C101.691 114.904 102.57 117.988 102.918 122.85C102.973 124.101 102.907 125.355 102.721 126.594C102.486 129.872 102.447 133.16 102.601 136.443C103.038 143.879 104.91 147.248 107.598 164.393Z" fill="#E0E0E0"/>
<path d="M103.782 166.592L88.9928 175.126L86.9752 176.28L83.5692 178.246L81.224 179.598L66.9864 187.814C67.1372 182.094 67.2048 175.89 67.0696 170.03C67.028 168.069 67.0124 166.067 67.0956 164.018C67.366 156.905 68.718 149.276 73.5644 141.248L73.788 140.842C74.36 144.238 79.56 146.442 84.24 146.962L84.76 147.009C85.3476 147.066 85.956 147.092 86.5852 147.092H86.9804C90.9376 147.056 95.6228 146.125 101.02 144.3C101.54 147.316 102.06 151.273 102.617 155.901C102.866 157.981 103.119 160.198 103.376 162.552C103.48 163.868 103.641 165.214 103.782 166.592Z" fill="#FFA8A7"/>
<path d="M104.91 165.942L103.782 166.592L88.9928 175.126L86.9752 176.28L83.5692 178.246L81.224 179.598L66.9864 187.814L65.4264 188.713C65.5044 182.556 65.5564 176.524 65.5512 172.739C65.5512 169.218 65.6292 166.088 65.8216 163.311C66.2012 157.83 66.9916 153.707 68.3124 150.587C69.8621 147.172 71.6955 143.893 73.7932 140.785C73.7932 140.785 75.0932 145.174 84.8172 145.865H84.8796C85.4516 145.907 86.0548 145.933 86.6892 145.943H87.4276C99.5332 145.943 100.87 142.891 100.87 142.891C102.052 147.379 102.988 151.929 103.672 156.52C103.929 158.142 104.177 159.876 104.416 161.72C104.593 163.072 104.759 164.476 104.91 165.942Z" fill="#9ED2FD"/>
<path opacity="0.4" d="M104.91 165.942L103.782 166.592L88.9928 175.126L86.9752 176.28L83.5692 178.246L81.224 179.598L66.9864 187.814L65.4264 188.713C65.5044 182.556 65.5564 176.524 65.5512 172.739C65.5512 169.218 65.6292 166.088 65.8216 163.311C66.2012 157.83 66.9916 153.707 68.3124 150.587C69.8621 147.172 71.6955 143.893 73.7932 140.785C73.7932 140.785 75.0932 145.174 84.8172 145.865H84.8796C85.4516 145.907 86.0548 145.933 86.6892 145.943H87.4276C99.5332 145.943 100.87 142.891 100.87 142.891C102.052 147.379 102.988 151.929 103.672 156.52C103.929 158.142 104.177 159.876 104.416 161.72C104.593 163.072 104.759 164.476 104.91 165.942Z" fill="black"/>
<path opacity="0.2" d="M97.968 159.042C97.968 159.042 96.616 163.337 90.9272 165.745L90.6568 167.06L88.9928 175.126L86.9752 176.28L88.1816 167.383L88.7016 163.514C92.2173 163.149 95.495 161.567 97.968 159.042Z" fill="black"/>
<path d="M80.6676 102.986L74.9476 103.589C71.162 104.515 69.4512 106.189 69.0612 109.533C68.8792 111.093 67.938 115.253 69.2588 120.453C70.4548 125.174 73.6476 136.729 73.6476 136.729C73.6476 136.729 66.3 146.318 64.9688 162.76C78.416 171.538 99.0444 166.821 104.624 161.517C104.156 156.494 100.948 142.709 100.547 138.232C100.547 138.232 100.844 131.238 101.4 128.206C105.654 123.562 105.113 119.122 103.204 115.539C99.6788 108.924 94.3644 103.111 92.6432 103.116L80.6676 102.986Z" fill="#9ED2FD"/>
<path opacity="0.7" d="M80.6676 102.986L74.9476 103.589C71.162 104.515 69.4512 106.189 69.0612 109.533C68.8792 111.093 67.938 115.253 69.2588 120.453C70.4548 125.174 73.6476 136.729 73.6476 136.729C73.6476 136.729 66.3 146.318 64.9688 162.76C78.416 171.538 99.0444 166.821 104.624 161.517C104.156 156.494 100.948 142.709 100.547 138.232C100.547 138.232 100.844 131.238 101.4 128.206C105.654 123.562 105.113 119.122 103.204 115.539C99.6788 108.924 94.3644 103.111 92.6432 103.116L80.6676 102.986Z" fill="#9ED2FD"/>
<path d="M85.6232 138.788C85.6232 138.892 85.6232 138.986 85.6232 139.064V139.199C85.6266 139.242 85.6266 139.286 85.6232 139.329C85.4256 141.409 85.1916 143.619 84.942 145.87C84.942 145.87 84.942 145.87 84.942 145.902C84.9056 146.266 84.864 146.63 84.8224 146.999C84.058 153.785 83.148 161.039 82.446 167.643C82.2744 169.244 82.1184 170.804 81.978 172.323C81.7596 174.595 81.5256 177.086 81.2864 179.603L67.0488 187.819L65.4888 188.718L61.5108 191.012C62.3116 183.134 64.1784 164.882 65.2184 156.645C65.338 155.714 65.494 154.783 65.6708 153.858L65.8112 153.182L65.8736 152.906C65.9412 152.594 66.0088 152.292 66.0816 151.986C66.1544 151.679 66.222 151.419 66.2896 151.143C66.4508 150.514 66.6224 149.895 66.8096 149.292C66.898 149.001 66.9812 148.71 67.0748 148.424C67.1684 148.138 67.2464 147.852 67.34 147.571C67.5272 147.009 67.7092 146.458 67.9016 145.922C67.8994 145.912 67.8994 145.902 67.9016 145.891C67.99 145.636 68.0836 145.371 68.1772 145.132C68.302 144.778 68.432 144.435 68.562 144.092L68.718 143.681C68.796 143.494 68.8636 143.312 68.9364 143.13C69.1912 142.49 69.4564 141.882 69.6904 141.315C69.7424 141.19 69.7996 141.066 69.8516 140.946C69.9036 140.826 69.9868 140.65 70.0492 140.504C70.2052 140.14 70.3612 139.802 70.512 139.464C70.5744 139.318 70.642 139.178 70.7044 139.043C70.7668 138.908 70.8552 138.731 70.9228 138.585L71.0216 138.377L71.1256 138.174C71.1324 138.148 71.1448 138.123 71.162 138.102C71.1762 138.064 71.1936 138.027 71.214 137.992C71.2266 137.969 71.237 137.945 71.2452 137.92C71.2885 137.846 71.3267 137.77 71.3596 137.691L71.708 137.015C71.708 136.978 71.7444 136.952 71.7548 136.921L71.89 136.672L67.5636 118.732L65.4108 109.819V109.673C65.5096 108.883 66.17 105.154 69.9764 104.021C72.1254 103.466 74.3266 103.138 76.544 103.043C77.3968 102.991 78.1664 102.97 78.7956 102.955H79.7888H80.3868C80.3882 102.967 80.3882 102.979 80.3868 102.991C80.418 103.069 80.5064 103.303 80.6416 103.667C80.6562 103.728 80.6771 103.787 80.704 103.844C80.7045 103.853 80.7045 103.861 80.704 103.87C81.64 106.439 84.266 113.916 85.5712 120.411C85.8 121.534 85.9872 122.632 86.1224 123.672C86.5124 126.922 86.2264 132.361 85.6232 138.788Z" fill="#FAFAFA"/>
<path d="M72.0304 128.081C72.0304 128.081 72.5504 125.518 73.3148 119.98C74.204 113.594 73.8868 110.438 72.9248 108.42L67.5012 118.763L71.8276 136.703C71.8276 136.703 67.3816 144.846 65.5876 153.863C69.8412 141.846 74.4952 138.263 74.4952 138.263L72.0304 128.081Z" fill="#E6E6E6"/>
<path d="M91.0312 98.982C92.716 98.982 92.9136 99.2628 94.3644 101.208C95.2276 102.367 100.693 111.389 100.693 111.389C100.693 111.389 96.3456 105.669 93.0644 103.932C92.4327 103.562 91.7492 103.289 91.0364 103.121L91.0312 98.982Z" fill="#EBEBEB"/>
<path d="M78.572 118.154C78.572 117.634 78.52 116.511 78.4316 115.097C78 108.16 77.792 101.92 80.132 101.4L80.3348 102.357C78.6292 102.726 79.1908 111.654 79.404 115.014C79.4976 116.459 79.5704 117.614 79.5444 118.175L78.572 118.154Z" fill="#9ED2FD"/>
<path d="M70.772 72.7376L74.412 75.7172C74.6099 75.4907 74.7594 75.2262 74.8515 74.9399C74.9436 74.6536 74.9763 74.3515 74.9476 74.0521C74.9189 73.7527 74.8294 73.4623 74.6845 73.1988C74.5397 72.9352 74.3425 72.7039 74.1052 72.5192C73.6266 72.1235 73.0149 71.9256 72.3952 71.9662C71.7755 72.0068 71.1948 72.2828 70.772 72.7376Z" fill="#263238"/>
<path d="M80.2776 99.424C80.2776 97.1412 74.958 93.704 72.2124 88.9044C69.4668 84.1048 70.8396 76.2112 74.6044 74.9996C74.6356 74.9996 74.7396 73.9856 74.7552 73.9128C74.9634 72.997 75.3143 72.1196 75.7952 71.3128C77.3292 68.6712 80.5792 66.6328 83.5952 66.2064C95.5188 64.4696 101 69.1028 103.189 74.1988C103.898 75.9131 104.215 77.7646 104.114 79.6172C104.053 80.9779 103.548 82.2811 102.677 83.3279C101.806 84.3748 100.616 85.1079 99.2888 85.4152L80.2776 99.424Z" fill="#263238"/>
<path d="M96.8188 72.4932C99.1536 73.5332 101.374 77.0848 101.338 87.0792C101.306 95.5552 98.7064 97.6976 97.396 98.3268C96.0856 98.956 93.522 98.6336 91.0312 98.254V103.121C91.0312 103.121 92.898 104.957 92.2428 106.111C91.5876 107.266 89.1696 108.243 85.41 107.063C81.1512 105.726 80.1788 102.903 80.1788 102.903L80.08 92.222C80.08 92.222 78.65 93.7248 76.128 91.52C74.048 89.6948 73.2992 86.5696 74.8644 84.8536C76.4296 83.1376 78.4368 83.0024 80.2464 84.9212L81.5464 84.2348C83.8656 83.9644 87.2664 83.5744 89.7728 82.3108C96.2 79.04 96.8656 75.4936 96.8188 72.4932Z" fill="#FFA8A7"/>
<path d="M80.2828 83.538L80.314 88.218C80.6146 88.226 80.9136 88.1724 81.1926 88.0605C81.4717 87.9487 81.725 87.781 81.9368 87.5676C82.1487 87.3543 82.3147 87.0999 82.4246 86.8201C82.5345 86.5402 82.5861 86.2409 82.576 85.9404C82.5704 85.3236 82.3302 84.7321 81.9043 84.2859C81.4784 83.8397 80.8987 83.5723 80.2828 83.538Z" fill="#263238"/>
<path d="M97.0372 84.2036C97.0394 84.4235 97.1061 84.6379 97.229 84.8202C97.3519 85.0026 97.5256 85.1448 97.7286 85.2294C97.9316 85.3139 98.155 85.3369 98.371 85.2957C98.587 85.2545 98.7861 85.1507 98.9437 84.9974C99.1013 84.844 99.2104 84.6477 99.2575 84.4329C99.3046 84.2181 99.2876 83.9943 99.2086 83.789C99.1296 83.5838 98.9921 83.4063 98.8132 83.2785C98.6343 83.1506 98.4217 83.0782 98.202 83.07C98.0507 83.0666 97.9003 83.0933 97.7594 83.1486C97.6186 83.204 97.4902 83.2869 97.3817 83.3924C97.2733 83.4979 97.187 83.624 97.1278 83.7633C97.0686 83.9026 97.0378 84.0523 97.0372 84.2036Z" fill="black"/>
<path d="M88.0672 84.7028C88.0581 84.864 88.0808 85.0255 88.1342 85.1778C88.1876 85.3302 88.2705 85.4706 88.3782 85.5909C88.486 85.7112 88.6164 85.809 88.762 85.8788C88.9076 85.9486 89.0655 85.989 89.2268 85.9976C89.3904 85.999 89.5527 85.968 89.7044 85.9065C89.856 85.845 89.994 85.7541 90.1105 85.6391C90.2269 85.5241 90.3195 85.3873 90.3829 85.2364C90.4463 85.0856 90.4793 84.9237 90.48 84.76C90.4851 84.6016 90.459 84.4437 90.4031 84.2954C90.3472 84.147 90.2626 84.0112 90.1542 83.8955C90.0458 83.7799 89.9157 83.6867 89.7713 83.6214C89.6269 83.556 89.471 83.5197 89.3126 83.5146C89.1542 83.5095 88.9963 83.5356 88.8479 83.5915C88.6996 83.6474 88.5637 83.732 88.4481 83.8404C88.3325 83.9488 88.2393 84.0789 88.1739 84.2233C88.1086 84.3677 88.0723 84.5236 88.0672 84.682V84.7028Z" fill="black"/>
<path d="M100.012 82.108L97.1152 80.9588C97.1822 80.7639 97.2887 80.585 97.428 80.4332C97.5673 80.2813 97.7365 80.1599 97.9249 80.0764C98.1133 79.993 98.3169 79.9493 98.5229 79.9481C98.729 79.9469 98.9331 79.9883 99.1224 80.0696C99.5041 80.2302 99.8093 80.5314 99.9748 80.9109C100.14 81.2904 100.154 81.7191 100.012 82.108Z" fill="black"/>
<path d="M94.2916 83.2884L94.146 90.2252L97.8744 89.3984L94.2916 83.2884Z" fill="#F28F8F"/>
<path d="M89.8976 91.6396L93.5376 92.768C93.4846 93.0161 93.3812 93.2507 93.2338 93.4573C93.0864 93.6638 92.8981 93.8378 92.6806 93.9684C92.4631 94.0991 92.2211 94.1837 91.9696 94.2169C91.718 94.2502 91.4624 94.2313 91.2184 94.1616C90.7189 93.9879 90.3043 93.6305 90.0589 93.162C89.8136 92.6935 89.7559 92.1491 89.8976 91.6396Z" fill="#B16668"/>
<path d="M91.91 94.224C91.9059 93.7178 91.7019 93.2338 91.3425 92.8773C90.9831 92.5208 90.4974 92.3208 89.9912 92.3208C89.941 92.3182 89.8906 92.3182 89.8404 92.3208C89.8591 92.7271 89.9994 93.1184 90.2433 93.4439C90.4872 93.7693 90.8233 94.014 91.208 94.146C91.434 94.2206 91.6731 94.2471 91.91 94.224Z" fill="#F28F8F"/>
<path d="M91.0312 98.28C88.4052 97.968 82.992 96.46 82.1132 94.2604C82.4653 95.3645 83.141 96.3374 84.0528 97.0528C85.6856 98.4568 91.0312 99.918 91.0312 99.918V98.28Z" fill="#F28F8F"/>
<path d="M80.1528 99.008C79.4664 98.8676 78.858 99.1692 78.2964 100.116C77.7348 101.062 76.5024 103.08 76.5024 103.08C76.5024 103.08 75.8628 109.73 76.5024 111.4C77.0536 112.835 83.1324 118.217 83.1324 118.217C83.1324 118.217 81.5464 124.192 81.4892 126.152C81.432 128.112 85.1292 135.554 85.5764 139.36C85.5764 139.36 86.892 127.4 86.3252 123.089C85.3476 115.617 81.8428 105.966 80.1892 102.898L80.1528 99.008Z" fill="#EBEBEB"/>
<path d="M83.8708 123.76C83.4651 122.795 82.9871 121.861 82.4408 120.968C81.5776 119.538 80.5116 118.165 79.5496 117.811C79.4038 117.753 79.2489 117.722 79.092 117.718H79.04C78.8816 117.727 78.7264 117.765 78.5824 117.832C77.8232 118.17 77.0224 119.205 76.3724 120.396C75.7067 121.591 75.1582 122.849 74.7344 124.15C74.4848 124.956 74.594 126.667 74.8904 128.622C75.4728 132.418 76.7676 137.16 77.4904 138.096C78.0202 138.75 78.6461 139.32 79.3468 139.786C78.9177 140.07 78.4548 140.299 77.9688 140.468C77.6939 140.568 77.4034 140.619 77.1108 140.618V141.3H77.194C77.5031 141.295 77.8098 141.244 78.104 141.149C78.7856 140.928 79.4292 140.603 80.0124 140.187C80.628 140.553 81.2962 140.823 81.9936 140.988C82.322 141.066 82.6616 141.087 82.9972 141.05L82.914 140.374C82.6228 140.399 82.3295 140.376 82.0456 140.306C81.5453 140.176 81.0633 139.984 80.6104 139.734C81.2703 139.209 81.8486 138.589 82.3264 137.894C82.732 137.275 83.2312 135.143 83.6056 132.694C83.8344 131.232 84.0216 129.662 84.1256 128.232C84.24 126.235 84.188 124.524 83.8708 123.76ZM81.7232 137.519C81.2353 138.223 80.6365 138.843 79.95 139.355C79.2207 138.904 78.5707 138.337 78.026 137.675C77.35 136.796 76.102 132.168 75.5404 128.518C75.2544 126.672 75.1504 125.076 75.3792 124.358C75.8033 123.041 76.3645 121.772 77.0536 120.572C77.7712 119.335 78.5356 118.425 79.066 118.404C79.6952 118.404 80.7144 119.543 81.666 121.004C81.8584 121.29 82.0404 121.602 82.2172 121.914C82.6051 122.586 82.9524 123.281 83.2572 123.994C83.5432 124.701 83.5744 126.298 83.4444 128.154C83.3716 129.194 83.2572 130.281 83.1116 131.362C82.7164 134.186 82.16 136.833 81.7232 137.504V137.519Z" fill="#455A64"/>
<path d="M83.928 140.65C83.9361 140.848 83.8851 141.044 83.7815 141.214C83.6779 141.383 83.5263 141.518 83.3459 141.602C83.1656 141.685 82.9646 141.713 82.7684 141.682C82.5722 141.651 82.3896 141.562 82.2438 141.427C82.0979 141.292 81.9954 141.117 81.9492 140.924C81.903 140.731 81.9151 140.528 81.9841 140.342C82.0531 140.156 82.1758 139.994 82.3367 139.878C82.4976 139.761 82.6895 139.695 82.888 139.688C83.1534 139.678 83.4118 139.773 83.6067 139.954C83.8017 140.134 83.9172 140.384 83.928 140.65Z" fill="#263238"/>
<path d="M78.0988 140.92C78.108 141.119 78.0579 141.316 77.9549 141.486C77.852 141.656 77.7008 141.792 77.5206 141.876C77.3403 141.96 77.1392 141.988 76.9427 141.958C76.7462 141.927 76.5631 141.839 76.4168 141.705C76.2704 141.57 76.1674 141.395 76.1207 141.202C76.074 141.008 76.0858 140.806 76.1546 140.619C76.2234 140.432 76.3461 140.27 76.5071 140.154C76.6681 140.037 76.8601 139.971 77.0588 139.963C77.19 139.958 77.3209 139.978 77.4442 140.023C77.5674 140.068 77.6806 140.137 77.7772 140.226C77.8738 140.315 77.9519 140.422 78.0071 140.541C78.0623 140.66 78.0935 140.789 78.0988 140.92Z" fill="#263238"/>
<path d="M84.0424 128.222L83.4652 128.18C83.4063 128.175 83.3518 128.147 83.3131 128.102C83.2743 128.058 83.2543 128 83.2572 127.941C83.3768 126.032 83.3144 124.628 83.0804 124.067C82.0716 121.602 79.9604 118.513 79.0712 118.55C78.182 118.586 76.3412 121.846 75.5404 124.384C75.3584 124.966 75.4156 126.37 75.6912 128.263C75.7003 128.321 75.6863 128.38 75.6522 128.428C75.6182 128.475 75.5669 128.508 75.5092 128.518L74.9372 128.606C74.8772 128.614 74.8168 128.597 74.7691 128.56C74.7213 128.523 74.6902 128.469 74.6824 128.409C74.3652 126.287 74.3288 124.831 74.568 124.077C74.9944 122.715 77.0068 117.614 79.0296 117.53C81.0524 117.447 83.4912 122.356 84.032 123.682C84.3284 124.41 84.4168 125.866 84.2816 128.003C84.2776 128.063 84.2505 128.12 84.2059 128.16C84.1613 128.201 84.1027 128.223 84.0424 128.222Z" fill="#9ED2FD"/>
<path d="M71.5728 103.953C67.7664 103.891 66.0088 105.175 63.596 108.404C61.6824 110.968 54.236 124.821 51.766 128.866L38.3188 121.68C35.5992 119.803 34.7204 116.839 32.9992 115.107C31.278 113.376 29.4944 113.027 27.6016 111.597C25.7088 110.167 24.9392 109.054 24.3932 110.391C23.8472 111.727 25.9532 113.89 26.3536 114.426C26.754 114.962 28.8652 116.152 26.1248 116.194C23.3844 116.236 17.9608 113.396 16.64 112.892C15.3192 112.388 15.3972 113.963 16.0472 114.972C16.6972 115.981 16.666 118.83 17.7632 120.479C18.9228 122.226 19.5572 122.985 22.1416 124.119C24.544 125.159 29.588 125.575 32.1412 127.171C34.6944 128.768 41.0228 134.394 44.8708 137.769C49.764 142.059 53.1388 142.844 55.8636 140.27C58.5104 137.498 61.1936 134.248 62.504 132.6C66.0348 128.154 71.6196 118.04 71.6196 118.04C71.6196 118.04 74.0376 112.84 71.5728 103.953Z" fill="#FFA8A7"/>
<path d="M72.098 103.574C66.4924 103.574 64.818 105.602 61.9476 110.287C59.0772 114.972 51.714 128.383 51.714 128.383L41.1112 122.829C41.1112 122.829 39.2028 127.031 37.1748 131.362C37.1748 131.362 43.1756 136.562 46.0148 139.022C48.854 141.482 52.6188 143.411 56.108 140.4C59.8364 137.186 71.9264 120.489 71.9264 120.489C74.7968 115.279 74.1572 107.38 72.098 103.574Z" fill="#F0F0F0"/>
<path d="M51.714 128.383C53.4456 130.421 55.5412 132.714 55.4476 134.519C55.4476 134.519 56.6332 132.917 52.468 127.015L51.714 128.383Z" fill="#E0E0E0"/>
<path d="M31.6576 78.3744L27.3208 80.86L27.3364 75.8784L24.0916 74.0064L16.5256 78.3744V87.1104L8.9596 91.4784V100.214L12.2044 102.086L16.5256 99.5904V104.588L19.7704 106.46L27.3364 102.086V93.3504L34.9024 88.9824V80.2464L31.6576 78.3744Z" fill="#9ED2FD"/>
<path d="M12.2044 93.3504V102.086L19.7704 97.7184V106.46L27.3364 102.086V93.3504L34.9024 88.9824V80.2464L27.3104 84.63L27.3364 75.8784L19.7704 80.2464V88.9824L12.2044 93.3504Z" fill="#9ED2FD"/>
<g opacity="0.2">
<path d="M12.2044 102.086L8.9596 100.214V91.4784L12.2044 93.3504V102.086Z" fill="black"/>
<path d="M19.7704 80.2464L16.5256 78.3744V87.1104L19.7704 88.9824V80.2464Z" fill="black"/>
<path d="M19.7704 106.46L16.5256 104.588V99.5904L19.7704 97.7184V106.46Z" fill="black"/>
</g>
<g opacity="0.5">
<path d="M19.7704 88.9824L16.5256 87.1104L8.9596 91.4784L12.2044 93.3504L19.7704 88.9824Z" fill="#9ED2FD"/>
<path d="M27.3364 75.8784L24.0916 74.0064L16.5256 78.3744L19.7704 80.2464L27.3364 75.8784Z" fill="#9ED2FD"/>
<path d="M34.9024 80.2464L31.6576 78.3744L27.3208 80.86L27.3104 84.63L34.9024 80.2464Z" fill="#9ED2FD"/>
</g>
<path d="M156.104 60.84C155.967 60.721 155.819 60.6148 155.662 60.5228C155.111 60.1952 152.615 58.76 152.485 58.682C151.164 57.8396 149.074 58.0268 147.212 58.968C144.544 60.3148 142.324 63.1592 140.629 67.8964C140.629 67.8964 138.913 66.664 138.356 66.3364C136.978 65.5824 135.366 65.9464 133.552 67.1268C131.508 68.458 130.114 70.1844 128.84 72.7948V72.8416C127.736 75.0581 127.133 77.4901 127.072 79.9656C127.072 85.4412 129.314 88.0516 132.231 90.012C133.063 90.5736 135.262 91.754 135.481 91.8996C137.241 93.062 139.188 93.9133 141.237 94.4164L144.113 95.0872L146.988 91.0988C149.082 88.158 151.004 85.0988 152.745 81.9364C155.662 76.6064 157.945 71.3856 157.903 65.9308C157.862 63.596 157.191 61.88 156.104 60.84Z" fill="#9ED2FD"/>
<path opacity="0.3" d="M156.104 60.84C155.967 60.721 155.819 60.6148 155.662 60.5228C155.111 60.1952 152.615 58.76 152.485 58.682C151.164 57.8396 149.074 58.0268 147.212 58.968C144.544 60.3148 142.324 63.1592 140.629 67.8964C140.629 67.8964 138.913 66.664 138.356 66.3364C136.978 65.5824 135.366 65.9464 133.552 67.1268C131.508 68.458 130.114 70.1844 128.84 72.7948V72.8416C127.736 75.0581 127.133 77.4901 127.072 79.9656C127.072 85.4412 129.314 88.0516 132.231 90.012C133.063 90.5736 135.262 91.754 135.481 91.8996C137.241 93.062 139.188 93.9133 141.237 94.4164L144.113 95.0872L146.988 91.0988C149.082 88.158 151.004 85.0988 152.745 81.9364C155.662 76.6064 157.945 71.3856 157.903 65.9308C157.862 63.596 157.191 61.88 156.104 60.84Z" fill="black"/>
<path d="M156.104 60.84C155.967 60.721 155.819 60.6148 155.662 60.5228C155.111 60.1952 152.615 58.76 152.485 58.682C151.164 57.8396 149.074 58.0268 147.212 58.968C144.544 60.3148 142.324 63.1592 140.629 67.8964C140.629 67.8964 138.913 66.664 138.356 66.3364C136.978 65.5824 135.366 65.9464 133.552 67.1268C131.508 68.458 130.114 70.1844 128.84 72.7948V72.8416C128.783 72.956 128.736 73.0704 128.684 73.1848L150.524 85.7792C151.299 84.5208 152.053 83.2468 152.771 81.9364C155.688 76.6064 157.971 71.3856 157.929 65.9308C157.862 63.596 157.191 61.88 156.104 60.84Z" fill="#9ED2FD"/>
<path opacity="0.15" d="M156.104 60.84C155.967 60.721 155.819 60.6148 155.662 60.5228C155.111 60.1952 152.615 58.76 152.485 58.682C151.164 57.8396 149.074 58.0268 147.212 58.968C144.544 60.3148 142.324 63.1592 140.629 67.8964C140.629 67.8964 138.913 66.664 138.356 66.3364C136.978 65.5824 135.366 65.9464 133.552 67.1268C131.508 68.458 130.114 70.1844 128.84 72.7948V72.8416C128.783 72.956 128.736 73.0704 128.684 73.1848L150.524 85.7792C151.299 84.5208 152.053 83.2468 152.771 81.9364C155.688 76.6064 157.971 71.3856 157.929 65.9308C157.862 63.596 157.191 61.88 156.104 60.84Z" fill="black"/>
<path d="M140.613 67.8756L143.536 71.6872L148.247 66.1128L142.922 63.0396C141.974 64.56 141.199 66.1822 140.613 67.8756Z" fill="#9ED2FD"/>
<path opacity="0.3" d="M140.613 67.8756L143.536 71.6872L148.247 66.1128L142.922 63.0396C141.974 64.56 141.199 66.1822 140.613 67.8756Z" fill="black"/>
<path d="M156.104 60.84C154.83 59.7012 152.511 59.8 150.462 60.84C147.67 62.2544 145.361 65.3068 143.634 70.4756C141.908 67.3036 139.599 67.2048 136.807 69.0196C134.758 70.3508 133.364 72.0772 132.096 74.6876L132.07 74.7344C130.97 76.954 130.368 79.3871 130.307 81.8636C130.307 87.3392 132.553 89.9496 135.465 91.91C137.226 93.0724 139.173 93.9237 141.222 94.4268L144.097 95.0976L146.973 91.1092C149.066 88.1684 150.988 85.1092 152.729 81.9468C155.646 76.6168 157.929 71.396 157.888 65.9412C157.862 63.596 157.191 61.88 156.104 60.84Z" fill="#9ED2FD"/>
<g opacity="0.07">
<path d="M153.65 60.32C154.451 60.2833 155.239 60.5362 155.87 61.0324C155.881 61.0548 155.897 61.0744 155.917 61.0896C156.988 62.0672 157.586 63.804 157.591 65.9672C157.591 71.6612 154.991 77.1888 152.469 81.8376C150.741 84.9897 148.831 88.0386 146.749 90.9688L143.988 94.8116L141.3 94.1824C139.281 93.6866 137.363 92.8495 135.626 91.7072C133.026 89.9392 130.572 87.5472 130.593 81.8896C130.648 79.4567 131.232 77.0648 132.304 74.88V74.8332C133.583 72.2072 134.961 70.5484 136.916 69.2796C137.824 68.606 138.908 68.2088 140.036 68.1356C141.357 68.1356 142.444 68.952 143.359 70.6316C143.382 70.6766 143.417 70.7142 143.46 70.74C143.503 70.7657 143.553 70.7787 143.603 70.7772H143.629C143.683 70.7722 143.734 70.7519 143.776 70.7187C143.819 70.6855 143.851 70.6409 143.868 70.59C145.517 65.6552 147.706 62.556 150.556 61.1156C151.507 60.6172 152.56 60.345 153.634 60.32M153.634 60.0444C152.517 60.0674 151.421 60.3486 150.431 60.866C147.638 62.2804 145.33 65.3328 143.603 70.5016C142.605 68.6608 141.409 67.8548 140.036 67.8548C138.858 67.9323 137.726 68.3455 136.776 69.0456C134.727 70.3768 133.333 72.1032 132.064 74.7136L132.038 74.7604C130.938 76.98 130.337 79.4131 130.276 81.8896C130.276 87.3652 132.522 89.9756 135.434 91.936C137.195 93.0984 139.142 93.9497 141.19 94.4528L144.066 95.1236L146.942 91.1352C149.035 88.1944 150.957 85.1352 152.698 81.9728C155.615 76.6428 157.898 71.422 157.856 65.9672C157.856 63.622 157.175 61.88 156.088 60.8816C155.402 60.3225 154.534 60.0356 153.65 60.0756L153.634 60.0444Z" fill="black"/>
</g>
<path d="M155.787 75.582L150.192 78.8164L148.112 71.2504C148.082 71.136 148.015 71.035 147.92 70.9641C147.826 70.8932 147.71 70.8567 147.592 70.8604C147.47 70.8579 147.351 70.8982 147.256 70.9742C147.161 71.0502 147.096 71.1572 147.072 71.2764L143.832 86.0756L141.107 78.6188C141.102 78.4809 141.042 78.3508 140.94 78.2572C140.839 78.1636 140.704 78.1141 140.566 78.1196C140.428 78.1251 140.298 78.1852 140.205 78.2866C140.111 78.388 140.062 78.5225 140.067 78.6604L138.226 85.1968L132.07 88.7536C132.272 89.048 132.491 89.331 132.725 89.6012L138.965 86.008C139.085 85.938 139.175 85.8245 139.214 85.6908L140.665 80.5324L143.458 88.1556C143.495 88.2622 143.566 88.3539 143.659 88.4168C143.753 88.4796 143.865 88.5103 143.978 88.504C144.093 88.4982 144.203 88.4542 144.291 88.3789C144.378 88.3035 144.438 88.2012 144.461 88.088L147.633 73.6216L149.308 79.7628C149.327 79.8418 149.366 79.915 149.419 79.9766C149.472 80.0381 149.539 80.0863 149.615 80.1171C149.69 80.148 149.772 80.1607 149.853 80.1543C149.934 80.1478 150.013 80.1224 150.082 80.08L155.054 77.2148C155.34 76.6688 155.568 76.128 155.787 75.582Z" fill="#9ED2FD"/>
<path d="M179.27 214.651C179.057 215.356 179.039 216.105 179.218 216.819C179.426 217.256 180.726 218.691 183.378 219.211C186.03 219.731 189.675 219.211 191.246 219.118C192.816 219.024 197.746 219.638 199.311 219.835C201.776 220.168 203.668 219.627 204.589 218.738C204.738 218.559 204.848 218.351 204.911 218.127C204.975 217.903 204.991 217.668 204.958 217.438C204.953 216.845 204.865 216.255 204.698 215.686L179.27 214.651Z" fill="#263238"/>
<path d="M204.292 213.106C204.339 213.309 204.386 213.517 204.428 213.725C204.668 214.771 204.743 215.849 204.651 216.918C204.334 217.698 203.466 218.13 202.764 218.348C200.907 218.941 199.498 218.868 197.444 218.457C195.378 218.156 193.291 218.027 191.204 218.072C189.587 218.182 187.361 218.494 185.744 218.343C184.369 218.286 183.012 218.008 181.724 217.521C180.648 217.064 179.546 216.481 179.28 215.358C178.963 213.018 179.946 211.988 181.054 211.333C182.161 210.678 183.737 210.73 185.422 210.621C186.945 210.517 188.058 210.517 189.415 210.413C190.589 210.356 191.755 210.194 192.899 209.929C193.939 209.607 194.979 208.302 195.406 208.255C195.406 208.255 202.192 208.203 202.836 208.255C203.585 208.317 203.814 210.636 203.908 211.141C203.98 211.536 203.996 211.962 204.1 212.342C204.168 212.597 204.23 212.852 204.292 213.106Z" fill="#37474F"/>
<path d="M183.383 218.031C183.17 216.346 182.863 212.696 185.983 210.584H186.373C184.972 210.179 183.484 210.179 182.083 210.584C179.603 211.245 178.5 213.252 179.119 215.374C179.13 215.353 179.681 217.407 183.383 218.031Z" fill="#FAFAFA"/>
<path d="M192.436 210.049C191.433 210.938 191.084 212.961 191.084 212.961C190.954 213.72 189.582 213.834 189.712 213.101C189.921 212.093 190.326 211.136 190.902 210.283C191.373 210.035 191.913 209.952 192.436 210.049Z" fill="#FAFAFA"/>
<path d="M189.623 210.397C188.866 211.138 188.372 212.106 188.214 213.153C188.074 213.881 186.93 213.871 187.013 213.153C187.013 213.153 187.143 211.359 188.214 210.522C188.421 210.389 188.658 210.308 188.903 210.287C189.149 210.265 189.396 210.303 189.623 210.397Z" fill="#FAFAFA"/>
<path d="M203.044 203.32C203.044 203.32 202.862 207.683 202.623 209.113C202.478 209.966 201.36 210.86 198.578 210.766C196.622 210.699 195.083 210.86 195.161 209.331L195.333 204.875L203.044 203.32Z" fill="#FFA8A7"/>
<path d="M207.407 193.014C207.308 194.204 207.147 195.281 207.636 196.591C208.333 198.474 209.81 199.337 210.678 200.075C211.592 200.98 212.435 201.954 213.2 202.987C214.053 204.027 214.276 204.646 215.556 205.78C216.193 206.27 216.947 206.587 217.744 206.699C218.54 206.812 219.352 206.715 220.1 206.419C221.208 205.946 221.593 205.572 221.525 203.871C221.458 202.171 216.039 201.594 216.039 201.594L207.407 193.014Z" fill="#263238"/>
<path d="M220.823 198.806C221.286 198.973 221.4 199.81 221.473 201.474C221.525 202.732 222.082 204.594 220.256 205.369C218.785 206.008 216.434 205.582 215.441 204.396C214.204 202.914 213.361 201.609 211.593 199.805C210.033 198.245 208.473 197.725 207.782 194.579C207.34 192.561 207.688 191.729 209.113 191.152C211.073 190.356 214.146 192.951 215.686 193.362C217.006 193.71 220.36 198.64 220.823 198.806Z" fill="#37474F"/>
<path d="M215.686 193.362L215.426 193.274C214.549 193.306 213.696 193.568 212.952 194.032C212.207 194.496 211.597 195.147 211.182 195.92C210.922 196.466 211.702 196.893 212.222 196.466C213.314 194.386 215.561 193.939 216.46 193.84C216.239 193.628 215.975 193.465 215.686 193.362Z" fill="#FAFAFA"/>
<path d="M216.949 194.308C216.126 194.386 215.335 194.666 214.647 195.124C213.959 195.583 213.396 196.205 213.008 196.934C212.748 197.454 213.554 197.907 214.048 197.454C214.419 196.804 214.927 196.242 215.538 195.808C216.149 195.374 216.847 195.079 217.584 194.943C217.36 194.735 217.152 194.511 216.949 194.308Z" fill="#FAFAFA"/>
<path d="M221.088 195.801L220.823 199.311C220.823 199.311 218.592 200.938 215.394 199.446C215.301 199.254 215.03 196.113 215.03 196.113L221.088 195.801Z" fill="#FFA8A7"/>
<path d="M208.681 196.893C208.681 196.893 208.832 193.164 214.131 192.65L214.438 192.811C213.835 191.876 212.909 191.195 211.838 190.897C210.08 190.445 208.686 190.897 207.761 192.01C206.835 193.123 207.766 196.17 208.681 196.893Z" fill="#FAFAFA"/>
<path d="M222.633 172.422C221.874 166.28 221.593 162.859 221.593 162.859C221.593 162.859 221.442 154.211 221.967 146.219C222.196 142.714 222.316 138.835 222.388 135.299C222.485 131.405 222.175 127.511 221.463 123.682C221.463 123.682 194.272 118.274 193.934 128.248C193.523 140.208 193.575 160.649 193.112 168.454C192.858 172.838 193.3 176.472 193.575 184.99C193.799 192.052 193.731 209.43 193.731 209.43C196.726 213.543 203.798 210.408 203.798 210.408C203.798 210.408 205.982 186.004 206.305 180.96C206.648 175.536 206.076 172.791 206.076 172.791L208.879 147.524C208.879 147.524 209.092 155.631 209.331 160.004C209.57 164.377 210.21 167.066 211.349 175.224C212.337 182.307 214.438 200.382 214.438 200.382C218.078 202.535 221.593 200.382 221.593 200.382C221.593 200.382 223.392 178.563 222.633 172.422Z" fill="#455A64"/>
<path d="M218.92 137.524C218.92 137.524 215.514 141.872 211.12 143.738C211.12 143.738 209.217 159.021 209.232 158.72L208.738 143.338C208.738 143.338 215.28 140.447 218.92 137.524Z" fill="#37474F"/>
<path d="M218.826 88.4C221.754 87.7448 225.066 89.8352 227.271 94.4996C229.403 98.9612 235.227 110.23 235.368 113.386C235.518 116.657 220.969 126.578 221.328 126.386C221.442 126.329 218.816 118.882 218.816 118.882L225.883 113.032L222.04 105.118L218.826 88.4Z" fill="#FFA8A7"/>
<path d="M217.287 87.698C219.752 87.3964 224.219 88.3272 225.924 91.2912C228.4 95.5812 230.656 100.542 233.532 106.954C233.532 106.954 231.4 111.571 225.264 112.008L221.588 105.56L217.287 87.698Z" fill="#37474F"/>
<path d="M204.88 83.8344L205.306 92.9344L214.323 92.4508L214.048 81.8792L204.88 83.8344Z" fill="#FFA8A7"/>
<path d="M223.179 92.2792C222.42 89.7988 219.799 87.7552 216.486 87.6564C215.748 87.6564 214.198 87.6564 214.198 87.6564C213.824 89.1904 209.128 89.7364 205.114 88.816C203.902 89.1384 198.874 90.376 197.834 90.688C194.948 91.6448 194.059 94.588 193.612 104C193.612 104 193.7 122.554 193.612 131.409C198.687 134.087 206.528 133.754 212.108 133.188C220.875 132.304 222.18 129.126 222.18 129.126C221.811 123.963 222.035 122.018 222.18 116.922C222.29 113.09 223.392 109.039 223.74 104.697C224.255 98.2436 223.694 93.9848 223.179 92.2792Z" fill="#9ED2FD"/>
<path d="M203.471 85.5608C201.391 85.4152 198.791 87.074 198.12 90.6256L199.815 90.1732L203.471 85.5608Z" fill="#9ED2FD"/>
<path opacity="0.3" d="M203.471 85.5608C201.391 85.4152 198.791 87.074 198.12 90.6256L199.815 90.1732L203.471 85.5608Z" fill="black"/>
<path d="M204.994 86.32C206.554 86.84 211.104 86.7672 212.628 86.32C214.152 85.8728 214.136 85.1968 214.136 85.1968V84.4324C215.015 84.4299 215.873 84.6967 216.596 85.1968C217.568 85.9872 219.242 88.8368 219.196 90.2044C219.149 91.572 216.226 95.1808 210.59 95.0924C204.953 95.004 201.786 92.9188 200.814 91.546L199.836 90.168C199.836 90.168 201.172 87.4224 202.488 86.268C203.163 85.6142 204.028 85.1917 204.958 85.0616L204.994 86.32Z" fill="#9ED2FD"/>
<path opacity="0.2" d="M204.994 86.32C206.554 86.84 211.104 86.7672 212.628 86.32C214.152 85.8728 214.136 85.1968 214.136 85.1968V84.4324C215.015 84.4299 215.873 84.6967 216.596 85.1968C217.568 85.9872 219.242 88.8368 219.196 90.2044C219.149 91.572 216.226 95.1808 210.59 95.0924C204.953 95.004 201.786 92.9188 200.814 91.546L199.836 90.168C199.836 90.168 201.172 87.4224 202.488 86.268C203.163 85.6142 204.028 85.1917 204.958 85.0616L204.994 86.32Z" fill="black"/>
<path d="M198.812 72.6752C198.812 72.6752 196.664 75.9356 196.908 76.2528C197.153 76.57 198.734 76.8664 198.734 76.8664L198.812 72.6752Z" fill="#F28F8F"/>
<path d="M204.781 63.648C200.434 64.5684 198.697 65.8424 198.427 73.2732C198.167 80.5012 199.077 82.8828 200.023 83.8552C200.663 84.5104 204.225 84.63 206.019 84.1308C208.265 83.512 213.346 81.7128 215.722 78.0832C218.52 73.8088 219.253 68.016 216.242 65.6396C212.046 62.296 206.554 63.2736 204.781 63.648Z" fill="#FFA8A7"/>
<path d="M200.023 83.85C200.543 84.37 203.034 84.5676 204.906 84.3388L204.88 83.2624C203.329 83.8346 201.666 84.0358 200.023 83.85Z" fill="#F28F8F"/>
<path d="M197.85 66.4404C198.933 67.2168 200.276 67.5396 201.594 67.34C201.568 67.9226 201.724 68.4988 202.041 68.9884C202.482 69.6559 203.151 70.1402 203.923 70.3508C203.447 71.2836 203.194 72.3144 203.185 73.3616C203.156 73.6903 203.226 74.0202 203.388 74.308C203.438 74.4126 203.516 74.5009 203.614 74.5627C203.712 74.6246 203.826 74.6574 203.941 74.6574C204.057 74.6574 204.171 74.6246 204.269 74.5627C204.367 74.5009 204.445 74.4126 204.495 74.308C204.74 73.7548 205.047 73.2314 205.41 72.748C205.882 72.1839 206.545 71.8136 207.272 71.708C210.002 71.4116 210.345 74.984 209.253 76.466C207.464 78.8892 205.946 77.246 205.946 77.246C205.876 78.3819 206.049 79.5197 206.452 80.5838C206.856 81.6479 207.481 82.6142 208.286 83.4184C210.227 83.9902 212.283 84.0422 214.25 83.5692C216.674 80.236 218.197 78.6136 219.492 75.738C222.227 69.6488 220.906 65.8268 218.79 64.2148C218.374 61.412 216.164 60.1536 213.642 59.5764C209.877 58.708 206.362 60.944 202.628 60.0964C202.016 59.9681 201.41 59.8085 200.814 59.618C200.584 59.5103 200.322 59.4936 200.08 59.5712C199.947 59.6601 199.842 59.7863 199.779 59.9342C199.716 60.0821 199.698 60.2451 199.727 60.4032C199.774 61.1208 200.502 61.9164 200.871 62.3012C200.055 62.3758 199.233 62.3285 198.432 62.1608C198.154 62.1087 197.868 62.1087 197.59 62.1608C197.284 62.2852 197.026 62.5032 196.852 62.7835C196.679 63.0638 196.598 63.3919 196.622 63.7208C196.626 64.2347 196.736 64.7423 196.948 65.2107C197.159 65.6791 197.466 66.098 197.85 66.4404Z" fill="#263238"/>
<path d="M218.858 65.1196L221.458 63.5596C221.251 63.2148 220.915 62.9663 220.525 62.8688C220.135 62.7713 219.722 62.8327 219.378 63.0396C219.033 63.2465 218.784 63.5818 218.687 63.9719C218.589 64.362 218.651 64.7748 218.858 65.1196Z" fill="#263238"/>
<path d="M184.974 106.08C184.385 103.764 183.817 101.445 183.269 99.1224C182.749 96.9852 181.948 94.51 182.681 92.326C183.098 91.3722 183.621 90.4685 184.241 89.6324C184.778 88.7511 185.23 87.8214 185.593 86.8556C185.775 86.3876 185.942 85.9092 186.113 85.436C186.285 84.9628 186.529 84.6924 186.415 84.24C186.035 82.758 184.122 84.7028 183.732 85.3112C183.559 85.6306 183.357 85.9334 183.128 86.216C182.879 86.4812 182.27 86.814 181.979 86.424C181.882 86.2675 181.828 86.0881 181.823 85.904C181.626 83.6212 182.447 81.5776 183.128 79.4456C183.236 79.1657 183.301 78.8712 183.321 78.572C183.333 78.4226 183.313 78.2723 183.262 78.1314C183.211 77.9905 183.13 77.8623 183.024 77.7556C182.855 77.6255 182.654 77.5426 182.442 77.5152C182.23 77.4878 182.015 77.5169 181.818 77.5996C181.433 77.7296 181.1 77.974 180.716 78.0936C180.331 78.2132 180.045 78.2132 179.707 78.3016C178.905 78.4803 178.133 78.7727 177.414 79.17C176.166 79.9032 175.614 80.9744 175.287 82.3368C174.893 84.0102 174.76 85.7343 174.892 87.4484C174.98 88.5872 175.183 89.7104 175.323 90.8336L175.791 94.5932C176.108 97.0996 176.202 109.621 176.634 112.112C177.065 114.603 177.897 116.272 179.868 117.099C182.728 118.264 187.351 113.001 189.977 110.276L184.974 106.08Z" fill="#FFA8A7"/>
<path d="M183.929 104.66C182.088 106.038 179.795 108.332 179.332 110.63C179.332 110.63 178.875 106.496 183.929 102.83V104.66Z" fill="#F28F8F"/>
<path d="M197.688 90.7452C195.92 90.9116 193.008 90.974 190.044 94.1616C186.607 97.8848 181.308 105.227 181.308 105.227C181.308 105.227 182 111.072 187.626 113.168C187.626 113.168 195.806 105.368 197.564 102.008C199.321 98.6492 199.716 93.08 197.688 90.7452Z" fill="#37474F"/>
<path d="M195.333 78.39L193.097 77.1888L194.381 76.0916L189.738 73.918L191.766 72.7428L186.763 70.0804L189.738 72.7064L187.32 73.918L192.774 76.2788L191.428 77.6256L195.333 78.39Z" fill="#9ED2FD"/>
<path d="M196.472 75.4416L195.016 74.048L195.811 73.4604L194.532 71.942L195.759 71.526L195.333 69.602L196.196 71.6768L195.333 72.0512L196.716 73.5696L195.78 74.2352L196.472 75.4416Z" fill="#9ED2FD"/>
<path d="M195.624 80.5896L192.878 82.732L191.864 81.2396L189.462 82.5448L188.479 80.6988L184.761 81.6504L189.062 79.5912L190.294 81.2916L192.291 80.2204L193.123 81.6504L195.624 80.5896Z" fill="#9ED2FD"/>
<path d="M176.535 118.929C176.618 118.86 176.726 118.826 176.834 118.836C176.942 118.846 177.042 118.898 177.112 118.981C177.644 119.578 178.334 120.012 179.103 120.231C179.872 120.45 180.687 120.446 181.454 120.219C181.506 120.2 181.562 120.193 181.617 120.196C181.672 120.2 181.726 120.215 181.776 120.24C181.825 120.265 181.869 120.299 181.905 120.342C181.941 120.384 181.967 120.433 181.984 120.486C182 120.54 182.005 120.595 181.999 120.65C181.993 120.706 181.976 120.759 181.949 120.807C181.922 120.856 181.885 120.898 181.841 120.932C181.797 120.966 181.747 120.99 181.693 121.004C180.774 121.276 179.796 121.28 178.875 121.014C177.953 120.749 177.127 120.226 176.493 119.506C176.458 119.466 176.43 119.419 176.413 119.368C176.396 119.317 176.389 119.263 176.393 119.209C176.397 119.155 176.411 119.103 176.436 119.055C176.46 119.007 176.494 118.964 176.535 118.929Z" fill="#E0E0E0"/>
<path d="M176.951 121.68C177.024 121.619 177.116 121.586 177.211 121.586C177.306 121.586 177.398 121.619 177.471 121.68C177.894 121.986 178.379 122.196 178.892 122.295C179.405 122.393 179.933 122.379 180.44 122.252C180.547 122.232 180.658 122.255 180.749 122.317C180.839 122.378 180.902 122.472 180.924 122.58C180.934 122.632 180.934 122.686 180.924 122.739C180.913 122.792 180.892 122.842 180.862 122.886C180.832 122.931 180.794 122.969 180.749 122.998C180.704 123.028 180.654 123.048 180.601 123.058C179.975 123.203 179.324 123.209 178.695 123.076C178.066 122.942 177.474 122.671 176.961 122.283C176.92 122.248 176.886 122.206 176.862 122.158C176.838 122.109 176.823 122.057 176.819 122.003C176.815 121.95 176.822 121.896 176.84 121.845C176.857 121.794 176.884 121.746 176.92 121.706C176.929 121.696 176.939 121.687 176.951 121.68Z" fill="#E0E0E0"/>
<path d="M228.01 90.1628C227.962 90.1877 227.909 90.2028 227.855 90.2071C227.801 90.2114 227.747 90.2049 227.696 90.1879C227.644 90.1709 227.597 90.1439 227.556 90.1083C227.515 90.0728 227.482 90.0294 227.458 89.9808C227.079 89.2771 226.508 88.6955 225.811 88.3034C225.114 87.9113 224.32 87.7248 223.522 87.7656C223.468 87.7687 223.414 87.7611 223.363 87.7433C223.312 87.7255 223.265 87.6978 223.225 87.6618C223.143 87.5892 223.094 87.4872 223.088 87.3782C223.082 87.2693 223.119 87.1623 223.192 87.0809C223.264 86.9994 223.366 86.9502 223.475 86.944C224.434 86.8938 225.387 87.1182 226.222 87.5907C227.057 88.0632 227.741 88.7643 228.192 89.6116C228.239 89.7091 228.247 89.8212 228.213 89.9242C228.179 90.0271 228.106 90.1128 228.01 90.1628Z" fill="#E0E0E0"/>
<path d="M228.238 87.4068C228.151 87.4526 228.051 87.4652 227.955 87.4422C227.859 87.4193 227.775 87.3623 227.718 87.282C227.383 86.8898 226.967 86.5744 226.498 86.3573C226.03 86.1402 225.52 86.0264 225.004 86.0236C224.95 86.0215 224.897 86.0089 224.848 85.9864C224.799 85.9638 224.755 85.9318 224.718 85.8922C224.681 85.8526 224.653 85.8062 224.634 85.7556C224.615 85.705 224.607 85.6511 224.609 85.5972C224.611 85.5432 224.623 85.4902 224.646 85.4412C224.669 85.3921 224.701 85.348 224.74 85.3113C224.78 85.2746 224.826 85.246 224.877 85.2273C224.927 85.2085 224.981 85.1999 225.035 85.202C225.676 85.2084 226.309 85.3551 226.887 85.6318C227.466 85.9085 227.976 86.3084 228.384 86.8036C228.443 86.8916 228.465 86.999 228.445 87.1029C228.426 87.2069 228.366 87.2991 228.28 87.36L228.238 87.4068Z" fill="#E0E0E0"/>
<path d="M235.508 117.38C235.456 117.284 235.444 117.172 235.474 117.068C235.504 116.964 235.574 116.876 235.669 116.823C236.354 116.411 236.908 115.813 237.266 115.099C237.624 114.385 237.772 113.583 237.692 112.788C237.685 112.734 237.69 112.68 237.705 112.628C237.72 112.576 237.745 112.527 237.779 112.485C237.813 112.443 237.855 112.408 237.902 112.382C237.95 112.357 238.002 112.341 238.056 112.336C238.164 112.324 238.273 112.356 238.358 112.424C238.442 112.492 238.497 112.591 238.508 112.7C238.601 113.651 238.422 114.608 237.992 115.462C237.562 116.315 236.899 117.029 236.08 117.52C236.033 117.549 235.981 117.569 235.927 117.577C235.873 117.586 235.818 117.584 235.764 117.571C235.711 117.558 235.661 117.534 235.617 117.501C235.573 117.468 235.536 117.427 235.508 117.38Z" fill="#E0E0E0"/>
<path d="M238.269 117.478C238.223 117.394 238.207 117.296 238.225 117.201C238.243 117.106 238.294 117.02 238.368 116.958C238.745 116.605 239.042 116.175 239.236 115.696C239.431 115.218 239.52 114.703 239.496 114.187C239.496 114.078 239.54 113.973 239.617 113.896C239.694 113.819 239.798 113.776 239.907 113.776C240.016 113.776 240.121 113.819 240.198 113.896C240.275 113.973 240.318 114.078 240.318 114.187C240.34 114.827 240.224 115.464 239.976 116.055C239.728 116.646 239.355 117.176 238.883 117.608C238.84 117.642 238.792 117.667 238.74 117.681C238.688 117.696 238.634 117.7 238.58 117.694C238.527 117.688 238.475 117.671 238.428 117.645C238.381 117.618 238.339 117.583 238.306 117.541L238.269 117.478Z" fill="#E0E0E0"/>
<path d="M190.434 166.92C190.531 166.969 190.605 167.054 190.64 167.157C190.675 167.26 190.669 167.373 190.622 167.471C190.292 168.199 190.177 169.006 190.289 169.797C190.402 170.588 190.737 171.331 191.256 171.938C191.326 172.022 191.361 172.13 191.352 172.239C191.343 172.348 191.292 172.449 191.209 172.52C191.127 172.591 191.02 172.626 190.912 172.618C190.804 172.611 190.703 172.56 190.632 172.479C190.009 171.748 189.607 170.854 189.474 169.902C189.342 168.951 189.483 167.981 189.883 167.107C189.932 167.01 190.018 166.936 190.121 166.901C190.224 166.866 190.336 166.873 190.434 166.92Z" fill="#E0E0E0"/>
<path d="M188.105 168.402C188.194 168.444 188.264 168.516 188.305 168.606C188.345 168.696 188.351 168.797 188.323 168.891C188.214 169.396 188.216 169.919 188.328 170.423C188.44 170.928 188.66 171.402 188.973 171.813C189.035 171.903 189.059 172.012 189.04 172.119C189.022 172.226 188.962 172.322 188.874 172.385C188.785 172.448 188.675 172.473 188.568 172.454C188.461 172.436 188.365 172.375 188.302 172.286C187.917 171.772 187.648 171.18 187.515 170.551C187.383 169.923 187.388 169.273 187.533 168.646C187.549 168.594 187.575 168.546 187.61 168.504C187.645 168.462 187.688 168.427 187.736 168.402C187.785 168.377 187.837 168.362 187.892 168.357C187.946 168.353 188.001 168.359 188.053 168.376L188.105 168.402Z" fill="#E0E0E0"/>
<path d="M159.874 24.154C159.848 23.6691 159.708 23.1972 159.465 22.7769C159.222 22.3566 158.883 21.9999 158.475 21.736L157.342 21.0756C156.908 20.8587 156.43 20.7458 155.945 20.7458C155.461 20.7458 154.983 20.8587 154.549 21.0756L128.211 36.296C127.804 36.5605 127.465 36.9174 127.222 37.3375C126.979 37.7577 126.839 38.2293 126.812 38.714V52.3328C126.839 52.8174 126.98 53.2889 127.223 53.709C127.466 54.1291 127.804 54.486 128.211 54.7508L129.35 55.406C129.782 55.6265 130.261 55.7415 130.746 55.7415C131.232 55.7415 131.71 55.6265 132.142 55.406L158.475 40.1908C158.883 39.9269 159.222 39.5702 159.465 39.1499C159.708 38.7296 159.848 38.2577 159.874 37.7728V24.154Z" fill="#9ED2FD"/>
<path opacity="0.5" d="M159.874 24.154C159.848 23.6691 159.708 23.1972 159.465 22.7769C159.222 22.3566 158.883 21.9999 158.475 21.736L157.342 21.0756C156.908 20.8587 156.43 20.7458 155.945 20.7458C155.461 20.7458 154.983 20.8587 154.549 21.0756L128.211 36.296C127.804 36.5605 127.465 36.9174 127.222 37.3375C126.979 37.7577 126.839 38.2293 126.812 38.714V52.3328C126.839 52.8174 126.98 53.2889 127.223 53.709C127.466 54.1291 127.804 54.486 128.211 54.7508L129.35 55.406C129.782 55.6265 130.261 55.7415 130.746 55.7415C131.232 55.7415 131.71 55.6265 132.142 55.406L158.475 40.1908C158.883 39.9269 159.222 39.5702 159.465 39.1499C159.708 38.7296 159.848 38.2577 159.874 37.7728V24.154Z" fill="#9ED2FD"/>
<path opacity="0.2" d="M126.812 52.3328C126.839 52.8174 126.98 53.2889 127.223 53.709C127.466 54.1291 127.804 54.486 128.211 54.7508L129.35 55.406C129.743 55.6042 130.174 55.7169 130.614 55.7366C131.054 55.7563 131.494 55.6826 131.903 55.5204C131.243 55.77 130.744 55.4008 130.744 54.6V40.9812C130.76 40.4943 130.902 40.0199 131.154 39.6032L127.223 37.336C126.97 37.7524 126.829 38.227 126.812 38.714V52.3328Z" fill="black"/>
<path opacity="0.3" d="M159.827 23.7588C159.666 23.166 159.125 22.9736 158.48 23.348L132.142 38.5632C131.728 38.8175 131.387 39.1761 131.154 39.6032L127.228 37.336C127.461 36.9103 127.799 36.552 128.211 36.296L154.544 21.0808C154.976 20.8603 155.455 20.7453 155.94 20.7453C156.426 20.7453 156.904 20.8603 157.336 21.0808L158.48 21.736C158.83 21.9646 159.13 22.2617 159.361 22.6094C159.593 22.9571 159.751 23.3481 159.827 23.7588Z" fill="#9ED2FD"/>
<path d="M130.749 45.3856L126.823 43.1184L122.091 47.6736C122.02 47.7452 121.966 47.8321 121.933 47.9277C121.9 48.0233 121.89 48.125 121.903 48.2253C121.915 48.3255 121.95 48.4215 122.005 48.5061C122.061 48.5907 122.134 48.6617 122.221 48.7136L126.084 50.96C126.244 51.0437 126.424 51.0815 126.604 51.0692L130.764 50.2736V45.3856H130.749Z" fill="#9ED2FD"/>
<path opacity="0.5" d="M130.749 45.3856L126.823 43.1184L122.091 47.6736C122.02 47.7452 121.966 47.8321 121.933 47.9277C121.9 48.0233 121.89 48.125 121.903 48.2253C121.915 48.3255 121.95 48.4215 122.005 48.5061C122.061 48.5907 122.134 48.6617 122.221 48.7136L126.084 50.96C126.244 51.0437 126.424 51.0815 126.604 51.0692L130.764 50.2736V45.3856H130.749Z" fill="#9ED2FD"/>
<path opacity="0.3" d="M126.084 50.96L124.004 49.7692L123.76 49.608L122.647 48.9632L122.512 48.88L122.216 48.7084C122.129 48.6565 122.055 48.5855 122 48.5009C121.945 48.4163 121.91 48.3203 121.897 48.22C121.885 48.1198 121.895 48.0181 121.928 47.9225C121.96 47.8269 122.014 47.74 122.086 47.6684L126.818 43.1132L130.749 45.3856L126.017 49.92C125.942 49.9867 125.883 50.0698 125.845 50.1628C125.806 50.2557 125.79 50.3562 125.796 50.4565C125.803 50.5568 125.832 50.6543 125.882 50.7416C125.932 50.8288 126.001 50.9035 126.084 50.96Z" fill="#9ED2FD"/>
<path d="M138.44 41.1996C137.896 41.553 137.444 42.0296 137.12 42.5908C136.795 43.1519 136.608 43.7816 136.573 44.4288C136.573 45.6144 137.41 46.098 138.44 45.5052C138.982 45.1515 139.434 44.6747 139.757 44.1136C140.081 43.5524 140.267 42.9228 140.301 42.276C140.301 41.08 139.469 40.6068 138.44 41.1996Z" fill="#9ED2FD"/>
<path d="M145.309 37.2268C144.766 37.5805 144.315 38.0573 143.991 38.6184C143.668 39.1796 143.481 39.8092 143.447 40.456C143.447 41.6416 144.279 42.1252 145.309 41.5272C145.851 41.174 146.302 40.6981 146.625 40.1379C146.949 39.5777 147.135 38.9491 147.17 38.3032C147.16 37.1124 146.338 36.6288 145.309 37.2268Z" fill="#9ED2FD"/>
<path d="M152.178 33.2488C151.636 33.6034 151.185 34.0804 150.862 34.6414C150.539 35.2023 150.352 35.8315 150.316 36.478C150.316 37.6688 151.148 38.1472 152.178 37.5544C152.722 37.2005 153.175 36.723 153.499 36.161C153.823 35.5989 154.01 34.9681 154.045 34.32C154.045 33.1396 153.208 32.656 152.178 33.2488Z" fill="#9ED2FD"/>
<path d="M210.569 50.8508L208.681 47.32L210.2 42.9364V40.2376L205.551 42.9208V45.604L207.548 49.0672C207.581 49.1189 207.627 49.1604 207.683 49.1868L210.569 50.8508Z" fill="#9ED2FD"/>
<path opacity="0.2" d="M210.569 50.8508L208.681 47.32L210.2 42.9364V40.2376L205.551 42.9208V45.604L207.548 49.0672C207.581 49.1189 207.627 49.1604 207.683 49.1868L210.569 50.8508Z" fill="black"/>
<path d="M224.687 22.765C224.661 22.2815 224.521 21.8109 224.279 21.3916C224.037 20.9723 223.699 20.6161 223.293 20.3522L222.16 19.697C221.728 19.4765 221.251 19.3616 220.766 19.3616C220.281 19.3616 219.804 19.4765 219.372 19.697L193.097 34.8758C192.693 35.143 192.356 35.5006 192.115 35.9203C191.873 36.34 191.732 36.8102 191.703 37.2938V50.8814C191.729 51.3649 191.869 51.8355 192.111 52.2548C192.353 52.6741 192.691 53.0303 193.097 53.2942L194.23 53.9494C194.663 54.1655 195.14 54.2779 195.624 54.2779C196.108 54.2779 196.585 54.1655 197.018 53.9494L208.458 47.2934L210.454 50.7462C210.483 50.7924 210.524 50.8296 210.573 50.8536C210.622 50.8776 210.676 50.8875 210.731 50.8821C210.785 50.8766 210.836 50.8562 210.879 50.823C210.922 50.7898 210.955 50.7452 210.974 50.6942L213.086 44.6154L223.267 38.7654C223.673 38.5014 224.011 38.1453 224.253 37.726C224.495 37.3067 224.635 36.8361 224.661 36.3526L224.687 22.765Z" fill="#9ED2FD"/>
<path d="M199.576 39.9256L220.584 27.794C221.208 27.4352 221.712 27.69 221.712 28.366C221.684 28.7439 221.567 29.1099 221.371 29.4342C221.175 29.7585 220.905 30.0321 220.584 30.2328L199.576 42.3644C198.957 42.7232 198.453 42.4684 198.453 41.7924C198.481 41.415 198.597 41.0496 198.792 40.7253C198.987 40.4011 199.256 40.1272 199.576 39.9256Z" fill="#9ED2FD"/>
<path d="M199.576 45.3284L220.584 33.202C221.208 32.8432 221.712 33.098 221.712 33.7688C221.685 34.1476 221.568 34.5146 221.372 34.8399C221.176 35.1652 220.906 35.4396 220.584 35.6408L199.576 47.7672C198.957 48.1312 198.453 47.8712 198.453 47.2004C198.48 46.8221 198.596 46.4556 198.791 46.1304C198.986 45.8052 199.255 45.5305 199.576 45.3284Z" fill="#9ED2FD"/>
<path opacity="0.2" d="M191.703 50.882C191.729 51.3655 191.869 51.8361 192.111 52.2554C192.353 52.6747 192.691 53.0308 193.097 53.2948L194.23 53.95C194.623 54.1475 195.053 54.2597 195.492 54.2795C195.931 54.2992 196.37 54.2259 196.778 54.0644C196.123 54.3088 195.624 53.9396 195.624 53.144V39.5564C195.641 39.0718 195.78 38.5994 196.03 38.1836L192.109 35.9164C191.859 36.3341 191.72 36.8082 191.703 37.2944V50.882Z" fill="black"/>
<path opacity="0.2" d="M224.64 22.36C224.479 21.7672 223.938 21.58 223.293 21.9492L197.018 37.1332C196.604 37.3871 196.265 37.7459 196.035 38.1732L192.114 35.9112C192.347 35.4862 192.686 35.1281 193.097 34.8712L219.367 19.6872C219.801 19.4703 220.279 19.3574 220.763 19.3574C221.248 19.3574 221.726 19.4703 222.16 19.6872L223.293 20.3424C223.643 20.5693 223.943 20.8652 224.175 21.2122C224.406 21.5591 224.565 21.9497 224.64 22.36Z" fill="#9ED2FD"/>
</svg>
